<?xml version="1.0" encoding="utf-8" standalone="no"?>
<!DOCTYPE svg PUBLIC "-//W3C//DTD SVG 1.1//EN"
  "http://www.w3.org/Graphics/SVG/1.1/DTD/svg11.dtd">
<svg xmlns:xlink="http://www.w3.org/1999/xlink" width="1728pt" height="972pt" viewBox="0 0 1728 972" xmlns="http://www.w3.org/2000/svg" version="1.1">
 <metadata>
  <rdf:RDF xmlns:dc="http://purl.org/dc/elements/1.1/" xmlns:cc="http://creativecommons.org/ns#" xmlns:rdf="http://www.w3.org/1999/02/22-rdf-syntax-ns#">
   <cc:Work>
    <dc:type rdf:resource="http://purl.org/dc/dcmitype/StillImage"/>
    <dc:date>2025-10-21T22:13:24.497658</dc:date>
    <dc:format>image/svg+xml</dc:format>
    <dc:creator>
     <cc:Agent>
      <dc:title>Matplotlib v3.6.3, https://matplotlib.org/</dc:title>
     </cc:Agent>
    </dc:creator>
   </cc:Work>
  </rdf:RDF>
 </metadata>
 <defs>
  <style type="text/css">*{stroke-linejoin: round; stroke-linecap: butt}</style>
 </defs>
 <g id="figure_1">
  <g id="patch_1">
   <path d="M 0 972 
L 1728 972 
L 1728 0 
L 0 0 
z
" style="fill: #ffffff"/>
  </g>
  <g id="axes_1">
   <g id="patch_2">
    <path d="M 129.6 416.88 
C 131.891355 416.88 134.08917 415.969635 135.709403 414.349403 
C 137.329635 412.72917 138.24 410.531355 138.24 408.24 
C 138.24 405.948645 137.329635 403.75083 135.709403 402.130597 
C 134.08917 400.510365 131.891355 399.6 129.6 399.6 
C 127.308645 399.6 125.11083 400.510365 123.490597 402.130597 
C 121.870365 403.75083 120.96 405.948645 120.96 408.24 
C 120.96 410.531355 121.870365 412.72917 123.490597 414.349403 
C 125.11083 415.969635 127.308645 416.88 129.6 416.88 
z
" clip-path="url(#pb256ab1c8e)" style="fill: #1e88e5"/>
   </g>
   <g id="patch_3">
    <path d="M 149.76 416.88 
C 152.051355 416.88 154.24917 415.969635 155.869403 414.349403 
C 157.489635 412.72917 158.4 410.531355 158.4 408.24 
C 158.4 405.948645 157.489635 403.75083 155.869403 402.130597 
C 154.24917 400.510365 152.051355 399.6 149.76 399.6 
C 147.468645 399.6 145.27083 400.510365 143.650597 402.130597 
C 142.030365 403.75083 141.12 405.948645 141.12 408.24 
C 141.12 410.531355 142.030365 412.72917 143.650597 414.349403 
C 145.27083 415.969635 147.468645 416.88 149.76 416.88 
z
" clip-path="url(#pb256ab1c8e)" style="fill: #1e88e5"/>
   </g>
   <g id="patch_4">
    <path d="M 129.6 503.28 
C 131.891355 503.28 134.08917 502.369635 135.709403 500.749403 
C 137.329635 499.12917 138.24 496.931355 138.24 494.64 
C 138.24 492.348645 137.329635 490.15083 135.709403 488.530597 
C 134.08917 486.910365 131.891355 486 129.6 486 
C 127.308645 486 125.11083 486.910365 123.490597 488.530597 
C 121.870365 490.15083 120.96 492.348645 120.96 494.64 
C 120.96 496.931355 121.870365 499.12917 123.490597 500.749403 
C 125.11083 502.369635 127.308645 503.28 129.6 503.28 
z
" clip-path="url(#pb256ab1c8e)" style="fill: #1e88e5"/>
   </g>
   <g id="patch_5">
    <path d="M 149.76 503.28 
C 152.051355 503.28 154.24917 502.369635 155.869403 500.749403 
C 157.489635 499.12917 158.4 496.931355 158.4 494.64 
C 158.4 492.348645 157.489635 490.15083 155.869403 488.530597 
C 154.24917 486.910365 152.051355 486 149.76 486 
C 147.468645 486 145.27083 486.910365 143.650597 488.530597 
C 142.030365 490.15083 141.12 492.348645 141.12 494.64 
C 141.12 496.931355 142.030365 499.12917 143.650597 500.749403 
C 145.27083 502.369635 147.468645 503.28 149.76 503.28 
z
" clip-path="url(#pb256ab1c8e)" style="fill: #1e88e5"/>
   </g>
   <g id="patch_6">
    <path d="M 169.92 503.28 
C 172.211355 503.28 174.40917 502.369635 176.029403 500.749403 
C 177.649635 499.12917 178.56 496.931355 178.56 494.64 
C 178.56 492.348645 177.649635 490.15083 176.029403 488.530597 
C 174.40917 486.910365 172.211355 486 169.92 486 
C 167.628645 486 165.43083 486.910365 163.810597 488.530597 
C 162.190365 490.15083 161.28 492.348645 161.28 494.64 
C 161.28 496.931355 162.190365 499.12917 163.810597 500.749403 
C 165.43083 502.369635 167.628645 503.28 169.92 503.28 
z
" clip-path="url(#pb256ab1c8e)" style="fill: #1e88e5"/>
   </g>
   <g id="patch_7">
    <path d="M 129.6 589.68 
C 131.891355 589.68 134.08917 588.769635 135.709403 587.149403 
C 137.329635 585.52917 138.24 583.331355 138.24 581.04 
C 138.24 578.748645 137.329635 576.55083 135.709403 574.930597 
C 134.08917 573.310365 131.891355 572.4 129.6 572.4 
C 127.308645 572.4 125.11083 573.310365 123.490597 574.930597 
C 121.870365 576.55083 120.96 578.748645 120.96 581.04 
C 120.96 583.331355 121.870365 585.52917 123.490597 587.149403 
C 125.11083 588.769635 127.308645 589.68 129.6 589.68 
z
" clip-path="url(#pb256ab1c8e)" style="fill: #1e88e5"/>
   </g>
   <g id="patch_8">
    <path d="M 149.76 589.68 
C 152.051355 589.68 154.24917 588.769635 155.869403 587.149403 
C 157.489635 585.52917 158.4 583.331355 158.4 581.04 
C 158.4 578.748645 157.489635 576.55083 155.869403 574.930597 
C 154.24917 573.310365 152.051355 572.4 149.76 572.4 
C 147.468645 572.4 145.27083 573.310365 143.650597 574.930597 
C 142.030365 576.55083 141.12 578.748645 141.12 581.04 
C 141.12 583.331355 142.030365 585.52917 143.650597 587.149403 
C 145.27083 588.769635 147.468645 589.68 149.76 589.68 
z
" clip-path="url(#pb256ab1c8e)" style="fill: #1e88e5"/>
   </g>
   <g id="patch_9">
    <path d="M 169.92 589.68 
C 172.211355 589.68 174.40917 588.769635 176.029403 587.149403 
C 177.649635 585.52917 178.56 583.331355 178.56 581.04 
C 178.56 578.748645 177.649635 576.55083 176.029403 574.930597 
C 174.40917 573.310365 172.211355 572.4 169.92 572.4 
C 167.628645 572.4 165.43083 573.310365 163.810597 574.930597 
C 162.190365 576.55083 161.28 578.748645 161.28 581.04 
C 161.28 583.331355 162.190365 585.52917 163.810597 587.149403 
C 165.43083 588.769635 167.628645 589.68 169.92 589.68 
z
" clip-path="url(#pb256ab1c8e)" style="fill: #1e88e5"/>
   </g>
   <g id="patch_10">
    <path d="M 190.08 589.68 
C 192.371355 589.68 194.56917 588.769635 196.189403 587.149403 
C 197.809635 585.52917 198.72 583.331355 198.72 581.04 
C 198.72 578.748645 197.809635 576.55083 196.189403 574.930597 
C 194.56917 573.310365 192.371355 572.4 190.08 572.4 
C 187.788645 572.4 185.59083 573.310365 183.970597 574.930597 
C 182.350365 576.55083 181.44 578.748645 181.44 581.04 
C 181.44 583.331355 182.350365 585.52917 183.970597 587.149403 
C 185.59083 588.769635 187.788645 589.68 190.08 589.68 
z
" clip-path="url(#pb256ab1c8e)" style="fill: #1e88e5"/>
   </g>
   <g id="patch_11">
    <path d="M 210.24 589.68 
C 212.531355 589.68 214.72917 588.769635 216.349403 587.149403 
C 217.969635 585.52917 218.88 583.331355 218.88 581.04 
C 218.88 578.748645 217.969635 576.55083 216.349403 574.930597 
C 214.72917 573.310365 212.531355 572.4 210.24 572.4 
C 207.948645 572.4 205.75083 573.310365 204.130597 574.930597 
C 202.510365 576.55083 201.6 578.748645 201.6 581.04 
C 201.6 583.331355 202.510365 585.52917 204.130597 587.149403 
C 205.75083 588.769635 207.948645 589.68 210.24 589.68 
z
" clip-path="url(#pb256ab1c8e)" style="fill: #1e88e5"/>
   </g>
   <g id="patch_12">
    <path d="M 129.6 676.08 
C 131.891355 676.08 134.08917 675.169635 135.709403 673.549403 
C 137.329635 671.92917 138.24 669.731355 138.24 667.44 
C 138.24 665.148645 137.329635 662.95083 135.709403 661.330597 
C 134.08917 659.710365 131.891355 658.8 129.6 658.8 
C 127.308645 658.8 125.11083 659.710365 123.490597 661.330597 
C 121.870365 662.95083 120.96 665.148645 120.96 667.44 
C 120.96 669.731355 121.870365 671.92917 123.490597 673.549403 
C 125.11083 675.169635 127.308645 676.08 129.6 676.08 
z
" clip-path="url(#pb256ab1c8e)" style="fill: #1e88e5"/>
   </g>
   <g id="patch_13">
    <path d="M 149.76 676.08 
C 152.051355 676.08 154.24917 675.169635 155.869403 673.549403 
C 157.489635 671.92917 158.4 669.731355 158.4 667.44 
C 158.4 665.148645 157.489635 662.95083 155.869403 661.330597 
C 154.24917 659.710365 152.051355 658.8 149.76 658.8 
C 147.468645 658.8 145.27083 659.710365 143.650597 661.330597 
C 142.030365 662.95083 141.12 665.148645 141.12 667.44 
C 141.12 669.731355 142.030365 671.92917 143.650597 673.549403 
C 145.27083 675.169635 147.468645 676.08 149.76 676.08 
z
" clip-path="url(#pb256ab1c8e)" style="fill: #1e88e5"/>
   </g>
   <g id="patch_14">
    <path d="M 169.92 676.08 
C 172.211355 676.08 174.40917 675.169635 176.029403 673.549403 
C 177.649635 671.92917 178.56 669.731355 178.56 667.44 
C 178.56 665.148645 177.649635 662.95083 176.029403 661.330597 
C 174.40917 659.710365 172.211355 658.8 169.92 658.8 
C 167.628645 658.8 165.43083 659.710365 163.810597 661.330597 
C 162.190365 662.95083 161.28 665.148645 161.28 667.44 
C 161.28 669.731355 162.190365 671.92917 163.810597 673.549403 
C 165.43083 675.169635 167.628645 676.08 169.92 676.08 
z
" clip-path="url(#pb256ab1c8e)" style="fill: #1e88e5"/>
   </g>
   <g id="patch_15">
    <path d="M 190.08 676.08 
C 192.371355 676.08 194.56917 675.169635 196.189403 673.549403 
C 197.809635 671.92917 198.72 669.731355 198.72 667.44 
C 198.72 665.148645 197.809635 662.95083 196.189403 661.330597 
C 194.56917 659.710365 192.371355 658.8 190.08 658.8 
C 187.788645 658.8 185.59083 659.710365 183.970597 661.330597 
C 182.350365 662.95083 181.44 665.148645 181.44 667.44 
C 181.44 669.731355 182.350365 671.92917 183.970597 673.549403 
C 185.59083 675.169635 187.788645 676.08 190.08 676.08 
z
" clip-path="url(#pb256ab1c8e)" style="fill: #1e88e5"/>
   </g>
   <g id="patch_16">
    <path d="M 210.24 676.08 
C 212.531355 676.08 214.72917 675.169635 216.349403 673.549403 
C 217.969635 671.92917 218.88 669.731355 218.88 667.44 
C 218.88 665.148645 217.969635 662.95083 216.349403 661.330597 
C 214.72917 659.710365 212.531355 658.8 210.24 658.8 
C 207.948645 658.8 205.75083 659.710365 204.130597 661.330597 
C 202.510365 662.95083 201.6 665.148645 201.6 667.44 
C 201.6 669.731355 202.510365 671.92917 204.130597 673.549403 
C 205.75083 675.169635 207.948645 676.08 210.24 676.08 
z
" clip-path="url(#pb256ab1c8e)" style="fill: #1e88e5"/>
   </g>
   <g id="patch_17">
    <path d="M 230.4 676.08 
C 232.691355 676.08 234.88917 675.169635 236.509403 673.549403 
C 238.129635 671.92917 239.04 669.731355 239.04 667.44 
C 239.04 665.148645 238.129635 662.95083 236.509403 661.330597 
C 234.88917 659.710365 232.691355 658.8 230.4 658.8 
C 228.108645 658.8 225.91083 659.710365 224.290597 661.330597 
C 222.670365 662.95083 221.76 665.148645 221.76 667.44 
C 221.76 669.731355 222.670365 671.92917 224.290597 673.549403 
C 225.91083 675.169635 228.108645 676.08 230.4 676.08 
z
" clip-path="url(#pb256ab1c8e)" style="fill: #1e88e5"/>
   </g>
   <g id="patch_18">
    <path d="M 250.56 676.08 
C 252.851355 676.08 255.04917 675.169635 256.669403 673.549403 
C 258.289635 671.92917 259.2 669.731355 259.2 667.44 
C 259.2 665.148645 258.289635 662.95083 256.669403 661.330597 
C 255.04917 659.710365 252.851355 658.8 250.56 658.8 
C 248.268645 658.8 246.07083 659.710365 244.450597 661.330597 
C 242.830365 662.95083 241.92 665.148645 241.92 667.44 
C 241.92 669.731355 242.830365 671.92917 244.450597 673.549403 
C 246.07083 675.169635 248.268645 676.08 250.56 676.08 
z
" clip-path="url(#pb256ab1c8e)" style="fill: #1e88e5"/>
   </g>
   <g id="patch_19">
    <path d="M 129.6 762.48 
C 131.891355 762.48 134.08917 761.569635 135.709403 759.949403 
C 137.329635 758.32917 138.24 756.131355 138.24 753.84 
C 138.24 751.548645 137.329635 749.35083 135.709403 747.730597 
C 134.08917 746.110365 131.891355 745.2 129.6 745.2 
C 127.308645 745.2 125.11083 746.110365 123.490597 747.730597 
C 121.870365 749.35083 120.96 751.548645 120.96 753.84 
C 120.96 756.131355 121.870365 758.32917 123.490597 759.949403 
C 125.11083 761.569635 127.308645 762.48 129.6 762.48 
z
" clip-path="url(#pb256ab1c8e)" style="fill: #1e88e5"/>
   </g>
   <g id="patch_20">
    <path d="M 149.76 762.48 
C 152.051355 762.48 154.24917 761.569635 155.869403 759.949403 
C 157.489635 758.32917 158.4 756.131355 158.4 753.84 
C 158.4 751.548645 157.489635 749.35083 155.869403 747.730597 
C 154.24917 746.110365 152.051355 745.2 149.76 745.2 
C 147.468645 745.2 145.27083 746.110365 143.650597 747.730597 
C 142.030365 749.35083 141.12 751.548645 141.12 753.84 
C 141.12 756.131355 142.030365 758.32917 143.650597 759.949403 
C 145.27083 761.569635 147.468645 762.48 149.76 762.48 
z
" clip-path="url(#pb256ab1c8e)" style="fill: #1e88e5"/>
   </g>
   <g id="patch_21">
    <path d="M 169.92 762.48 
C 172.211355 762.48 174.40917 761.569635 176.029403 759.949403 
C 177.649635 758.32917 178.56 756.131355 178.56 753.84 
C 178.56 751.548645 177.649635 749.35083 176.029403 747.730597 
C 174.40917 746.110365 172.211355 745.2 169.92 745.2 
C 167.628645 745.2 165.43083 746.110365 163.810597 747.730597 
C 162.190365 749.35083 161.28 751.548645 161.28 753.84 
C 161.28 756.131355 162.190365 758.32917 163.810597 759.949403 
C 165.43083 761.569635 167.628645 762.48 169.92 762.48 
z
" clip-path="url(#pb256ab1c8e)" style="fill: #1e88e5"/>
   </g>
   <g id="patch_22">
    <path d="M 190.08 762.48 
C 192.371355 762.48 194.56917 761.569635 196.189403 759.949403 
C 197.809635 758.32917 198.72 756.131355 198.72 753.84 
C 198.72 751.548645 197.809635 749.35083 196.189403 747.730597 
C 194.56917 746.110365 192.371355 745.2 190.08 745.2 
C 187.788645 745.2 185.59083 746.110365 183.970597 747.730597 
C 182.350365 749.35083 181.44 751.548645 181.44 753.84 
C 181.44 756.131355 182.350365 758.32917 183.970597 759.949403 
C 185.59083 761.569635 187.788645 762.48 190.08 762.48 
z
" clip-path="url(#pb256ab1c8e)" style="fill: #1e88e5"/>
   </g>
   <g id="patch_23">
    <path d="M 210.24 762.48 
C 212.531355 762.48 214.72917 761.569635 216.349403 759.949403 
C 217.969635 758.32917 218.88 756.131355 218.88 753.84 
C 218.88 751.548645 217.969635 749.35083 216.349403 747.730597 
C 214.72917 746.110365 212.531355 745.2 210.24 745.2 
C 207.948645 745.2 205.75083 746.110365 204.130597 747.730597 
C 202.510365 749.35083 201.6 751.548645 201.6 753.84 
C 201.6 756.131355 202.510365 758.32917 204.130597 759.949403 
C 205.75083 761.569635 207.948645 762.48 210.24 762.48 
z
" clip-path="url(#pb256ab1c8e)" style="fill: #1e88e5"/>
   </g>
   <g id="patch_24">
    <path d="M 230.4 762.48 
C 232.691355 762.48 234.88917 761.569635 236.509403 759.949403 
C 238.129635 758.32917 239.04 756.131355 239.04 753.84 
C 239.04 751.548645 238.129635 749.35083 236.509403 747.730597 
C 234.88917 746.110365 232.691355 745.2 230.4 745.2 
C 228.108645 745.2 225.91083 746.110365 224.290597 747.730597 
C 222.670365 749.35083 221.76 751.548645 221.76 753.84 
C 221.76 756.131355 222.670365 758.32917 224.290597 759.949403 
C 225.91083 761.569635 228.108645 762.48 230.4 762.48 
z
" clip-path="url(#pb256ab1c8e)" style="fill: #1e88e5"/>
   </g>
   <g id="patch_25">
    <path d="M 250.56 762.48 
C 252.851355 762.48 255.04917 761.569635 256.669403 759.949403 
C 258.289635 758.32917 259.2 756.131355 259.2 753.84 
C 259.2 751.548645 258.289635 749.35083 256.669403 747.730597 
C 255.04917 746.110365 252.851355 745.2 250.56 745.2 
C 248.268645 745.2 246.07083 746.110365 244.450597 747.730597 
C 242.830365 749.35083 241.92 751.548645 241.92 753.84 
C 241.92 756.131355 242.830365 758.32917 244.450597 759.949403 
C 246.07083 761.569635 248.268645 762.48 250.56 762.48 
z
" clip-path="url(#pb256ab1c8e)" style="fill: #1e88e5"/>
   </g>
   <g id="patch_26">
    <path d="M 270.72 762.48 
C 273.011355 762.48 275.20917 761.569635 276.829403 759.949403 
C 278.449635 758.32917 279.36 756.131355 279.36 753.84 
C 279.36 751.548645 278.449635 749.35083 276.829403 747.730597 
C 275.20917 746.110365 273.011355 745.2 270.72 745.2 
C 268.428645 745.2 266.23083 746.110365 264.610597 747.730597 
C 262.990365 749.35083 262.08 751.548645 262.08 753.84 
C 262.08 756.131355 262.990365 758.32917 264.610597 759.949403 
C 266.23083 761.569635 268.428645 762.48 270.72 762.48 
z
" clip-path="url(#pb256ab1c8e)" style="fill: #1e88e5"/>
   </g>
   <g id="patch_27">
    <path d="M 290.88 762.48 
C 293.171355 762.48 295.36917 761.569635 296.989403 759.949403 
C 298.609635 758.32917 299.52 756.131355 299.52 753.84 
C 299.52 751.548645 298.609635 749.35083 296.989403 747.730597 
C 295.36917 746.110365 293.171355 745.2 290.88 745.2 
C 288.588645 745.2 286.39083 746.110365 284.770597 747.730597 
C 283.150365 749.35083 282.24 751.548645 282.24 753.84 
C 282.24 756.131355 283.150365 758.32917 284.770597 759.949403 
C 286.39083 761.569635 288.588645 762.48 290.88 762.48 
z
" clip-path="url(#pb256ab1c8e)" style="fill: #1e88e5"/>
   </g>
   <g id="patch_28">
    <path d="M 311.04 762.48 
C 313.331355 762.48 315.52917 761.569635 317.149403 759.949403 
C 318.769635 758.32917 319.68 756.131355 319.68 753.84 
C 319.68 751.548645 318.769635 749.35083 317.149403 747.730597 
C 315.52917 746.110365 313.331355 745.2 311.04 745.2 
C 308.748645 745.2 306.55083 746.110365 304.930597 747.730597 
C 303.310365 749.35083 302.4 751.548645 302.4 753.84 
C 302.4 756.131355 303.310365 758.32917 304.930597 759.949403 
C 306.55083 761.569635 308.748645 762.48 311.04 762.48 
z
" clip-path="url(#pb256ab1c8e)" style="fill: #1e88e5"/>
   </g>
   <g id="patch_29">
    <path d="M 331.2 762.48 
C 333.491355 762.48 335.68917 761.569635 337.309403 759.949403 
C 338.929635 758.32917 339.84 756.131355 339.84 753.84 
C 339.84 751.548645 338.929635 749.35083 337.309403 747.730597 
C 335.68917 746.110365 333.491355 745.2 331.2 745.2 
C 328.908645 745.2 326.71083 746.110365 325.090597 747.730597 
C 323.470365 749.35083 322.56 751.548645 322.56 753.84 
C 322.56 756.131355 323.470365 758.32917 325.090597 759.949403 
C 326.71083 761.569635 328.908645 762.48 331.2 762.48 
z
" clip-path="url(#pb256ab1c8e)" style="fill: #1e88e5"/>
   </g>
   <g id="patch_30">
    <path d="M 898.56 465.84 
L 1114.56 465.84 
L 1114.56 235.44 
L 898.56 235.44 
L 898.56 465.84 
z
" clip-path="url(#pb256ab1c8e)" style="fill: none; stroke: #b0bec5; stroke-width: 2; stroke-linejoin: miter"/>
   </g>
   <g id="patch_31">
    <path d="M 1067.899721 402.469934 
C 1069.809183 402.469934 1071.640696 401.711296 1072.990889 400.361103 
C 1074.341083 399.010909 1075.099721 397.179396 1075.099721 395.269934 
C 1075.099721 393.360471 1074.341083 391.528959 1072.990889 390.178765 
C 1071.640696 388.828571 1069.809183 388.069934 1067.899721 388.069934 
C 1065.990258 388.069934 1064.158746 388.828571 1062.808552 390.178765 
C 1061.458358 391.528959 1060.699721 393.360471 1060.699721 395.269934 
C 1060.699721 397.179396 1061.458358 399.010909 1062.808552 400.361103 
C 1064.158746 401.711296 1065.990258 402.469934 1067.899721 402.469934 
z
" clip-path="url(#pb256ab1c8e)" style="fill: #c2185b"/>
   </g>
   <g id="patch_32">
    <path d="M 956.500679 318.046117 
C 958.410142 318.046117 960.241654 317.287479 961.591848 315.937285 
C 962.942042 314.587092 963.700679 312.755579 963.700679 310.846117 
C 963.700679 308.936654 962.942042 307.105142 961.591848 305.754948 
C 960.241654 304.404754 958.410142 303.646117 956.500679 303.646117 
C 954.591217 303.646117 952.759704 304.404754 951.40951 305.754948 
C 950.059317 307.105142 949.300679 308.936654 949.300679 310.846117 
C 949.300679 312.755579 950.059317 314.587092 951.40951 315.937285 
C 952.759704 317.287479 954.591217 318.046117 956.500679 318.046117 
z
" clip-path="url(#pb256ab1c8e)" style="fill: #c2185b"/>
   </g>
   <g id="patch_33">
    <path d="M 1058.409077 290.323966 
C 1060.318539 290.323966 1062.150052 289.565328 1063.500246 288.215134 
C 1064.850439 286.864941 1065.609077 285.033428 1065.609077 283.123966 
C 1065.609077 281.214503 1064.850439 279.382991 1063.500246 278.032797 
C 1062.150052 276.682603 1060.318539 275.923966 1058.409077 275.923966 
C 1056.499615 275.923966 1054.668102 276.682603 1053.317908 278.032797 
C 1051.967714 279.382991 1051.209077 281.214503 1051.209077 283.123966 
C 1051.209077 285.033428 1051.967714 286.864941 1053.317908 288.215134 
C 1054.668102 289.565328 1056.499615 290.323966 1058.409077 290.323966 
z
" clip-path="url(#pb256ab1c8e)" style="fill: #c2185b"/>
   </g>
   <g id="patch_34">
    <path d="M 985.596171 379.998587 
C 987.505633 379.998587 989.337146 379.23995 990.68734 377.889756 
C 992.037533 376.539562 992.796171 374.708049 992.796171 372.798587 
C 992.796171 370.889125 992.037533 369.057612 990.68734 367.707418 
C 989.337146 366.357225 987.505633 365.598587 985.596171 365.598587 
C 983.686709 365.598587 981.855196 366.357225 980.505002 367.707418 
C 979.154808 369.057612 978.396171 370.889125 978.396171 372.798587 
C 978.396171 374.708049 979.154808 376.539562 980.505002 377.889756 
C 981.855196 379.23995 983.686709 379.998587 985.596171 379.998587 
z
" clip-path="url(#pb256ab1c8e)" style="fill: #c2185b"/>
   </g>
   <g id="patch_35">
    <path d="M 995.422021 399.71723 
C 997.331484 399.71723 999.162997 398.958593 1000.51319 397.608399 
C 1001.863384 396.258206 1002.622021 394.426693 1002.622021 392.51723 
C 1002.622021 390.607768 1001.863384 388.776255 1000.51319 387.426062 
C 999.162997 386.075868 997.331484 385.31723 995.422021 385.31723 
C 993.512559 385.31723 991.681046 386.075868 990.330853 387.426062 
C 988.980659 388.776255 988.222021 390.607768 988.222021 392.51723 
C 988.222021 394.426693 988.980659 396.258206 990.330853 397.608399 
C 991.681046 398.958593 993.512559 399.71723 995.422021 399.71723 
z
" clip-path="url(#pb256ab1c8e)" style="fill: #c2185b"/>
   </g>
   <g id="patch_36">
    <path d="M 1012.488033 419.487277 
C 1014.397495 419.487277 1016.229008 418.728639 1017.579202 417.378446 
C 1018.929395 416.028252 1019.688033 414.196739 1019.688033 412.287277 
C 1019.688033 410.377814 1018.929395 408.546302 1017.579202 407.196108 
C 1016.229008 405.845914 1014.397495 405.087277 1012.488033 405.087277 
C 1010.57857 405.087277 1008.747058 405.845914 1007.396864 407.196108 
C 1006.04667 408.546302 1005.288033 410.377814 1005.288033 412.287277 
C 1005.288033 414.196739 1006.04667 416.028252 1007.396864 417.378446 
C 1008.747058 418.728639 1010.57857 419.487277 1012.488033 419.487277 
z
" clip-path="url(#pb256ab1c8e)" style="fill: #c2185b"/>
   </g>
   <g id="patch_37">
    <path d="M 942.420229 300.756729 
C 944.329691 300.756729 946.161204 299.998091 947.511398 298.647898 
C 948.861592 297.297704 949.620229 295.466191 949.620229 293.556729 
C 949.620229 291.647266 948.861592 289.815754 947.511398 288.46556 
C 946.161204 287.115366 944.329691 286.356729 942.420229 286.356729 
C 940.510767 286.356729 938.679254 287.115366 937.32906 288.46556 
C 935.978866 289.815754 935.220229 291.647266 935.220229 293.556729 
C 935.220229 295.466191 935.978866 297.297704 937.32906 298.647898 
C 938.679254 299.998091 940.510767 300.756729 942.420229 300.756729 
z
" clip-path="url(#pb256ab1c8e)" style="fill: #c2185b"/>
   </g>
   <g id="patch_38">
    <path d="M 1186.56 465.84 
L 1402.56 465.84 
L 1402.56 235.44 
L 1186.56 235.44 
L 1186.56 465.84 
z
" clip-path="url(#pb256ab1c8e)" style="fill: none; stroke: #b0bec5; stroke-width: 2; stroke-linejoin: miter"/>
   </g>
   <g id="patch_39">
    <path d="M 1302.372122 407.156151 
C 1304.281584 407.156151 1306.113097 406.397514 1307.46329 405.04732 
C 1308.813484 403.697126 1309.572122 401.865613 1309.572122 399.956151 
C 1309.572122 398.046689 1308.813484 396.215176 1307.46329 394.864982 
C 1306.113097 393.514788 1304.281584 392.756151 1302.372122 392.756151 
C 1300.462659 392.756151 1298.631147 393.514788 1297.280953 394.864982 
C 1295.930759 396.215176 1295.172122 398.046689 1295.172122 399.956151 
C 1295.172122 401.865613 1295.930759 403.697126 1297.280953 405.04732 
C 1298.631147 406.397514 1300.462659 407.156151 1302.372122 407.156151 
z
" clip-path="url(#pb256ab1c8e)" style="fill: #c2185b"/>
   </g>
   <g id="patch_40">
    <path d="M 1266.715551 329.48191 
C 1268.625014 329.48191 1270.456526 328.723273 1271.80672 327.373079 
C 1273.156914 326.022885 1273.915551 324.191373 1273.915551 322.28191 
C 1273.915551 320.372448 1273.156914 318.540935 1271.80672 317.190741 
C 1270.456526 315.840548 1268.625014 315.08191 1266.715551 315.08191 
C 1264.806089 315.08191 1262.974576 315.840548 1261.624382 317.190741 
C 1260.274189 318.540935 1259.515551 320.372448 1259.515551 322.28191 
C 1259.515551 324.191373 1260.274189 326.022885 1261.624382 327.373079 
C 1262.974576 328.723273 1264.806089 329.48191 1266.715551 329.48191 
z
" clip-path="url(#pb256ab1c8e)" style="fill: #c2185b"/>
   </g>
   <g id="patch_41">
    <path d="M 1324.465733 394.499034 
C 1326.375195 394.499034 1328.206708 393.740396 1329.556902 392.390203 
C 1330.907095 391.040009 1331.665733 389.208496 1331.665733 387.299034 
C 1331.665733 385.389571 1330.907095 383.558059 1329.556902 382.207865 
C 1328.206708 380.857671 1326.375195 380.099034 1324.465733 380.099034 
C 1322.55627 380.099034 1320.724758 380.857671 1319.374564 382.207865 
C 1318.02437 383.558059 1317.265733 385.389571 1317.265733 387.299034 
C 1317.265733 389.208496 1318.02437 391.040009 1319.374564 392.390203 
C 1320.724758 393.740396 1322.55627 394.499034 1324.465733 394.499034 
z
" clip-path="url(#pb256ab1c8e)" style="fill: #c2185b"/>
   </g>
   <g id="patch_42">
    <path d="M 1343.799098 422.743993 
C 1345.70856 422.743993 1347.540073 421.985356 1348.890267 420.635162 
C 1350.240461 419.284969 1350.999098 417.453456 1350.999098 415.543993 
C 1350.999098 413.634531 1350.240461 411.803018 1348.890267 410.452825 
C 1347.540073 409.102631 1345.70856 408.343993 1343.799098 408.343993 
C 1341.889636 408.343993 1340.058123 409.102631 1338.707929 410.452825 
C 1337.357735 411.803018 1336.599098 413.634531 1336.599098 415.543993 
C 1336.599098 417.453456 1337.357735 419.284969 1338.707929 420.635162 
C 1340.058123 421.985356 1341.889636 422.743993 1343.799098 422.743993 
z
" clip-path="url(#pb256ab1c8e)" style="fill: #c2185b"/>
   </g>
   <g id="patch_43">
    <path d="M 1317.025917 380.177501 
C 1318.935379 380.177501 1320.766892 379.418864 1322.117085 378.06867 
C 1323.467279 376.718476 1324.225917 374.886963 1324.225917 372.977501 
C 1324.225917 371.068039 1323.467279 369.236526 1322.117085 367.886332 
C 1320.766892 366.536138 1318.935379 365.777501 1317.025917 365.777501 
C 1315.116454 365.777501 1313.284942 366.536138 1311.934748 367.886332 
C 1310.584554 369.236526 1309.825917 371.068039 1309.825917 372.977501 
C 1309.825917 374.886963 1310.584554 376.718476 1311.934748 378.06867 
C 1313.284942 379.418864 1315.116454 380.177501 1317.025917 380.177501 
z
" clip-path="url(#pb256ab1c8e)" style="fill: #c2185b"/>
   </g>
   <g id="patch_44">
    <path d="M 1289.400132 321.319307 
C 1291.309595 321.319307 1293.141107 320.560669 1294.491301 319.210475 
C 1295.841495 317.860282 1296.600132 316.028769 1296.600132 314.119307 
C 1296.600132 312.209844 1295.841495 310.378331 1294.491301 309.028138 
C 1293.141107 307.677944 1291.309595 306.919307 1289.400132 306.919307 
C 1287.49067 306.919307 1285.659157 307.677944 1284.308964 309.028138 
C 1282.95877 310.378331 1282.200132 312.209844 1282.200132 314.119307 
C 1282.200132 316.028769 1282.95877 317.860282 1284.308964 319.210475 
C 1285.659157 320.560669 1287.49067 321.319307 1289.400132 321.319307 
z
" clip-path="url(#pb256ab1c8e)" style="fill: #c2185b"/>
   </g>
   <g id="patch_45">
    <path d="M 1285.339134 338.649825 
C 1287.248596 338.649825 1289.080109 337.891187 1290.430303 336.540994 
C 1291.780497 335.1908 1292.539134 333.359287 1292.539134 331.449825 
C 1292.539134 329.540363 1291.780497 327.70885 1290.430303 326.358656 
C 1289.080109 325.008462 1287.248596 324.249825 1285.339134 324.249825 
C 1283.429672 324.249825 1281.598159 325.008462 1280.247965 326.358656 
C 1278.897771 327.70885 1278.139134 329.540363 1278.139134 331.449825 
C 1278.139134 333.359287 1278.897771 335.1908 1280.247965 336.540994 
C 1281.598159 337.891187 1283.429672 338.649825 1285.339134 338.649825 
z
" clip-path="url(#pb256ab1c8e)" style="fill: #c2185b"/>
   </g>
   <g id="patch_46">
    <path d="M 1296.859651 296.430102 
C 1298.769114 296.430102 1300.600626 295.671464 1301.95082 294.321271 
C 1303.301014 292.971077 1304.059651 291.139564 1304.059651 289.230102 
C 1304.059651 287.320639 1303.301014 285.489127 1301.95082 284.138933 
C 1300.600626 282.788739 1298.769114 282.030102 1296.859651 282.030102 
C 1294.950189 282.030102 1293.118676 282.788739 1291.768482 284.138933 
C 1290.418289 285.489127 1289.659651 287.320639 1289.659651 289.230102 
C 1289.659651 291.139564 1290.418289 292.971077 1291.768482 294.321271 
C 1293.118676 295.671464 1294.950189 296.430102 1296.859651 296.430102 
z
" clip-path="url(#pb256ab1c8e)" style="fill: #c2185b"/>
   </g>
   <g id="patch_47">
    <path d="M 1474.56 465.84 
L 1690.56 465.84 
L 1690.56 235.44 
L 1474.56 235.44 
L 1474.56 465.84 
z
" clip-path="url(#pb256ab1c8e)" style="fill: none; stroke: #b0bec5; stroke-width: 2; stroke-linejoin: miter"/>
   </g>
   <g id="patch_48">
    <path d="M 1565.744217 353.373675 
C 1567.653679 353.373675 1569.485192 352.615038 1570.835385 351.264844 
C 1572.185579 349.91465 1572.944217 348.083137 1572.944217 346.173675 
C 1572.944217 344.264213 1572.185579 342.4327 1570.835385 341.082506 
C 1569.485192 339.732312 1567.653679 338.973675 1565.744217 338.973675 
C 1563.834754 338.973675 1562.003242 339.732312 1560.653048 341.082506 
C 1559.302854 342.4327 1558.544217 344.264213 1558.544217 346.173675 
C 1558.544217 348.083137 1559.302854 349.91465 1560.653048 351.264844 
C 1562.003242 352.615038 1563.834754 353.373675 1565.744217 353.373675 
z
" clip-path="url(#pb256ab1c8e)" style="fill: #c2185b"/>
   </g>
   <g id="patch_49">
    <path d="M 1519.13653 314.621938 
C 1521.045992 314.621938 1522.877505 313.863301 1524.227699 312.513107 
C 1525.577892 311.162913 1526.33653 309.331401 1526.33653 307.421938 
C 1526.33653 305.512476 1525.577892 303.680963 1524.227699 302.33077 
C 1522.877505 300.980576 1521.045992 300.221938 1519.13653 300.221938 
C 1517.227067 300.221938 1515.395555 300.980576 1514.045361 302.33077 
C 1512.695167 303.680963 1511.93653 305.512476 1511.93653 307.421938 
C 1511.93653 309.331401 1512.695167 311.162913 1514.045361 312.513107 
C 1515.395555 313.863301 1517.227067 314.621938 1519.13653 314.621938 
z
" clip-path="url(#pb256ab1c8e)" style="fill: #c2185b"/>
   </g>
   <g id="patch_50">
    <path d="M 1645.885404 347.199339 
C 1647.794866 347.199339 1649.626379 346.440702 1650.976573 345.090508 
C 1652.326766 343.740314 1653.085404 341.908801 1653.085404 339.999339 
C 1653.085404 338.089877 1652.326766 336.258364 1650.976573 334.90817 
C 1649.626379 333.557976 1647.794866 332.799339 1645.885404 332.799339 
C 1643.975942 332.799339 1642.144429 333.557976 1640.794235 334.90817 
C 1639.444041 336.258364 1638.685404 338.089877 1638.685404 339.999339 
C 1638.685404 341.908801 1639.444041 343.740314 1640.794235 345.090508 
C 1642.144429 346.440702 1643.975942 347.199339 1645.885404 347.199339 
z
" clip-path="url(#pb256ab1c8e)" style="fill: #c2185b"/>
   </g>
   <g id="patch_51">
    <path d="M 1606.35253 338.554434 
C 1608.261992 338.554434 1610.093505 337.795797 1611.443699 336.445603 
C 1612.793892 335.095409 1613.55253 333.263897 1613.55253 331.354434 
C 1613.55253 329.444972 1612.793892 327.613459 1611.443699 326.263266 
C 1610.093505 324.913072 1608.261992 324.154434 1606.35253 324.154434 
C 1604.443067 324.154434 1602.611555 324.913072 1601.261361 326.263266 
C 1599.911167 327.613459 1599.15253 329.444972 1599.15253 331.354434 
C 1599.15253 333.263897 1599.911167 335.095409 1601.261361 336.445603 
C 1602.611555 337.795797 1604.443067 338.554434 1606.35253 338.554434 
z
" clip-path="url(#pb256ab1c8e)" style="fill: #c2185b"/>
   </g>
   <g id="patch_52">
    <path d="M 1643.622835 412.372296 
C 1645.532297 412.372296 1647.36381 411.613659 1648.714004 410.263465 
C 1650.064197 408.913271 1650.822835 407.081759 1650.822835 405.172296 
C 1650.822835 403.262834 1650.064197 401.431321 1648.714004 400.081128 
C 1647.36381 398.730934 1645.532297 397.972296 1643.622835 397.972296 
C 1641.713372 397.972296 1639.88186 398.730934 1638.531666 400.081128 
C 1637.181472 401.431321 1636.422835 403.262834 1636.422835 405.172296 
C 1636.422835 407.081759 1637.181472 408.913271 1638.531666 410.263465 
C 1639.88186 411.613659 1641.713372 412.372296 1643.622835 412.372296 
z
" clip-path="url(#pb256ab1c8e)" style="fill: #c2185b"/>
   </g>
   <g id="patch_53">
    <path d="M 1541.404105 338.267237 
C 1543.313567 338.267237 1545.14508 337.5086 1546.495274 336.158406 
C 1547.845468 334.808212 1548.604105 332.976699 1548.604105 331.067237 
C 1548.604105 329.157775 1547.845468 327.326262 1546.495274 325.976068 
C 1545.14508 324.625874 1543.313567 323.867237 1541.404105 323.867237 
C 1539.494643 323.867237 1537.66313 324.625874 1536.312936 325.976068 
C 1534.962743 327.326262 1534.204105 329.157775 1534.204105 331.067237 
C 1534.204105 332.976699 1534.962743 334.808212 1536.312936 336.158406 
C 1537.66313 337.5086 1539.494643 338.267237 1541.404105 338.267237 
z
" clip-path="url(#pb256ab1c8e)" style="fill: #c2185b"/>
   </g>
   <g id="patch_54">
    <path d="M 1524.495225 302.687977 
C 1526.404687 302.687977 1528.2362 301.92934 1529.586394 300.579146 
C 1530.936587 299.228952 1531.695225 297.397439 1531.695225 295.487977 
C 1531.695225 293.578515 1530.936587 291.747002 1529.586394 290.396808 
C 1528.2362 289.046615 1526.404687 288.287977 1524.495225 288.287977 
C 1522.585762 288.287977 1520.75425 289.046615 1519.404056 290.396808 
C 1518.053862 291.747002 1517.295225 293.578515 1517.295225 295.487977 
C 1517.295225 297.397439 1518.053862 299.228952 1519.404056 300.579146 
C 1520.75425 301.92934 1522.585762 302.687977 1524.495225 302.687977 
z
" clip-path="url(#pb256ab1c8e)" style="fill: #c2185b"/>
   </g>
   <g id="patch_55">
    <path clip-path="url(#pb256ab1c8e)" style="fill: none; stroke: #b0bec5; stroke-width: 2; stroke-linejoin: miter"/>
   </g>
   <g id="patch_56">
    <path d="M 1877.019592 292.875178 
C 1878.929054 292.875178 1880.760567 292.116541 1882.110761 290.766347 
C 1883.460955 289.416153 1884.219592 287.584641 1884.219592 285.675178 
C 1884.219592 283.765716 1883.460955 281.934203 1882.110761 280.58401 
C 1880.760567 279.233816 1878.929054 278.475178 1877.019592 278.475178 
C 1875.11013 278.475178 1873.278617 279.233816 1871.928423 280.58401 
C 1870.578229 281.934203 1869.819592 283.765716 1869.819592 285.675178 
C 1869.819592 287.584641 1870.578229 289.416153 1871.928423 290.766347 
C 1873.278617 292.116541 1875.11013 292.875178 1877.019592 292.875178 
z
" clip-path="url(#pb256ab1c8e)" style="fill: #c2185b"/>
   </g>
   <g id="patch_57">
    <path d="M 1853.872407 331.454041 
C 1855.781869 331.454041 1857.613382 330.695404 1858.963575 329.34521 
C 1860.313769 327.995016 1861.072407 326.163504 1861.072407 324.254041 
C 1861.072407 322.344579 1860.313769 320.513066 1858.963575 319.162872 
C 1857.613382 317.812679 1855.781869 317.054041 1853.872407 317.054041 
C 1851.962944 317.054041 1850.131432 317.812679 1848.781238 319.162872 
C 1847.431044 320.513066 1846.672407 322.344579 1846.672407 324.254041 
C 1846.672407 326.163504 1847.431044 327.995016 1848.781238 329.34521 
C 1850.131432 330.695404 1851.962944 331.454041 1853.872407 331.454041 
z
" clip-path="url(#pb256ab1c8e)" style="fill: #c2185b"/>
   </g>
   <g id="patch_58">
    <path d="M 1925.740597 418.575331 
C 1927.65006 418.575331 1929.481572 417.816694 1930.831766 416.4665 
C 1932.18196 415.116306 1932.940597 413.284793 1932.940597 411.375331 
C 1932.940597 409.465869 1932.18196 407.634356 1930.831766 406.284162 
C 1929.481572 404.933968 1927.65006 404.175331 1925.740597 404.175331 
C 1923.831135 404.175331 1921.999622 404.933968 1920.649428 406.284162 
C 1919.299235 407.634356 1918.540597 409.465869 1918.540597 411.375331 
C 1918.540597 413.284793 1919.299235 415.116306 1920.649428 416.4665 
C 1921.999622 417.816694 1923.831135 418.575331 1925.740597 418.575331 
z
" clip-path="url(#pb256ab1c8e)" style="fill: #c2185b"/>
   </g>
   <g id="patch_59">
    <path d="M 1930.987653 342.724944 
C 1932.897115 342.724944 1934.728628 341.966306 1936.078822 340.616113 
C 1937.429015 339.265919 1938.187653 337.434406 1938.187653 335.524944 
C 1938.187653 333.615481 1937.429015 331.783969 1936.078822 330.433775 
C 1934.728628 329.083581 1932.897115 328.324944 1930.987653 328.324944 
C 1929.07819 328.324944 1927.246678 329.083581 1925.896484 330.433775 
C 1924.54629 331.783969 1923.787653 333.615481 1923.787653 335.524944 
C 1923.787653 337.434406 1924.54629 339.265919 1925.896484 340.616113 
C 1927.246678 341.966306 1929.07819 342.724944 1930.987653 342.724944 
z
" clip-path="url(#pb256ab1c8e)" style="fill: #c2185b"/>
   </g>
   <g id="patch_60">
    <path d="M 1854.332681 363.744722 
C 1856.242143 363.744722 1858.073656 362.986084 1859.42385 361.63589 
C 1860.774044 360.285697 1861.532681 358.454184 1861.532681 356.544722 
C 1861.532681 354.635259 1860.774044 352.803746 1859.42385 351.453553 
C 1858.073656 350.103359 1856.242143 349.344722 1854.332681 349.344722 
C 1852.423219 349.344722 1850.591706 350.103359 1849.241512 351.453553 
C 1847.891319 352.803746 1847.132681 354.635259 1847.132681 356.544722 
C 1847.132681 358.454184 1847.891319 360.285697 1849.241512 361.63589 
C 1850.591706 362.986084 1852.423219 363.744722 1854.332681 363.744722 
z
" clip-path="url(#pb256ab1c8e)" style="fill: #c2185b"/>
   </g>
   <g id="patch_61">
    <path d="M 1832.276327 368.793847 
C 1834.185789 368.793847 1836.017302 368.03521 1837.367495 366.685016 
C 1838.717689 365.334822 1839.476327 363.503309 1839.476327 361.593847 
C 1839.476327 359.684385 1838.717689 357.852872 1837.367495 356.502678 
C 1836.017302 355.152484 1834.185789 354.393847 1832.276327 354.393847 
C 1830.366864 354.393847 1828.535352 355.152484 1827.185158 356.502678 
C 1825.834964 357.852872 1825.076327 359.684385 1825.076327 361.593847 
C 1825.076327 363.503309 1825.834964 365.334822 1827.185158 366.685016 
C 1828.535352 368.03521 1830.366864 368.793847 1832.276327 368.793847 
z
" clip-path="url(#pb256ab1c8e)" style="fill: #c2185b"/>
   </g>
   <g id="line2d_1">
    <path d="M 1067.899721 395.269934 
L 959.270785 292.502528 
" clip-path="url(#pb256ab1c8e)" style="fill: none; stroke: #b71c1c; stroke-opacity: 0.6; stroke-width: 2; stroke-linecap: square"/>
   </g>
   <g id="line2d_2">
    <path d="M 1067.899721 395.269934 
L 943.646935 402.342386 
" clip-path="url(#pb256ab1c8e)" style="fill: none; stroke: #b71c1c; stroke-opacity: 0.6; stroke-width: 2; stroke-linecap: square"/>
   </g>
   <g id="line2d_3">
    <path d="M 956.500679 310.846117 
L 1034.837615 375.8121 
" clip-path="url(#pb256ab1c8e)" style="fill: none; stroke: #b71c1c; stroke-opacity: 0.6; stroke-width: 2; stroke-linecap: square"/>
   </g>
   <g id="line2d_4">
    <path d="M 1058.409077 283.123966 
L 979.286165 347.711093 
" clip-path="url(#pb256ab1c8e)" style="fill: none; stroke: #b71c1c; stroke-opacity: 0.6; stroke-width: 2; stroke-linecap: square"/>
   </g>
   <g id="line2d_5">
    <path d="M 985.596171 372.798587 
L 1014.744522 379.818701 
" clip-path="url(#pb256ab1c8e)" style="fill: none; stroke: #b71c1c; stroke-opacity: 0.6; stroke-width: 2; stroke-linecap: square"/>
   </g>
   <g id="line2d_6">
    <path d="M 985.596171 372.798587 
L 1061.133679 315.684955 
" clip-path="url(#pb256ab1c8e)" style="fill: none; stroke: #b71c1c; stroke-opacity: 0.6; stroke-width: 2; stroke-linecap: square"/>
   </g>
   <g id="line2d_7">
    <path d="M 995.422021 392.51723 
L 1029.111297 290.247656 
" clip-path="url(#pb256ab1c8e)" style="fill: none; stroke: #b71c1c; stroke-opacity: 0.6; stroke-width: 2; stroke-linecap: square"/>
   </g>
   <g id="line2d_8">
    <path d="M 1012.488033 412.287277 
L 1038.273028 422.510677 
" clip-path="url(#pb256ab1c8e)" style="fill: none; stroke: #b71c1c; stroke-opacity: 0.6; stroke-width: 2; stroke-linecap: square"/>
   </g>
   <g id="line2d_9">
    <path d="M 942.420229 293.556729 
L 1013.746075 348.161631 
" clip-path="url(#pb256ab1c8e)" style="fill: none; stroke: #b71c1c; stroke-opacity: 0.6; stroke-width: 2; stroke-linecap: square"/>
   </g>
   <g id="line2d_10">
    <path d="M 1302.372122 399.956151 
L 1323.713212 421.17088 
" clip-path="url(#pb256ab1c8e)" style="fill: none; stroke: #b71c1c; stroke-opacity: 0.6; stroke-width: 2; stroke-linecap: square"/>
   </g>
   <g id="line2d_11">
    <path d="M 1266.715551 322.28191 
L 1273.806032 369.277918 
" clip-path="url(#pb256ab1c8e)" style="fill: none; stroke: #b71c1c; stroke-opacity: 0.6; stroke-width: 2; stroke-linecap: square"/>
   </g>
   <g id="line2d_12">
    <path d="M 1266.715551 322.28191 
L 1279.122972 307.630557 
" clip-path="url(#pb256ab1c8e)" style="fill: none; stroke: #b71c1c; stroke-opacity: 0.6; stroke-width: 2; stroke-linecap: square"/>
   </g>
   <g id="line2d_13">
    <path d="M 1324.465733 387.299034 
L 1247.795145 403.153548 
" clip-path="url(#pb256ab1c8e)" style="fill: none; stroke: #b71c1c; stroke-opacity: 0.6; stroke-width: 2; stroke-linecap: square"/>
   </g>
   <g id="line2d_14">
    <path d="M 1343.799098 415.543993 
L 1261.698184 391.31985 
" clip-path="url(#pb256ab1c8e)" style="fill: none; stroke: #b71c1c; stroke-opacity: 0.6; stroke-width: 2; stroke-linecap: square"/>
   </g>
   <g id="line2d_15">
    <path d="M 1343.799098 415.543993 
L 1261.675818 334.072242 
" clip-path="url(#pb256ab1c8e)" style="fill: none; stroke: #b71c1c; stroke-opacity: 0.6; stroke-width: 2; stroke-linecap: square"/>
   </g>
   <g id="line2d_16">
    <path d="M 1317.025917 372.977501 
L 1342.605878 348.576199 
" clip-path="url(#pb256ab1c8e)" style="fill: none; stroke: #b71c1c; stroke-opacity: 0.6; stroke-width: 2; stroke-linecap: square"/>
   </g>
   <g id="line2d_17">
    <path d="M 1317.025917 372.977501 
L 1357.960283 298.515802 
" clip-path="url(#pb256ab1c8e)" style="fill: none; stroke: #b71c1c; stroke-opacity: 0.6; stroke-width: 2; stroke-linecap: square"/>
   </g>
   <g id="line2d_18">
    <path d="M 1289.400132 314.119307 
L 1236.80811 396.119489 
" clip-path="url(#pb256ab1c8e)" style="fill: none; stroke: #b71c1c; stroke-opacity: 0.6; stroke-width: 2; stroke-linecap: square"/>
   </g>
   <g id="line2d_19">
    <path d="M 1285.339134 331.449825 
L 1249.099815 284.008577 
" clip-path="url(#pb256ab1c8e)" style="fill: none; stroke: #b71c1c; stroke-opacity: 0.6; stroke-width: 2; stroke-linecap: square"/>
   </g>
   <g id="line2d_20">
    <path d="M 1296.859651 289.230102 
L 1301.517075 361.217382 
" clip-path="url(#pb256ab1c8e)" style="fill: none; stroke: #b71c1c; stroke-opacity: 0.6; stroke-width: 2; stroke-linecap: square"/>
   </g>
   <g id="line2d_21">
    <path d="M 1565.744217 346.173675 
L 1598.851676 335.661894 
" clip-path="url(#pb256ab1c8e)" style="fill: none; stroke: #b71c1c; stroke-opacity: 0.6; stroke-width: 2; stroke-linecap: square"/>
   </g>
   <g id="line2d_22">
    <path d="M 1519.13653 307.421938 
L 1642.255997 310.803874 
" clip-path="url(#pb256ab1c8e)" style="fill: none; stroke: #b71c1c; stroke-opacity: 0.6; stroke-width: 2; stroke-linecap: square"/>
   </g>
   <g id="line2d_23">
    <path d="M 1645.885404 339.999339 
L 1590.121002 314.107455 
" clip-path="url(#pb256ab1c8e)" style="fill: none; stroke: #b71c1c; stroke-opacity: 0.6; stroke-width: 2; stroke-linecap: square"/>
   </g>
   <g id="line2d_24">
    <path d="M 1606.35253 331.354434 
L 1522.786971 413.167455 
" clip-path="url(#pb256ab1c8e)" style="fill: none; stroke: #b71c1c; stroke-opacity: 0.6; stroke-width: 2; stroke-linecap: square"/>
   </g>
   <g id="line2d_25">
    <path d="M 1643.622835 405.172296 
L 1542.664703 319.462488 
" clip-path="url(#pb256ab1c8e)" style="fill: none; stroke: #b71c1c; stroke-opacity: 0.6; stroke-width: 2; stroke-linecap: square"/>
   </g>
   <g id="line2d_26">
    <path d="M 1541.404105 331.067237 
L 1585.116261 372.859245 
" clip-path="url(#pb256ab1c8e)" style="fill: none; stroke: #b71c1c; stroke-opacity: 0.6; stroke-width: 2; stroke-linecap: square"/>
   </g>
   <g id="line2d_27">
    <path d="M 1541.404105 331.067237 
L 1544.85201 391.354436 
" clip-path="url(#pb256ab1c8e)" style="fill: none; stroke: #b71c1c; stroke-opacity: 0.6; stroke-width: 2; stroke-linecap: square"/>
   </g>
   <g id="line2d_28">
    <path d="M 1524.495225 295.487977 
L 1573.241779 350.433455 
" clip-path="url(#pb256ab1c8e)" style="fill: none; stroke: #b71c1c; stroke-opacity: 0.6; stroke-width: 2; stroke-linecap: square"/>
   </g>
   <g id="line2d_29">
    <path clip-path="url(#pb256ab1c8e)" style="fill: none; stroke: #b71c1c; stroke-opacity: 0.6; stroke-width: 2; stroke-linecap: square"/>
   </g>
   <g id="line2d_30">
    <path clip-path="url(#pb256ab1c8e)" style="fill: none; stroke: #b71c1c; stroke-opacity: 0.6; stroke-width: 2; stroke-linecap: square"/>
   </g>
   <g id="line2d_31">
    <path clip-path="url(#pb256ab1c8e)" style="fill: none; stroke: #b71c1c; stroke-opacity: 0.6; stroke-width: 2; stroke-linecap: square"/>
   </g>
   <g id="line2d_32">
    <path clip-path="url(#pb256ab1c8e)" style="fill: none; stroke: #b71c1c; stroke-opacity: 0.6; stroke-width: 2; stroke-linecap: square"/>
   </g>
   <g id="line2d_33">
    <path clip-path="url(#pb256ab1c8e)" style="fill: none; stroke: #b71c1c; stroke-opacity: 0.6; stroke-width: 2; stroke-linecap: square"/>
   </g>
   <g id="line2d_34">
    <path clip-path="url(#pb256ab1c8e)" style="fill: none; stroke: #b71c1c; stroke-opacity: 0.6; stroke-width: 2; stroke-linecap: square"/>
   </g>
   <g id="line2d_35">
    <path clip-path="url(#pb256ab1c8e)" style="fill: none; stroke: #b71c1c; stroke-opacity: 0.6; stroke-width: 2; stroke-linecap: square"/>
   </g>
   <g id="line2d_36">
    <path clip-path="url(#pb256ab1c8e)" style="fill: none; stroke: #b71c1c; stroke-opacity: 0.6; stroke-width: 2; stroke-linecap: square"/>
   </g>
   <g id="line2d_37">
    <path clip-path="url(#pb256ab1c8e)" style="fill: none; stroke: #b71c1c; stroke-opacity: 0.6; stroke-width: 2; stroke-linecap: square"/>
   </g>
   <g id="line2d_38">
    <path d="M 1114.56 350.64 
L 1186.56 350.64 
" clip-path="url(#pb256ab1c8e)" style="fill: none; stroke: #b0bec5; stroke-width: 2; stroke-linecap: square"/>
   </g>
   <g id="line2d_39">
    <path d="M 1402.56 350.64 
L 1474.56 350.64 
" clip-path="url(#pb256ab1c8e)" style="fill: none; stroke: #b0bec5; stroke-width: 2; stroke-linecap: square"/>
   </g>
   <g id="line2d_40">
    <path d="M 1690.56 350.64 
L 1729 350.64 
" clip-path="url(#pb256ab1c8e)" style="fill: none; stroke: #b0bec5; stroke-width: 2; stroke-linecap: square"/>
   </g>
   <g id="line2d_41">
    <path d="M 178.56 408.24 
L 884.16 408.24 
" clip-path="url(#pb256ab1c8e)" style="fill: none; stroke: #b0bec5; stroke-width: 2; stroke-linecap: square"/>
   </g>
   <g id="line2d_42">
    <path d="M 239.04 581.04 
L 884.16 581.04 
" clip-path="url(#pb256ab1c8e)" style="fill: none; stroke: #b0bec5; stroke-width: 2; stroke-linecap: square"/>
   </g>
   <g id="line2d_43">
    <path d="M 279.36 667.44 
L 884.16 667.44 
" clip-path="url(#pb256ab1c8e)" style="fill: none; stroke: #b0bec5; stroke-width: 2; stroke-linecap: square"/>
   </g>
   <g id="line2d_44">
    <path d="M 360 753.84 
L 884.16 753.84 
" clip-path="url(#pb256ab1c8e)" style="fill: none; stroke: #b0bec5; stroke-width: 2; stroke-linecap: square"/>
   </g>
   <g id="text_1">
    <!-- PRIME STRUCTURES -->
    <g style="fill: #1e88e5" transform="translate(502.81 118.46) scale(0.64 -0.64)">
     <defs>
      <path id="DejaVuSans-Bold-50" d="M 588 4666 
L 2584 4666 
Q 3475 4666 3951 4270 
Q 4428 3875 4428 3144 
Q 4428 2409 3951 2014 
Q 3475 1619 2584 1619 
L 1791 1619 
L 1791 0 
L 588 0 
L 588 4666 
z
M 1791 3794 
L 1791 2491 
L 2456 2491 
Q 2806 2491 2997 2661 
Q 3188 2831 3188 3144 
Q 3188 3456 2997 3625 
Q 2806 3794 2456 3794 
L 1791 3794 
z
" transform="scale(0.015625)"/>
      <path id="DejaVuSans-Bold-52" d="M 2297 2597 
Q 2675 2597 2839 2737 
Q 3003 2878 3003 3200 
Q 3003 3519 2839 3656 
Q 2675 3794 2297 3794 
L 1791 3794 
L 1791 2597 
L 2297 2597 
z
M 1791 1766 
L 1791 0 
L 588 0 
L 588 4666 
L 2425 4666 
Q 3347 4666 3776 4356 
Q 4206 4047 4206 3378 
Q 4206 2916 3982 2619 
Q 3759 2322 3309 2181 
Q 3556 2125 3751 1926 
Q 3947 1728 4147 1325 
L 4800 0 
L 3519 0 
L 2950 1159 
Q 2778 1509 2601 1637 
Q 2425 1766 2131 1766 
L 1791 1766 
z
" transform="scale(0.015625)"/>
      <path id="DejaVuSans-Bold-49" d="M 588 4666 
L 1791 4666 
L 1791 0 
L 588 0 
L 588 4666 
z
" transform="scale(0.015625)"/>
      <path id="DejaVuSans-Bold-4d" d="M 588 4666 
L 2119 4666 
L 3181 2169 
L 4250 4666 
L 5778 4666 
L 5778 0 
L 4641 0 
L 4641 3413 
L 3566 897 
L 2803 897 
L 1728 3413 
L 1728 0 
L 588 0 
L 588 4666 
z
" transform="scale(0.015625)"/>
      <path id="DejaVuSans-Bold-45" d="M 588 4666 
L 3834 4666 
L 3834 3756 
L 1791 3756 
L 1791 2888 
L 3713 2888 
L 3713 1978 
L 1791 1978 
L 1791 909 
L 3903 909 
L 3903 0 
L 588 0 
L 588 4666 
z
" transform="scale(0.015625)"/>
      <path id="DejaVuSans-Bold-20" transform="scale(0.015625)"/>
      <path id="DejaVuSans-Bold-53" d="M 3834 4519 
L 3834 3531 
Q 3450 3703 3084 3790 
Q 2719 3878 2394 3878 
Q 1963 3878 1756 3759 
Q 1550 3641 1550 3391 
Q 1550 3203 1689 3098 
Q 1828 2994 2194 2919 
L 2706 2816 
Q 3484 2659 3812 2340 
Q 4141 2022 4141 1434 
Q 4141 663 3683 286 
Q 3225 -91 2284 -91 
Q 1841 -91 1394 -6 
Q 947 78 500 244 
L 500 1259 
Q 947 1022 1364 901 
Q 1781 781 2169 781 
Q 2563 781 2772 912 
Q 2981 1044 2981 1288 
Q 2981 1506 2839 1625 
Q 2697 1744 2272 1838 
L 1806 1941 
Q 1106 2091 782 2419 
Q 459 2747 459 3303 
Q 459 4000 909 4375 
Q 1359 4750 2203 4750 
Q 2588 4750 2994 4692 
Q 3400 4634 3834 4519 
z
" transform="scale(0.015625)"/>
      <path id="DejaVuSans-Bold-54" d="M 31 4666 
L 4331 4666 
L 4331 3756 
L 2784 3756 
L 2784 0 
L 1581 0 
L 1581 3756 
L 31 3756 
L 31 4666 
z
" transform="scale(0.015625)"/>
      <path id="DejaVuSans-Bold-55" d="M 588 4666 
L 1791 4666 
L 1791 1869 
Q 1791 1291 1980 1042 
Q 2169 794 2597 794 
Q 3028 794 3217 1042 
Q 3406 1291 3406 1869 
L 3406 4666 
L 4609 4666 
L 4609 1869 
Q 4609 878 4112 393 
Q 3616 -91 2597 -91 
Q 1581 -91 1084 393 
Q 588 878 588 1869 
L 588 4666 
z
" transform="scale(0.015625)"/>
      <path id="DejaVuSans-Bold-43" d="M 4288 256 
Q 3956 84 3597 -3 
Q 3238 -91 2847 -91 
Q 1681 -91 1000 561 
Q 319 1213 319 2328 
Q 319 3447 1000 4098 
Q 1681 4750 2847 4750 
Q 3238 4750 3597 4662 
Q 3956 4575 4288 4403 
L 4288 3438 
Q 3953 3666 3628 3772 
Q 3303 3878 2944 3878 
Q 2300 3878 1931 3465 
Q 1563 3053 1563 2328 
Q 1563 1606 1931 1193 
Q 2300 781 2944 781 
Q 3303 781 3628 887 
Q 3953 994 4288 1222 
L 4288 256 
z
" transform="scale(0.015625)"/>
     </defs>
     <use xlink:href="#DejaVuSans-Bold-50"/>
     <use xlink:href="#DejaVuSans-Bold-52" x="73.291016"/>
     <use xlink:href="#DejaVuSans-Bold-49" x="150.292969"/>
     <use xlink:href="#DejaVuSans-Bold-4d" x="187.5"/>
     <use xlink:href="#DejaVuSans-Bold-45" x="287.011719"/>
     <use xlink:href="#DejaVuSans-Bold-20" x="355.322266"/>
     <use xlink:href="#DejaVuSans-Bold-53" x="390.136719"/>
     <use xlink:href="#DejaVuSans-Bold-54" x="462.158203"/>
     <use xlink:href="#DejaVuSans-Bold-52" x="530.371094"/>
     <use xlink:href="#DejaVuSans-Bold-55" x="607.373047"/>
     <use xlink:href="#DejaVuSans-Bold-43" x="688.574219"/>
     <use xlink:href="#DejaVuSans-Bold-54" x="761.962891"/>
     <use xlink:href="#DejaVuSans-Bold-55" x="830.175781"/>
     <use xlink:href="#DejaVuSans-Bold-52" x="911.376953"/>
     <use xlink:href="#DejaVuSans-Bold-45" x="988.378906"/>
     <use xlink:href="#DejaVuSans-Bold-53" x="1056.689453"/>
    </g>
   </g>
   <g id="text_2">
    <!--  ALGEBRAIC INTELLIGENCE -->
    <g style="fill: #c2185b" transform="translate(357.13 168.86) scale(0.64 -0.64)">
     <defs>
      <path id="DejaVuSans-Bold-2192" d="M 5050 2225 
L 5050 1788 
L 3822 559 
L 3369 1013 
L 3988 1631 
L 366 1631 
L 366 2381 
L 3988 2381 
L 3369 3000 
L 3822 3453 
L 5050 2225 
z
" transform="scale(0.015625)"/>
      <path id="DejaVuSans-Bold-41" d="M 3419 850 
L 1538 850 
L 1241 0 
L 31 0 
L 1759 4666 
L 3194 4666 
L 4922 0 
L 3713 0 
L 3419 850 
z
M 1838 1716 
L 3116 1716 
L 2478 3572 
L 1838 1716 
z
" transform="scale(0.015625)"/>
      <path id="DejaVuSans-Bold-4c" d="M 588 4666 
L 1791 4666 
L 1791 909 
L 3903 909 
L 3903 0 
L 588 0 
L 588 4666 
z
" transform="scale(0.015625)"/>
      <path id="DejaVuSans-Bold-47" d="M 4781 347 
Q 4331 128 3847 18 
Q 3363 -91 2847 -91 
Q 1681 -91 1000 561 
Q 319 1213 319 2328 
Q 319 3456 1012 4103 
Q 1706 4750 2913 4750 
Q 3378 4750 3804 4662 
Q 4231 4575 4609 4403 
L 4609 3438 
Q 4219 3659 3833 3768 
Q 3447 3878 3059 3878 
Q 2341 3878 1952 3476 
Q 1563 3075 1563 2328 
Q 1563 1588 1938 1184 
Q 2313 781 3003 781 
Q 3191 781 3352 804 
Q 3513 828 3641 878 
L 3641 1784 
L 2906 1784 
L 2906 2591 
L 4781 2591 
L 4781 347 
z
" transform="scale(0.015625)"/>
      <path id="DejaVuSans-Bold-42" d="M 2456 2859 
Q 2741 2859 2887 2984 
Q 3034 3109 3034 3353 
Q 3034 3594 2887 3720 
Q 2741 3847 2456 3847 
L 1791 3847 
L 1791 2859 
L 2456 2859 
z
M 2497 819 
Q 2859 819 3042 972 
Q 3225 1125 3225 1434 
Q 3225 1738 3044 1889 
Q 2863 2041 2497 2041 
L 1791 2041 
L 1791 819 
L 2497 819 
z
M 3616 2497 
Q 4003 2384 4215 2081 
Q 4428 1778 4428 1338 
Q 4428 663 3972 331 
Q 3516 0 2584 0 
L 588 0 
L 588 4666 
L 2394 4666 
Q 3366 4666 3802 4372 
Q 4238 4078 4238 3431 
Q 4238 3091 4078 2852 
Q 3919 2613 3616 2497 
z
" transform="scale(0.015625)"/>
      <path id="DejaVuSans-Bold-4e" d="M 588 4666 
L 1931 4666 
L 3628 1466 
L 3628 4666 
L 4769 4666 
L 4769 0 
L 3425 0 
L 1728 3200 
L 1728 0 
L 588 0 
L 588 4666 
z
" transform="scale(0.015625)"/>
     </defs>
     <use xlink:href="#DejaVuSans-Bold-2192"/>
     <use xlink:href="#DejaVuSans-Bold-20" x="83.789062"/>
     <use xlink:href="#DejaVuSans-Bold-41" x="118.603516"/>
     <use xlink:href="#DejaVuSans-Bold-4c" x="195.996094"/>
     <use xlink:href="#DejaVuSans-Bold-47" x="259.716797"/>
     <use xlink:href="#DejaVuSans-Bold-45" x="341.796875"/>
     <use xlink:href="#DejaVuSans-Bold-42" x="410.107422"/>
     <use xlink:href="#DejaVuSans-Bold-52" x="486.328125"/>
     <use xlink:href="#DejaVuSans-Bold-41" x="563.330078"/>
     <use xlink:href="#DejaVuSans-Bold-49" x="640.722656"/>
     <use xlink:href="#DejaVuSans-Bold-43" x="677.929688"/>
     <use xlink:href="#DejaVuSans-Bold-20" x="751.318359"/>
     <use xlink:href="#DejaVuSans-Bold-49" x="786.132812"/>
     <use xlink:href="#DejaVuSans-Bold-4e" x="823.339844"/>
     <use xlink:href="#DejaVuSans-Bold-54" x="907.03125"/>
     <use xlink:href="#DejaVuSans-Bold-45" x="975.244141"/>
     <use xlink:href="#DejaVuSans-Bold-4c" x="1043.554688"/>
     <use xlink:href="#DejaVuSans-Bold-4c" x="1107.275391"/>
     <use xlink:href="#DejaVuSans-Bold-49" x="1170.996094"/>
     <use xlink:href="#DejaVuSans-Bold-47" x="1208.203125"/>
     <use xlink:href="#DejaVuSans-Bold-45" x="1290.283203"/>
     <use xlink:href="#DejaVuSans-Bold-4e" x="1358.59375"/>
     <use xlink:href="#DejaVuSans-Bold-43" x="1442.285156"/>
     <use xlink:href="#DejaVuSans-Bold-45" x="1515.673828"/>
    </g>
   </g>
   <g id="text_3">
    <!-- Embedding -->
    <g style="fill: #c2185b" transform="translate(918.0625 200.598125) scale(0.28 -0.28)">
     <defs>
      <path id="DejaVuSans-Bold-6d" d="M 3781 2919 
Q 3994 3244 4286 3414 
Q 4578 3584 4928 3584 
Q 5531 3584 5847 3212 
Q 6163 2841 6163 2131 
L 6163 0 
L 5038 0 
L 5038 1825 
Q 5041 1866 5042 1909 
Q 5044 1953 5044 2034 
Q 5044 2406 4934 2573 
Q 4825 2741 4581 2741 
Q 4263 2741 4089 2478 
Q 3916 2216 3909 1719 
L 3909 0 
L 2784 0 
L 2784 1825 
Q 2784 2406 2684 2573 
Q 2584 2741 2328 2741 
Q 2006 2741 1831 2477 
Q 1656 2213 1656 1722 
L 1656 0 
L 531 0 
L 531 3500 
L 1656 3500 
L 1656 2988 
Q 1863 3284 2130 3434 
Q 2397 3584 2719 3584 
Q 3081 3584 3359 3409 
Q 3638 3234 3781 2919 
z
" transform="scale(0.015625)"/>
      <path id="DejaVuSans-Bold-62" d="M 2400 722 
Q 2759 722 2948 984 
Q 3138 1247 3138 1747 
Q 3138 2247 2948 2509 
Q 2759 2772 2400 2772 
Q 2041 2772 1848 2508 
Q 1656 2244 1656 1747 
Q 1656 1250 1848 986 
Q 2041 722 2400 722 
z
M 1656 2988 
Q 1888 3294 2169 3439 
Q 2450 3584 2816 3584 
Q 3463 3584 3878 3070 
Q 4294 2556 4294 1747 
Q 4294 938 3878 423 
Q 3463 -91 2816 -91 
Q 2450 -91 2169 54 
Q 1888 200 1656 506 
L 1656 0 
L 538 0 
L 538 4863 
L 1656 4863 
L 1656 2988 
z
" transform="scale(0.015625)"/>
      <path id="DejaVuSans-Bold-65" d="M 4031 1759 
L 4031 1441 
L 1416 1441 
Q 1456 1047 1700 850 
Q 1944 653 2381 653 
Q 2734 653 3104 758 
Q 3475 863 3866 1075 
L 3866 213 
Q 3469 63 3072 -14 
Q 2675 -91 2278 -91 
Q 1328 -91 801 392 
Q 275 875 275 1747 
Q 275 2603 792 3093 
Q 1309 3584 2216 3584 
Q 3041 3584 3536 3087 
Q 4031 2591 4031 1759 
z
M 2881 2131 
Q 2881 2450 2695 2645 
Q 2509 2841 2209 2841 
Q 1884 2841 1681 2658 
Q 1478 2475 1428 2131 
L 2881 2131 
z
" transform="scale(0.015625)"/>
      <path id="DejaVuSans-Bold-64" d="M 2919 2988 
L 2919 4863 
L 4044 4863 
L 4044 0 
L 2919 0 
L 2919 506 
Q 2688 197 2409 53 
Q 2131 -91 1766 -91 
Q 1119 -91 703 423 
Q 288 938 288 1747 
Q 288 2556 703 3070 
Q 1119 3584 1766 3584 
Q 2128 3584 2408 3439 
Q 2688 3294 2919 2988 
z
M 2181 722 
Q 2541 722 2730 984 
Q 2919 1247 2919 1747 
Q 2919 2247 2730 2509 
Q 2541 2772 2181 2772 
Q 1825 2772 1636 2509 
Q 1447 2247 1447 1747 
Q 1447 1247 1636 984 
Q 1825 722 2181 722 
z
" transform="scale(0.015625)"/>
      <path id="DejaVuSans-Bold-69" d="M 538 3500 
L 1656 3500 
L 1656 0 
L 538 0 
L 538 3500 
z
M 538 4863 
L 1656 4863 
L 1656 3950 
L 538 3950 
L 538 4863 
z
" transform="scale(0.015625)"/>
      <path id="DejaVuSans-Bold-6e" d="M 4056 2131 
L 4056 0 
L 2931 0 
L 2931 347 
L 2931 1631 
Q 2931 2084 2911 2256 
Q 2891 2428 2841 2509 
Q 2775 2619 2662 2680 
Q 2550 2741 2406 2741 
Q 2056 2741 1856 2470 
Q 1656 2200 1656 1722 
L 1656 0 
L 538 0 
L 538 3500 
L 1656 3500 
L 1656 2988 
Q 1909 3294 2193 3439 
Q 2478 3584 2822 3584 
Q 3428 3584 3742 3212 
Q 4056 2841 4056 2131 
z
" transform="scale(0.015625)"/>
      <path id="DejaVuSans-Bold-67" d="M 2919 594 
Q 2688 288 2409 144 
Q 2131 0 1766 0 
Q 1125 0 706 504 
Q 288 1009 288 1791 
Q 288 2575 706 3076 
Q 1125 3578 1766 3578 
Q 2131 3578 2409 3434 
Q 2688 3291 2919 2981 
L 2919 3500 
L 4044 3500 
L 4044 353 
Q 4044 -491 3511 -936 
Q 2978 -1381 1966 -1381 
Q 1638 -1381 1331 -1331 
Q 1025 -1281 716 -1178 
L 716 -306 
Q 1009 -475 1290 -558 
Q 1572 -641 1856 -641 
Q 2406 -641 2662 -400 
Q 2919 -159 2919 353 
L 2919 594 
z
M 2181 2772 
Q 1834 2772 1640 2515 
Q 1447 2259 1447 1791 
Q 1447 1309 1634 1061 
Q 1822 813 2181 813 
Q 2531 813 2725 1069 
Q 2919 1325 2919 1791 
Q 2919 2259 2725 2515 
Q 2531 2772 2181 2772 
z
" transform="scale(0.015625)"/>
     </defs>
     <use xlink:href="#DejaVuSans-Bold-45"/>
     <use xlink:href="#DejaVuSans-Bold-6d" x="68.310547"/>
     <use xlink:href="#DejaVuSans-Bold-62" x="172.509766"/>
     <use xlink:href="#DejaVuSans-Bold-65" x="244.091797"/>
     <use xlink:href="#DejaVuSans-Bold-64" x="311.914062"/>
     <use xlink:href="#DejaVuSans-Bold-64" x="383.496094"/>
     <use xlink:href="#DejaVuSans-Bold-69" x="455.078125"/>
     <use xlink:href="#DejaVuSans-Bold-6e" x="489.355469"/>
     <use xlink:href="#DejaVuSans-Bold-67" x="560.546875"/>
    </g>
   </g>
   <g id="text_4">
    <!-- Attention -->
    <g style="fill: #c2185b" transform="translate(1219.804375 200.816875) scale(0.28 -0.28)">
     <defs>
      <path id="DejaVuSans-Bold-74" d="M 1759 4494 
L 1759 3500 
L 2913 3500 
L 2913 2700 
L 1759 2700 
L 1759 1216 
Q 1759 972 1856 886 
Q 1953 800 2241 800 
L 2816 800 
L 2816 0 
L 1856 0 
Q 1194 0 917 276 
Q 641 553 641 1216 
L 641 2700 
L 84 2700 
L 84 3500 
L 641 3500 
L 641 4494 
L 1759 4494 
z
" transform="scale(0.015625)"/>
      <path id="DejaVuSans-Bold-6f" d="M 2203 2784 
Q 1831 2784 1636 2517 
Q 1441 2250 1441 1747 
Q 1441 1244 1636 976 
Q 1831 709 2203 709 
Q 2569 709 2762 976 
Q 2956 1244 2956 1747 
Q 2956 2250 2762 2517 
Q 2569 2784 2203 2784 
z
M 2203 3584 
Q 3106 3584 3614 3096 
Q 4122 2609 4122 1747 
Q 4122 884 3614 396 
Q 3106 -91 2203 -91 
Q 1297 -91 786 396 
Q 275 884 275 1747 
Q 275 2609 786 3096 
Q 1297 3584 2203 3584 
z
" transform="scale(0.015625)"/>
     </defs>
     <use xlink:href="#DejaVuSans-Bold-41"/>
     <use xlink:href="#DejaVuSans-Bold-74" x="77.392578"/>
     <use xlink:href="#DejaVuSans-Bold-74" x="125.195312"/>
     <use xlink:href="#DejaVuSans-Bold-65" x="172.998047"/>
     <use xlink:href="#DejaVuSans-Bold-6e" x="240.820312"/>
     <use xlink:href="#DejaVuSans-Bold-74" x="312.011719"/>
     <use xlink:href="#DejaVuSans-Bold-69" x="359.814453"/>
     <use xlink:href="#DejaVuSans-Bold-6f" x="394.091797"/>
     <use xlink:href="#DejaVuSans-Bold-6e" x="462.792969"/>
    </g>
   </g>
   <g id="text_5">
    <!-- Projection -->
    <g style="fill: #c2185b" transform="translate(1502.105938 200.598125) scale(0.28 -0.28)">
     <defs>
      <path id="DejaVuSans-Bold-72" d="M 3138 2547 
Q 2991 2616 2845 2648 
Q 2700 2681 2553 2681 
Q 2122 2681 1889 2404 
Q 1656 2128 1656 1613 
L 1656 0 
L 538 0 
L 538 3500 
L 1656 3500 
L 1656 2925 
Q 1872 3269 2151 3426 
Q 2431 3584 2822 3584 
Q 2878 3584 2943 3579 
Q 3009 3575 3134 3559 
L 3138 2547 
z
" transform="scale(0.015625)"/>
      <path id="DejaVuSans-Bold-6a" d="M 538 3500 
L 1656 3500 
L 1656 63 
Q 1656 -641 1318 -1011 
Q 981 -1381 341 -1381 
L -213 -1381 
L -213 -647 
L -19 -647 
Q 300 -647 419 -503 
Q 538 -359 538 63 
L 538 3500 
z
M 538 4863 
L 1656 4863 
L 1656 3950 
L 538 3950 
L 538 4863 
z
" transform="scale(0.015625)"/>
      <path id="DejaVuSans-Bold-63" d="M 3366 3391 
L 3366 2478 
Q 3138 2634 2908 2709 
Q 2678 2784 2431 2784 
Q 1963 2784 1702 2511 
Q 1441 2238 1441 1747 
Q 1441 1256 1702 982 
Q 1963 709 2431 709 
Q 2694 709 2930 787 
Q 3166 866 3366 1019 
L 3366 103 
Q 3103 6 2833 -42 
Q 2563 -91 2291 -91 
Q 1344 -91 809 395 
Q 275 881 275 1747 
Q 275 2613 809 3098 
Q 1344 3584 2291 3584 
Q 2566 3584 2833 3536 
Q 3100 3488 3366 3391 
z
" transform="scale(0.015625)"/>
     </defs>
     <use xlink:href="#DejaVuSans-Bold-50"/>
     <use xlink:href="#DejaVuSans-Bold-72" x="73.291016"/>
     <use xlink:href="#DejaVuSans-Bold-6f" x="122.607422"/>
     <use xlink:href="#DejaVuSans-Bold-6a" x="191.308594"/>
     <use xlink:href="#DejaVuSans-Bold-65" x="225.585938"/>
     <use xlink:href="#DejaVuSans-Bold-63" x="293.408203"/>
     <use xlink:href="#DejaVuSans-Bold-74" x="352.685547"/>
     <use xlink:href="#DejaVuSans-Bold-69" x="400.488281"/>
     <use xlink:href="#DejaVuSans-Bold-6f" x="434.765625"/>
     <use xlink:href="#DejaVuSans-Bold-6e" x="503.466797"/>
    </g>
   </g>
   <g id="text_6">
    <!-- Output -->
    <g style="fill: #c2185b" transform="translate(1815.32125 200.816875) scale(0.28 -0.28)">
     <defs>
      <path id="DejaVuSans-Bold-4f" d="M 2719 3878 
Q 2169 3878 1866 3472 
Q 1563 3066 1563 2328 
Q 1563 1594 1866 1187 
Q 2169 781 2719 781 
Q 3272 781 3575 1187 
Q 3878 1594 3878 2328 
Q 3878 3066 3575 3472 
Q 3272 3878 2719 3878 
z
M 2719 4750 
Q 3844 4750 4481 4106 
Q 5119 3463 5119 2328 
Q 5119 1197 4481 553 
Q 3844 -91 2719 -91 
Q 1597 -91 958 553 
Q 319 1197 319 2328 
Q 319 3463 958 4106 
Q 1597 4750 2719 4750 
z
" transform="scale(0.015625)"/>
      <path id="DejaVuSans-Bold-75" d="M 500 1363 
L 500 3500 
L 1625 3500 
L 1625 3150 
Q 1625 2866 1622 2436 
Q 1619 2006 1619 1863 
Q 1619 1441 1641 1255 
Q 1663 1069 1716 984 
Q 1784 875 1895 815 
Q 2006 756 2150 756 
Q 2500 756 2700 1025 
Q 2900 1294 2900 1772 
L 2900 3500 
L 4019 3500 
L 4019 0 
L 2900 0 
L 2900 506 
Q 2647 200 2364 54 
Q 2081 -91 1741 -91 
Q 1134 -91 817 281 
Q 500 653 500 1363 
z
" transform="scale(0.015625)"/>
      <path id="DejaVuSans-Bold-70" d="M 1656 506 
L 1656 -1331 
L 538 -1331 
L 538 3500 
L 1656 3500 
L 1656 2988 
Q 1888 3294 2169 3439 
Q 2450 3584 2816 3584 
Q 3463 3584 3878 3070 
Q 4294 2556 4294 1747 
Q 4294 938 3878 423 
Q 3463 -91 2816 -91 
Q 2450 -91 2169 54 
Q 1888 200 1656 506 
z
M 2400 2772 
Q 2041 2772 1848 2508 
Q 1656 2244 1656 1747 
Q 1656 1250 1848 986 
Q 2041 722 2400 722 
Q 2759 722 2948 984 
Q 3138 1247 3138 1747 
Q 3138 2247 2948 2509 
Q 2759 2772 2400 2772 
z
" transform="scale(0.015625)"/>
     </defs>
     <use xlink:href="#DejaVuSans-Bold-4f"/>
     <use xlink:href="#DejaVuSans-Bold-75" x="85.009766"/>
     <use xlink:href="#DejaVuSans-Bold-74" x="156.201172"/>
     <use xlink:href="#DejaVuSans-Bold-70" x="204.003906"/>
     <use xlink:href="#DejaVuSans-Bold-75" x="275.585938"/>
     <use xlink:href="#DejaVuSans-Bold-74" x="346.777344"/>
    </g>
   </g>
  </g>
 </g>
 <defs>
  <clipPath id="pb256ab1c8e">
   <rect x="0" y="0" width="1728" height="972"/>
  </clipPath>
 </defs>
</svg>
