<?xml version="1.0" encoding="utf-8" standalone="no"?>
<!DOCTYPE svg PUBLIC "-//W3C//DTD SVG 1.1//EN"
  "http://www.w3.org/Graphics/SVG/1.1/DTD/svg11.dtd">
<svg xmlns:xlink="http://www.w3.org/1999/xlink" width="432pt" height="720pt" viewBox="0 0 432 720" xmlns="http://www.w3.org/2000/svg" version="1.1">
 <metadata>
  <rdf:RDF xmlns:dc="http://purl.org/dc/elements/1.1/" xmlns:cc="http://creativecommons.org/ns#" xmlns:rdf="http://www.w3.org/1999/02/22-rdf-syntax-ns#">
   <cc:Work>
    <dc:type rdf:resource="http://purl.org/dc/dcmitype/StillImage"/>
    <dc:date>2025-10-14T01:07:15.489186</dc:date>
    <dc:format>image/svg+xml</dc:format>
    <dc:creator>
     <cc:Agent>
      <dc:title>Matplotlib v3.6.3, https://matplotlib.org/</dc:title>
     </cc:Agent>
    </dc:creator>
   </cc:Work>
  </rdf:RDF>
 </metadata>
 <defs>
  <style type="text/css">*{stroke-linejoin: round; stroke-linecap: butt}</style>
 </defs>
 <g id="figure_1">
  <g id="patch_1">
   <path d="M 0 720 
L 432 720 
L 432 0 
L 0 0 
z
" style="fill: #ffffff"/>
  </g>
  <g id="axes_1">
   <g id="patch_2">
    <path d="M 221.4 282.305099 
Q 221.4 252.71745 221.4 223.129801 
" clip-path="url(#p1f23175e8a)" style="fill: none; stroke: #000000; stroke-width: 1.5; stroke-linecap: round"/>
    <path d="M 224.2 276.705099 
L 221.4 282.305099 
L 218.6 276.705099 
" clip-path="url(#p1f23175e8a)" style="fill: none; stroke: #000000; stroke-width: 1.5; stroke-linecap: round"/>
    <path d="M 218.6 228.729801 
L 221.4 223.129801 
L 224.2 228.729801 
" clip-path="url(#p1f23175e8a)" style="fill: none; stroke: #000000; stroke-width: 1.5; stroke-linecap: round"/>
   </g>
   <g id="patch_3">
    <path d="M 221.4 393.185099 
Q 221.4 363.59745 221.4 334.009801 
" clip-path="url(#p1f23175e8a)" style="fill: none; stroke: #000000; stroke-width: 1.5; stroke-linecap: round"/>
    <path d="M 224.2 387.585099 
L 221.4 393.185099 
L 218.6 387.585099 
" clip-path="url(#p1f23175e8a)" style="fill: none; stroke: #000000; stroke-width: 1.5; stroke-linecap: round"/>
    <path d="M 218.6 339.609801 
L 221.4 334.009801 
L 224.2 339.609801 
" clip-path="url(#p1f23175e8a)" style="fill: none; stroke: #000000; stroke-width: 1.5; stroke-linecap: round"/>
   </g>
   <g id="patch_4">
    <path d="M 221.4 504.065099 
Q 221.4 474.47745 221.4 444.889801 
" clip-path="url(#p1f23175e8a)" style="fill: none; stroke: #000000; stroke-width: 1.5; stroke-linecap: round"/>
    <path d="M 224.2 498.465099 
L 221.4 504.065099 
L 218.6 498.465099 
" clip-path="url(#p1f23175e8a)" style="fill: none; stroke: #000000; stroke-width: 1.5; stroke-linecap: round"/>
    <path d="M 218.6 450.489801 
L 221.4 444.889801 
L 224.2 450.489801 
" clip-path="url(#p1f23175e8a)" style="fill: none; stroke: #000000; stroke-width: 1.5; stroke-linecap: round"/>
   </g>
   <g id="text_1">
    <!-- The Algebraic Stack -->
    <g style="fill: #333333" transform="translate(86.645625 120.64875) scale(0.24 -0.24)">
     <defs>
      <path id="DejaVuSans-Bold-54" d="M 31 4666 
L 4331 4666 
L 4331 3756 
L 2784 3756 
L 2784 0 
L 1581 0 
L 1581 3756 
L 31 3756 
L 31 4666 
z
" transform="scale(0.015625)"/>
      <path id="DejaVuSans-Bold-68" d="M 4056 2131 
L 4056 0 
L 2931 0 
L 2931 347 
L 2931 1625 
Q 2931 2084 2911 2256 
Q 2891 2428 2841 2509 
Q 2775 2619 2662 2680 
Q 2550 2741 2406 2741 
Q 2056 2741 1856 2470 
Q 1656 2200 1656 1722 
L 1656 0 
L 538 0 
L 538 4863 
L 1656 4863 
L 1656 2988 
Q 1909 3294 2193 3439 
Q 2478 3584 2822 3584 
Q 3428 3584 3742 3212 
Q 4056 2841 4056 2131 
z
" transform="scale(0.015625)"/>
      <path id="DejaVuSans-Bold-65" d="M 4031 1759 
L 4031 1441 
L 1416 1441 
Q 1456 1047 1700 850 
Q 1944 653 2381 653 
Q 2734 653 3104 758 
Q 3475 863 3866 1075 
L 3866 213 
Q 3469 63 3072 -14 
Q 2675 -91 2278 -91 
Q 1328 -91 801 392 
Q 275 875 275 1747 
Q 275 2603 792 3093 
Q 1309 3584 2216 3584 
Q 3041 3584 3536 3087 
Q 4031 2591 4031 1759 
z
M 2881 2131 
Q 2881 2450 2695 2645 
Q 2509 2841 2209 2841 
Q 1884 2841 1681 2658 
Q 1478 2475 1428 2131 
L 2881 2131 
z
" transform="scale(0.015625)"/>
      <path id="DejaVuSans-Bold-20" transform="scale(0.015625)"/>
      <path id="DejaVuSans-Bold-41" d="M 3419 850 
L 1538 850 
L 1241 0 
L 31 0 
L 1759 4666 
L 3194 4666 
L 4922 0 
L 3713 0 
L 3419 850 
z
M 1838 1716 
L 3116 1716 
L 2478 3572 
L 1838 1716 
z
" transform="scale(0.015625)"/>
      <path id="DejaVuSans-Bold-6c" d="M 538 4863 
L 1656 4863 
L 1656 0 
L 538 0 
L 538 4863 
z
" transform="scale(0.015625)"/>
      <path id="DejaVuSans-Bold-67" d="M 2919 594 
Q 2688 288 2409 144 
Q 2131 0 1766 0 
Q 1125 0 706 504 
Q 288 1009 288 1791 
Q 288 2575 706 3076 
Q 1125 3578 1766 3578 
Q 2131 3578 2409 3434 
Q 2688 3291 2919 2981 
L 2919 3500 
L 4044 3500 
L 4044 353 
Q 4044 -491 3511 -936 
Q 2978 -1381 1966 -1381 
Q 1638 -1381 1331 -1331 
Q 1025 -1281 716 -1178 
L 716 -306 
Q 1009 -475 1290 -558 
Q 1572 -641 1856 -641 
Q 2406 -641 2662 -400 
Q 2919 -159 2919 353 
L 2919 594 
z
M 2181 2772 
Q 1834 2772 1640 2515 
Q 1447 2259 1447 1791 
Q 1447 1309 1634 1061 
Q 1822 813 2181 813 
Q 2531 813 2725 1069 
Q 2919 1325 2919 1791 
Q 2919 2259 2725 2515 
Q 2531 2772 2181 2772 
z
" transform="scale(0.015625)"/>
      <path id="DejaVuSans-Bold-62" d="M 2400 722 
Q 2759 722 2948 984 
Q 3138 1247 3138 1747 
Q 3138 2247 2948 2509 
Q 2759 2772 2400 2772 
Q 2041 2772 1848 2508 
Q 1656 2244 1656 1747 
Q 1656 1250 1848 986 
Q 2041 722 2400 722 
z
M 1656 2988 
Q 1888 3294 2169 3439 
Q 2450 3584 2816 3584 
Q 3463 3584 3878 3070 
Q 4294 2556 4294 1747 
Q 4294 938 3878 423 
Q 3463 -91 2816 -91 
Q 2450 -91 2169 54 
Q 1888 200 1656 506 
L 1656 0 
L 538 0 
L 538 4863 
L 1656 4863 
L 1656 2988 
z
" transform="scale(0.015625)"/>
      <path id="DejaVuSans-Bold-72" d="M 3138 2547 
Q 2991 2616 2845 2648 
Q 2700 2681 2553 2681 
Q 2122 2681 1889 2404 
Q 1656 2128 1656 1613 
L 1656 0 
L 538 0 
L 538 3500 
L 1656 3500 
L 1656 2925 
Q 1872 3269 2151 3426 
Q 2431 3584 2822 3584 
Q 2878 3584 2943 3579 
Q 3009 3575 3134 3559 
L 3138 2547 
z
" transform="scale(0.015625)"/>
      <path id="DejaVuSans-Bold-61" d="M 2106 1575 
Q 1756 1575 1579 1456 
Q 1403 1338 1403 1106 
Q 1403 894 1545 773 
Q 1688 653 1941 653 
Q 2256 653 2472 879 
Q 2688 1106 2688 1447 
L 2688 1575 
L 2106 1575 
z
M 3816 1997 
L 3816 0 
L 2688 0 
L 2688 519 
Q 2463 200 2181 54 
Q 1900 -91 1497 -91 
Q 953 -91 614 226 
Q 275 544 275 1050 
Q 275 1666 698 1953 
Q 1122 2241 2028 2241 
L 2688 2241 
L 2688 2328 
Q 2688 2594 2478 2717 
Q 2269 2841 1825 2841 
Q 1466 2841 1156 2769 
Q 847 2697 581 2553 
L 581 3406 
Q 941 3494 1303 3539 
Q 1666 3584 2028 3584 
Q 2975 3584 3395 3211 
Q 3816 2838 3816 1997 
z
" transform="scale(0.015625)"/>
      <path id="DejaVuSans-Bold-69" d="M 538 3500 
L 1656 3500 
L 1656 0 
L 538 0 
L 538 3500 
z
M 538 4863 
L 1656 4863 
L 1656 3950 
L 538 3950 
L 538 4863 
z
" transform="scale(0.015625)"/>
      <path id="DejaVuSans-Bold-63" d="M 3366 3391 
L 3366 2478 
Q 3138 2634 2908 2709 
Q 2678 2784 2431 2784 
Q 1963 2784 1702 2511 
Q 1441 2238 1441 1747 
Q 1441 1256 1702 982 
Q 1963 709 2431 709 
Q 2694 709 2930 787 
Q 3166 866 3366 1019 
L 3366 103 
Q 3103 6 2833 -42 
Q 2563 -91 2291 -91 
Q 1344 -91 809 395 
Q 275 881 275 1747 
Q 275 2613 809 3098 
Q 1344 3584 2291 3584 
Q 2566 3584 2833 3536 
Q 3100 3488 3366 3391 
z
" transform="scale(0.015625)"/>
      <path id="DejaVuSans-Bold-53" d="M 3834 4519 
L 3834 3531 
Q 3450 3703 3084 3790 
Q 2719 3878 2394 3878 
Q 1963 3878 1756 3759 
Q 1550 3641 1550 3391 
Q 1550 3203 1689 3098 
Q 1828 2994 2194 2919 
L 2706 2816 
Q 3484 2659 3812 2340 
Q 4141 2022 4141 1434 
Q 4141 663 3683 286 
Q 3225 -91 2284 -91 
Q 1841 -91 1394 -6 
Q 947 78 500 244 
L 500 1259 
Q 947 1022 1364 901 
Q 1781 781 2169 781 
Q 2563 781 2772 912 
Q 2981 1044 2981 1288 
Q 2981 1506 2839 1625 
Q 2697 1744 2272 1838 
L 1806 1941 
Q 1106 2091 782 2419 
Q 459 2747 459 3303 
Q 459 4000 909 4375 
Q 1359 4750 2203 4750 
Q 2588 4750 2994 4692 
Q 3400 4634 3834 4519 
z
" transform="scale(0.015625)"/>
      <path id="DejaVuSans-Bold-74" d="M 1759 4494 
L 1759 3500 
L 2913 3500 
L 2913 2700 
L 1759 2700 
L 1759 1216 
Q 1759 972 1856 886 
Q 1953 800 2241 800 
L 2816 800 
L 2816 0 
L 1856 0 
Q 1194 0 917 276 
Q 641 553 641 1216 
L 641 2700 
L 84 2700 
L 84 3500 
L 641 3500 
L 641 4494 
L 1759 4494 
z
" transform="scale(0.015625)"/>
      <path id="DejaVuSans-Bold-6b" d="M 538 4863 
L 1656 4863 
L 1656 2216 
L 2944 3500 
L 4244 3500 
L 2534 1894 
L 4378 0 
L 3022 0 
L 1656 1459 
L 1656 0 
L 538 0 
L 538 4863 
z
" transform="scale(0.015625)"/>
     </defs>
     <use xlink:href="#DejaVuSans-Bold-54"/>
     <use xlink:href="#DejaVuSans-Bold-68" x="68.212891"/>
     <use xlink:href="#DejaVuSans-Bold-65" x="139.404297"/>
     <use xlink:href="#DejaVuSans-Bold-20" x="207.226562"/>
     <use xlink:href="#DejaVuSans-Bold-41" x="242.041016"/>
     <use xlink:href="#DejaVuSans-Bold-6c" x="319.433594"/>
     <use xlink:href="#DejaVuSans-Bold-67" x="353.710938"/>
     <use xlink:href="#DejaVuSans-Bold-65" x="425.292969"/>
     <use xlink:href="#DejaVuSans-Bold-62" x="493.115234"/>
     <use xlink:href="#DejaVuSans-Bold-72" x="564.697266"/>
     <use xlink:href="#DejaVuSans-Bold-61" x="614.013672"/>
     <use xlink:href="#DejaVuSans-Bold-69" x="681.494141"/>
     <use xlink:href="#DejaVuSans-Bold-63" x="715.771484"/>
     <use xlink:href="#DejaVuSans-Bold-20" x="775.048828"/>
     <use xlink:href="#DejaVuSans-Bold-53" x="809.863281"/>
     <use xlink:href="#DejaVuSans-Bold-74" x="881.884766"/>
     <use xlink:href="#DejaVuSans-Bold-61" x="929.6875"/>
     <use xlink:href="#DejaVuSans-Bold-63" x="997.167969"/>
     <use xlink:href="#DejaVuSans-Bold-6b" x="1056.445312"/>
    </g>
   </g>
   <g id="text_2">
    <!-- Output Probabilities -->
    <g style="fill: #333333" transform="translate(107.040625 202.79875) scale(0.2 -0.2)">
     <defs>
      <path id="DejaVuSans-Bold-4f" d="M 2719 3878 
Q 2169 3878 1866 3472 
Q 1563 3066 1563 2328 
Q 1563 1594 1866 1187 
Q 2169 781 2719 781 
Q 3272 781 3575 1187 
Q 3878 1594 3878 2328 
Q 3878 3066 3575 3472 
Q 3272 3878 2719 3878 
z
M 2719 4750 
Q 3844 4750 4481 4106 
Q 5119 3463 5119 2328 
Q 5119 1197 4481 553 
Q 3844 -91 2719 -91 
Q 1597 -91 958 553 
Q 319 1197 319 2328 
Q 319 3463 958 4106 
Q 1597 4750 2719 4750 
z
" transform="scale(0.015625)"/>
      <path id="DejaVuSans-Bold-75" d="M 500 1363 
L 500 3500 
L 1625 3500 
L 1625 3150 
Q 1625 2866 1622 2436 
Q 1619 2006 1619 1863 
Q 1619 1441 1641 1255 
Q 1663 1069 1716 984 
Q 1784 875 1895 815 
Q 2006 756 2150 756 
Q 2500 756 2700 1025 
Q 2900 1294 2900 1772 
L 2900 3500 
L 4019 3500 
L 4019 0 
L 2900 0 
L 2900 506 
Q 2647 200 2364 54 
Q 2081 -91 1741 -91 
Q 1134 -91 817 281 
Q 500 653 500 1363 
z
" transform="scale(0.015625)"/>
      <path id="DejaVuSans-Bold-70" d="M 1656 506 
L 1656 -1331 
L 538 -1331 
L 538 3500 
L 1656 3500 
L 1656 2988 
Q 1888 3294 2169 3439 
Q 2450 3584 2816 3584 
Q 3463 3584 3878 3070 
Q 4294 2556 4294 1747 
Q 4294 938 3878 423 
Q 3463 -91 2816 -91 
Q 2450 -91 2169 54 
Q 1888 200 1656 506 
z
M 2400 2772 
Q 2041 2772 1848 2508 
Q 1656 2244 1656 1747 
Q 1656 1250 1848 986 
Q 2041 722 2400 722 
Q 2759 722 2948 984 
Q 3138 1247 3138 1747 
Q 3138 2247 2948 2509 
Q 2759 2772 2400 2772 
z
" transform="scale(0.015625)"/>
      <path id="DejaVuSans-Bold-50" d="M 588 4666 
L 2584 4666 
Q 3475 4666 3951 4270 
Q 4428 3875 4428 3144 
Q 4428 2409 3951 2014 
Q 3475 1619 2584 1619 
L 1791 1619 
L 1791 0 
L 588 0 
L 588 4666 
z
M 1791 3794 
L 1791 2491 
L 2456 2491 
Q 2806 2491 2997 2661 
Q 3188 2831 3188 3144 
Q 3188 3456 2997 3625 
Q 2806 3794 2456 3794 
L 1791 3794 
z
" transform="scale(0.015625)"/>
      <path id="DejaVuSans-Bold-6f" d="M 2203 2784 
Q 1831 2784 1636 2517 
Q 1441 2250 1441 1747 
Q 1441 1244 1636 976 
Q 1831 709 2203 709 
Q 2569 709 2762 976 
Q 2956 1244 2956 1747 
Q 2956 2250 2762 2517 
Q 2569 2784 2203 2784 
z
M 2203 3584 
Q 3106 3584 3614 3096 
Q 4122 2609 4122 1747 
Q 4122 884 3614 396 
Q 3106 -91 2203 -91 
Q 1297 -91 786 396 
Q 275 884 275 1747 
Q 275 2609 786 3096 
Q 1297 3584 2203 3584 
z
" transform="scale(0.015625)"/>
      <path id="DejaVuSans-Bold-73" d="M 3272 3391 
L 3272 2541 
Q 2913 2691 2578 2766 
Q 2244 2841 1947 2841 
Q 1628 2841 1473 2761 
Q 1319 2681 1319 2516 
Q 1319 2381 1436 2309 
Q 1553 2238 1856 2203 
L 2053 2175 
Q 2913 2066 3209 1816 
Q 3506 1566 3506 1031 
Q 3506 472 3093 190 
Q 2681 -91 1863 -91 
Q 1516 -91 1145 -36 
Q 775 19 384 128 
L 384 978 
Q 719 816 1070 734 
Q 1422 653 1784 653 
Q 2113 653 2278 743 
Q 2444 834 2444 1013 
Q 2444 1163 2330 1236 
Q 2216 1309 1875 1350 
L 1678 1375 
Q 931 1469 631 1722 
Q 331 1975 331 2491 
Q 331 3047 712 3315 
Q 1094 3584 1881 3584 
Q 2191 3584 2531 3537 
Q 2872 3491 3272 3391 
z
" transform="scale(0.015625)"/>
     </defs>
     <use xlink:href="#DejaVuSans-Bold-4f"/>
     <use xlink:href="#DejaVuSans-Bold-75" x="85.009766"/>
     <use xlink:href="#DejaVuSans-Bold-74" x="156.201172"/>
     <use xlink:href="#DejaVuSans-Bold-70" x="204.003906"/>
     <use xlink:href="#DejaVuSans-Bold-75" x="275.585938"/>
     <use xlink:href="#DejaVuSans-Bold-74" x="346.777344"/>
     <use xlink:href="#DejaVuSans-Bold-20" x="394.580078"/>
     <use xlink:href="#DejaVuSans-Bold-50" x="429.394531"/>
     <use xlink:href="#DejaVuSans-Bold-72" x="502.685547"/>
     <use xlink:href="#DejaVuSans-Bold-6f" x="552.001953"/>
     <use xlink:href="#DejaVuSans-Bold-62" x="620.703125"/>
     <use xlink:href="#DejaVuSans-Bold-61" x="692.285156"/>
     <use xlink:href="#DejaVuSans-Bold-62" x="759.765625"/>
     <use xlink:href="#DejaVuSans-Bold-69" x="831.347656"/>
     <use xlink:href="#DejaVuSans-Bold-6c" x="865.625"/>
     <use xlink:href="#DejaVuSans-Bold-69" x="899.902344"/>
     <use xlink:href="#DejaVuSans-Bold-74" x="934.179688"/>
     <use xlink:href="#DejaVuSans-Bold-69" x="981.982422"/>
     <use xlink:href="#DejaVuSans-Bold-65" x="1016.259766"/>
     <use xlink:href="#DejaVuSans-Bold-73" x="1084.082031"/>
    </g>
   </g>
   <g id="text_3">
    <!-- Attention Layers -->
    <g style="fill: #333333" transform="translate(136.916719 313.056562) scale(0.18 -0.18)">
     <defs>
      <path id="DejaVuSans-Bold-6e" d="M 4056 2131 
L 4056 0 
L 2931 0 
L 2931 347 
L 2931 1631 
Q 2931 2084 2911 2256 
Q 2891 2428 2841 2509 
Q 2775 2619 2662 2680 
Q 2550 2741 2406 2741 
Q 2056 2741 1856 2470 
Q 1656 2200 1656 1722 
L 1656 0 
L 538 0 
L 538 3500 
L 1656 3500 
L 1656 2988 
Q 1909 3294 2193 3439 
Q 2478 3584 2822 3584 
Q 3428 3584 3742 3212 
Q 4056 2841 4056 2131 
z
" transform="scale(0.015625)"/>
      <path id="DejaVuSans-Bold-4c" d="M 588 4666 
L 1791 4666 
L 1791 909 
L 3903 909 
L 3903 0 
L 588 0 
L 588 4666 
z
" transform="scale(0.015625)"/>
      <path id="DejaVuSans-Bold-79" d="M 78 3500 
L 1197 3500 
L 2138 1125 
L 2938 3500 
L 4056 3500 
L 2584 -331 
Q 2363 -916 2067 -1148 
Q 1772 -1381 1288 -1381 
L 641 -1381 
L 641 -647 
L 991 -647 
Q 1275 -647 1404 -556 
Q 1534 -466 1606 -231 
L 1638 -134 
L 78 3500 
z
" transform="scale(0.015625)"/>
     </defs>
     <use xlink:href="#DejaVuSans-Bold-41"/>
     <use xlink:href="#DejaVuSans-Bold-74" x="77.392578"/>
     <use xlink:href="#DejaVuSans-Bold-74" x="125.195312"/>
     <use xlink:href="#DejaVuSans-Bold-65" x="172.998047"/>
     <use xlink:href="#DejaVuSans-Bold-6e" x="240.820312"/>
     <use xlink:href="#DejaVuSans-Bold-74" x="312.011719"/>
     <use xlink:href="#DejaVuSans-Bold-69" x="359.814453"/>
     <use xlink:href="#DejaVuSans-Bold-6f" x="394.091797"/>
     <use xlink:href="#DejaVuSans-Bold-6e" x="462.792969"/>
     <use xlink:href="#DejaVuSans-Bold-20" x="533.984375"/>
     <use xlink:href="#DejaVuSans-Bold-4c" x="568.798828"/>
     <use xlink:href="#DejaVuSans-Bold-61" x="632.519531"/>
     <use xlink:href="#DejaVuSans-Bold-79" x="696.875"/>
     <use xlink:href="#DejaVuSans-Bold-65" x="762.060547"/>
     <use xlink:href="#DejaVuSans-Bold-72" x="829.882812"/>
     <use xlink:href="#DejaVuSans-Bold-73" x="879.199219"/>
    </g>
   </g>
   <g id="text_4">
    <!-- (rotations / modular transforms) -->
    <g style="fill: #333333" transform="translate(92.66625 337.523) scale(0.16 -0.16)">
     <defs>
      <path id="DejaVuSans-28" d="M 1984 4856 
Q 1566 4138 1362 3434 
Q 1159 2731 1159 2009 
Q 1159 1288 1364 580 
Q 1569 -128 1984 -844 
L 1484 -844 
Q 1016 -109 783 600 
Q 550 1309 550 2009 
Q 550 2706 781 3412 
Q 1013 4119 1484 4856 
L 1984 4856 
z
" transform="scale(0.015625)"/>
      <path id="DejaVuSans-72" d="M 2631 2963 
Q 2534 3019 2420 3045 
Q 2306 3072 2169 3072 
Q 1681 3072 1420 2755 
Q 1159 2438 1159 1844 
L 1159 0 
L 581 0 
L 581 3500 
L 1159 3500 
L 1159 2956 
Q 1341 3275 1631 3429 
Q 1922 3584 2338 3584 
Q 2397 3584 2469 3576 
Q 2541 3569 2628 3553 
L 2631 2963 
z
" transform="scale(0.015625)"/>
      <path id="DejaVuSans-6f" d="M 1959 3097 
Q 1497 3097 1228 2736 
Q 959 2375 959 1747 
Q 959 1119 1226 758 
Q 1494 397 1959 397 
Q 2419 397 2687 759 
Q 2956 1122 2956 1747 
Q 2956 2369 2687 2733 
Q 2419 3097 1959 3097 
z
M 1959 3584 
Q 2709 3584 3137 3096 
Q 3566 2609 3566 1747 
Q 3566 888 3137 398 
Q 2709 -91 1959 -91 
Q 1206 -91 779 398 
Q 353 888 353 1747 
Q 353 2609 779 3096 
Q 1206 3584 1959 3584 
z
" transform="scale(0.015625)"/>
      <path id="DejaVuSans-74" d="M 1172 4494 
L 1172 3500 
L 2356 3500 
L 2356 3053 
L 1172 3053 
L 1172 1153 
Q 1172 725 1289 603 
Q 1406 481 1766 481 
L 2356 481 
L 2356 0 
L 1766 0 
Q 1100 0 847 248 
Q 594 497 594 1153 
L 594 3053 
L 172 3053 
L 172 3500 
L 594 3500 
L 594 4494 
L 1172 4494 
z
" transform="scale(0.015625)"/>
      <path id="DejaVuSans-61" d="M 2194 1759 
Q 1497 1759 1228 1600 
Q 959 1441 959 1056 
Q 959 750 1161 570 
Q 1363 391 1709 391 
Q 2188 391 2477 730 
Q 2766 1069 2766 1631 
L 2766 1759 
L 2194 1759 
z
M 3341 1997 
L 3341 0 
L 2766 0 
L 2766 531 
Q 2569 213 2275 61 
Q 1981 -91 1556 -91 
Q 1019 -91 701 211 
Q 384 513 384 1019 
Q 384 1609 779 1909 
Q 1175 2209 1959 2209 
L 2766 2209 
L 2766 2266 
Q 2766 2663 2505 2880 
Q 2244 3097 1772 3097 
Q 1472 3097 1187 3025 
Q 903 2953 641 2809 
L 641 3341 
Q 956 3463 1253 3523 
Q 1550 3584 1831 3584 
Q 2591 3584 2966 3190 
Q 3341 2797 3341 1997 
z
" transform="scale(0.015625)"/>
      <path id="DejaVuSans-69" d="M 603 3500 
L 1178 3500 
L 1178 0 
L 603 0 
L 603 3500 
z
M 603 4863 
L 1178 4863 
L 1178 4134 
L 603 4134 
L 603 4863 
z
" transform="scale(0.015625)"/>
      <path id="DejaVuSans-6e" d="M 3513 2113 
L 3513 0 
L 2938 0 
L 2938 2094 
Q 2938 2591 2744 2837 
Q 2550 3084 2163 3084 
Q 1697 3084 1428 2787 
Q 1159 2491 1159 1978 
L 1159 0 
L 581 0 
L 581 3500 
L 1159 3500 
L 1159 2956 
Q 1366 3272 1645 3428 
Q 1925 3584 2291 3584 
Q 2894 3584 3203 3211 
Q 3513 2838 3513 2113 
z
" transform="scale(0.015625)"/>
      <path id="DejaVuSans-73" d="M 2834 3397 
L 2834 2853 
Q 2591 2978 2328 3040 
Q 2066 3103 1784 3103 
Q 1356 3103 1142 2972 
Q 928 2841 928 2578 
Q 928 2378 1081 2264 
Q 1234 2150 1697 2047 
L 1894 2003 
Q 2506 1872 2764 1633 
Q 3022 1394 3022 966 
Q 3022 478 2636 193 
Q 2250 -91 1575 -91 
Q 1294 -91 989 -36 
Q 684 19 347 128 
L 347 722 
Q 666 556 975 473 
Q 1284 391 1588 391 
Q 1994 391 2212 530 
Q 2431 669 2431 922 
Q 2431 1156 2273 1281 
Q 2116 1406 1581 1522 
L 1381 1569 
Q 847 1681 609 1914 
Q 372 2147 372 2553 
Q 372 3047 722 3315 
Q 1072 3584 1716 3584 
Q 2034 3584 2315 3537 
Q 2597 3491 2834 3397 
z
" transform="scale(0.015625)"/>
      <path id="DejaVuSans-20" transform="scale(0.015625)"/>
      <path id="DejaVuSans-2f" d="M 1625 4666 
L 2156 4666 
L 531 -594 
L 0 -594 
L 1625 4666 
z
" transform="scale(0.015625)"/>
      <path id="DejaVuSans-6d" d="M 3328 2828 
Q 3544 3216 3844 3400 
Q 4144 3584 4550 3584 
Q 5097 3584 5394 3201 
Q 5691 2819 5691 2113 
L 5691 0 
L 5113 0 
L 5113 2094 
Q 5113 2597 4934 2840 
Q 4756 3084 4391 3084 
Q 3944 3084 3684 2787 
Q 3425 2491 3425 1978 
L 3425 0 
L 2847 0 
L 2847 2094 
Q 2847 2600 2669 2842 
Q 2491 3084 2119 3084 
Q 1678 3084 1418 2786 
Q 1159 2488 1159 1978 
L 1159 0 
L 581 0 
L 581 3500 
L 1159 3500 
L 1159 2956 
Q 1356 3278 1631 3431 
Q 1906 3584 2284 3584 
Q 2666 3584 2933 3390 
Q 3200 3197 3328 2828 
z
" transform="scale(0.015625)"/>
      <path id="DejaVuSans-64" d="M 2906 2969 
L 2906 4863 
L 3481 4863 
L 3481 0 
L 2906 0 
L 2906 525 
Q 2725 213 2448 61 
Q 2172 -91 1784 -91 
Q 1150 -91 751 415 
Q 353 922 353 1747 
Q 353 2572 751 3078 
Q 1150 3584 1784 3584 
Q 2172 3584 2448 3432 
Q 2725 3281 2906 2969 
z
M 947 1747 
Q 947 1113 1208 752 
Q 1469 391 1925 391 
Q 2381 391 2643 752 
Q 2906 1113 2906 1747 
Q 2906 2381 2643 2742 
Q 2381 3103 1925 3103 
Q 1469 3103 1208 2742 
Q 947 2381 947 1747 
z
" transform="scale(0.015625)"/>
      <path id="DejaVuSans-75" d="M 544 1381 
L 544 3500 
L 1119 3500 
L 1119 1403 
Q 1119 906 1312 657 
Q 1506 409 1894 409 
Q 2359 409 2629 706 
Q 2900 1003 2900 1516 
L 2900 3500 
L 3475 3500 
L 3475 0 
L 2900 0 
L 2900 538 
Q 2691 219 2414 64 
Q 2138 -91 1772 -91 
Q 1169 -91 856 284 
Q 544 659 544 1381 
z
M 1991 3584 
L 1991 3584 
z
" transform="scale(0.015625)"/>
      <path id="DejaVuSans-6c" d="M 603 4863 
L 1178 4863 
L 1178 0 
L 603 0 
L 603 4863 
z
" transform="scale(0.015625)"/>
      <path id="DejaVuSans-66" d="M 2375 4863 
L 2375 4384 
L 1825 4384 
Q 1516 4384 1395 4259 
Q 1275 4134 1275 3809 
L 1275 3500 
L 2222 3500 
L 2222 3053 
L 1275 3053 
L 1275 0 
L 697 0 
L 697 3053 
L 147 3053 
L 147 3500 
L 697 3500 
L 697 3744 
Q 697 4328 969 4595 
Q 1241 4863 1831 4863 
L 2375 4863 
z
" transform="scale(0.015625)"/>
      <path id="DejaVuSans-29" d="M 513 4856 
L 1013 4856 
Q 1481 4119 1714 3412 
Q 1947 2706 1947 2009 
Q 1947 1309 1714 600 
Q 1481 -109 1013 -844 
L 513 -844 
Q 928 -128 1133 580 
Q 1338 1288 1338 2009 
Q 1338 2731 1133 3434 
Q 928 4138 513 4856 
z
" transform="scale(0.015625)"/>
     </defs>
     <use xlink:href="#DejaVuSans-28"/>
     <use xlink:href="#DejaVuSans-72" x="39.013672"/>
     <use xlink:href="#DejaVuSans-6f" x="77.876953"/>
     <use xlink:href="#DejaVuSans-74" x="139.058594"/>
     <use xlink:href="#DejaVuSans-61" x="178.267578"/>
     <use xlink:href="#DejaVuSans-74" x="239.546875"/>
     <use xlink:href="#DejaVuSans-69" x="278.755859"/>
     <use xlink:href="#DejaVuSans-6f" x="306.539062"/>
     <use xlink:href="#DejaVuSans-6e" x="367.720703"/>
     <use xlink:href="#DejaVuSans-73" x="431.099609"/>
     <use xlink:href="#DejaVuSans-20" x="483.199219"/>
     <use xlink:href="#DejaVuSans-2f" x="514.986328"/>
     <use xlink:href="#DejaVuSans-20" x="548.677734"/>
     <use xlink:href="#DejaVuSans-6d" x="580.464844"/>
     <use xlink:href="#DejaVuSans-6f" x="677.876953"/>
     <use xlink:href="#DejaVuSans-64" x="739.058594"/>
     <use xlink:href="#DejaVuSans-75" x="802.535156"/>
     <use xlink:href="#DejaVuSans-6c" x="865.914062"/>
     <use xlink:href="#DejaVuSans-61" x="893.697266"/>
     <use xlink:href="#DejaVuSans-72" x="954.976562"/>
     <use xlink:href="#DejaVuSans-20" x="996.089844"/>
     <use xlink:href="#DejaVuSans-74" x="1027.876953"/>
     <use xlink:href="#DejaVuSans-72" x="1067.085938"/>
     <use xlink:href="#DejaVuSans-61" x="1108.199219"/>
     <use xlink:href="#DejaVuSans-6e" x="1169.478516"/>
     <use xlink:href="#DejaVuSans-73" x="1232.857422"/>
     <use xlink:href="#DejaVuSans-66" x="1284.957031"/>
     <use xlink:href="#DejaVuSans-6f" x="1320.162109"/>
     <use xlink:href="#DejaVuSans-72" x="1381.34375"/>
     <use xlink:href="#DejaVuSans-6d" x="1420.707031"/>
     <use xlink:href="#DejaVuSans-73" x="1518.119141"/>
     <use xlink:href="#DejaVuSans-29" x="1570.21875"/>
    </g>
   </g>
   <g id="text_5">
    <!-- Embedding Layers -->
    <g style="fill: #333333" transform="translate(128.082656 423.936562) scale(0.18 -0.18)">
     <defs>
      <path id="DejaVuSans-Bold-45" d="M 588 4666 
L 3834 4666 
L 3834 3756 
L 1791 3756 
L 1791 2888 
L 3713 2888 
L 3713 1978 
L 1791 1978 
L 1791 909 
L 3903 909 
L 3903 0 
L 588 0 
L 588 4666 
z
" transform="scale(0.015625)"/>
      <path id="DejaVuSans-Bold-6d" d="M 3781 2919 
Q 3994 3244 4286 3414 
Q 4578 3584 4928 3584 
Q 5531 3584 5847 3212 
Q 6163 2841 6163 2131 
L 6163 0 
L 5038 0 
L 5038 1825 
Q 5041 1866 5042 1909 
Q 5044 1953 5044 2034 
Q 5044 2406 4934 2573 
Q 4825 2741 4581 2741 
Q 4263 2741 4089 2478 
Q 3916 2216 3909 1719 
L 3909 0 
L 2784 0 
L 2784 1825 
Q 2784 2406 2684 2573 
Q 2584 2741 2328 2741 
Q 2006 2741 1831 2477 
Q 1656 2213 1656 1722 
L 1656 0 
L 531 0 
L 531 3500 
L 1656 3500 
L 1656 2988 
Q 1863 3284 2130 3434 
Q 2397 3584 2719 3584 
Q 3081 3584 3359 3409 
Q 3638 3234 3781 2919 
z
" transform="scale(0.015625)"/>
      <path id="DejaVuSans-Bold-64" d="M 2919 2988 
L 2919 4863 
L 4044 4863 
L 4044 0 
L 2919 0 
L 2919 506 
Q 2688 197 2409 53 
Q 2131 -91 1766 -91 
Q 1119 -91 703 423 
Q 288 938 288 1747 
Q 288 2556 703 3070 
Q 1119 3584 1766 3584 
Q 2128 3584 2408 3439 
Q 2688 3294 2919 2988 
z
M 2181 722 
Q 2541 722 2730 984 
Q 2919 1247 2919 1747 
Q 2919 2247 2730 2509 
Q 2541 2772 2181 2772 
Q 1825 2772 1636 2509 
Q 1447 2247 1447 1747 
Q 1447 1247 1636 984 
Q 1825 722 2181 722 
z
" transform="scale(0.015625)"/>
     </defs>
     <use xlink:href="#DejaVuSans-Bold-45"/>
     <use xlink:href="#DejaVuSans-Bold-6d" x="68.310547"/>
     <use xlink:href="#DejaVuSans-Bold-62" x="172.509766"/>
     <use xlink:href="#DejaVuSans-Bold-65" x="244.091797"/>
     <use xlink:href="#DejaVuSans-Bold-64" x="311.914062"/>
     <use xlink:href="#DejaVuSans-Bold-64" x="383.496094"/>
     <use xlink:href="#DejaVuSans-Bold-69" x="455.078125"/>
     <use xlink:href="#DejaVuSans-Bold-6e" x="489.355469"/>
     <use xlink:href="#DejaVuSans-Bold-67" x="560.546875"/>
     <use xlink:href="#DejaVuSans-Bold-20" x="632.128906"/>
     <use xlink:href="#DejaVuSans-Bold-4c" x="666.943359"/>
     <use xlink:href="#DejaVuSans-Bold-61" x="730.664062"/>
     <use xlink:href="#DejaVuSans-Bold-79" x="795.019531"/>
     <use xlink:href="#DejaVuSans-Bold-65" x="860.205078"/>
     <use xlink:href="#DejaVuSans-Bold-72" x="928.027344"/>
     <use xlink:href="#DejaVuSans-Bold-73" x="977.34375"/>
    </g>
   </g>
   <g id="text_6">
    <!-- (continuous vectors $\mathbb{R}^n$) -->
    <g style="fill: #333333" transform="translate(126.76 448.403) scale(0.16 -0.16)">
     <defs>
      <path id="DejaVuSans-63" d="M 3122 3366 
L 3122 2828 
Q 2878 2963 2633 3030 
Q 2388 3097 2138 3097 
Q 1578 3097 1268 2742 
Q 959 2388 959 1747 
Q 959 1106 1268 751 
Q 1578 397 2138 397 
Q 2388 397 2633 464 
Q 2878 531 3122 666 
L 3122 134 
Q 2881 22 2623 -34 
Q 2366 -91 2075 -91 
Q 1284 -91 818 406 
Q 353 903 353 1747 
Q 353 2603 823 3093 
Q 1294 3584 2113 3584 
Q 2378 3584 2631 3529 
Q 2884 3475 3122 3366 
z
" transform="scale(0.015625)"/>
      <path id="DejaVuSans-76" d="M 191 3500 
L 800 3500 
L 1894 563 
L 2988 3500 
L 3597 3500 
L 2284 0 
L 1503 0 
L 191 3500 
z
" transform="scale(0.015625)"/>
      <path id="DejaVuSans-65" d="M 3597 1894 
L 3597 1613 
L 953 1613 
Q 991 1019 1311 708 
Q 1631 397 2203 397 
Q 2534 397 2845 478 
Q 3156 559 3463 722 
L 3463 178 
Q 3153 47 2828 -22 
Q 2503 -91 2169 -91 
Q 1331 -91 842 396 
Q 353 884 353 1716 
Q 353 2575 817 3079 
Q 1281 3584 2069 3584 
Q 2775 3584 3186 3129 
Q 3597 2675 3597 1894 
z
M 3022 2063 
Q 3016 2534 2758 2815 
Q 2500 3097 2075 3097 
Q 1594 3097 1305 2825 
Q 1016 2553 972 2059 
L 3022 2063 
z
" transform="scale(0.015625)"/>
      <path id="STIXGeneral-Italic-211d" d="M 1229 4179 
L 3360 4179 
Q 3827 4179 4108 3894 
Q 4390 3610 4390 3142 
Q 4390 2554 4060 2186 
Q 3731 1818 3149 1715 
L 4026 0 
L 2925 0 
L 2125 1690 
L 1549 1690 
L 1094 0 
L 109 0 
L 1229 4179 
z
M 3866 3821 
L 3392 2022 
Q 3770 2144 3962 2438 
Q 4154 2733 4154 3136 
Q 4154 3584 3866 3821 
z
M 3142 1978 
L 3648 3872 
Q 3450 3942 3296 3942 
L 2150 3942 
L 1613 1926 
L 2630 1926 
Q 2957 1926 3142 1978 
z
M 3629 237 
L 2899 1696 
Q 2829 1683 2682 1683 
Q 2630 1683 2531 1686 
Q 2432 1690 2387 1690 
L 3072 237 
L 3629 237 
z
M 1907 3942 
L 1408 3942 
L 416 237 
L 915 237 
L 1907 3942 
z
" transform="scale(0.015625)"/>
      <path id="DejaVuSans-Oblique-6e" d="M 3566 2113 
L 3156 0 
L 2578 0 
L 2988 2091 
Q 3016 2238 3031 2350 
Q 3047 2463 3047 2528 
Q 3047 2791 2881 2937 
Q 2716 3084 2419 3084 
Q 1956 3084 1622 2776 
Q 1288 2469 1184 1941 
L 800 0 
L 225 0 
L 903 3500 
L 1478 3500 
L 1363 2950 
Q 1603 3253 1940 3418 
Q 2278 3584 2650 3584 
Q 3113 3584 3367 3334 
Q 3622 3084 3622 2631 
Q 3622 2519 3608 2391 
Q 3594 2263 3566 2113 
z
" transform="scale(0.015625)"/>
     </defs>
     <use xlink:href="#DejaVuSans-28" transform="translate(0 0.51875)"/>
     <use xlink:href="#DejaVuSans-63" transform="translate(39.013672 0.51875)"/>
     <use xlink:href="#DejaVuSans-6f" transform="translate(93.994141 0.51875)"/>
     <use xlink:href="#DejaVuSans-6e" transform="translate(155.175781 0.51875)"/>
     <use xlink:href="#DejaVuSans-74" transform="translate(218.554688 0.51875)"/>
     <use xlink:href="#DejaVuSans-69" transform="translate(257.763672 0.51875)"/>
     <use xlink:href="#DejaVuSans-6e" transform="translate(285.546875 0.51875)"/>
     <use xlink:href="#DejaVuSans-75" transform="translate(348.925781 0.51875)"/>
     <use xlink:href="#DejaVuSans-6f" transform="translate(412.304688 0.51875)"/>
     <use xlink:href="#DejaVuSans-75" transform="translate(473.486328 0.51875)"/>
     <use xlink:href="#DejaVuSans-73" transform="translate(536.865234 0.51875)"/>
     <use xlink:href="#DejaVuSans-20" transform="translate(588.964844 0.51875)"/>
     <use xlink:href="#DejaVuSans-76" transform="translate(620.751953 0.51875)"/>
     <use xlink:href="#DejaVuSans-65" transform="translate(679.931641 0.51875)"/>
     <use xlink:href="#DejaVuSans-63" transform="translate(741.455078 0.51875)"/>
     <use xlink:href="#DejaVuSans-74" transform="translate(796.435547 0.51875)"/>
     <use xlink:href="#DejaVuSans-6f" transform="translate(835.644531 0.51875)"/>
     <use xlink:href="#DejaVuSans-72" transform="translate(896.826172 0.51875)"/>
     <use xlink:href="#DejaVuSans-73" transform="translate(937.939453 0.51875)"/>
     <use xlink:href="#DejaVuSans-20" transform="translate(990.039062 0.51875)"/>
     <use xlink:href="#STIXGeneral-Italic-211d" transform="translate(1021.826172 0.51875)"/>
     <use xlink:href="#DejaVuSans-Oblique-6e" transform="translate(1096.477612 38.8) scale(0.7)"/>
     <use xlink:href="#DejaVuSans-29" transform="translate(1143.577221 0.51875)"/>
    </g>
   </g>
   <g id="text_7">
    <!-- Lexical Tokens / Subwords -->
    <g style="fill: #333333" transform="translate(88.676719 534.886875) scale(0.18 -0.18)">
     <defs>
      <path id="DejaVuSans-Bold-78" d="M 1422 1791 
L 159 3500 
L 1344 3500 
L 2059 2463 
L 2784 3500 
L 3969 3500 
L 2706 1797 
L 4031 0 
L 2847 0 
L 2059 1106 
L 1281 0 
L 97 0 
L 1422 1791 
z
" transform="scale(0.015625)"/>
      <path id="DejaVuSans-Bold-2f" d="M 1644 4666 
L 2338 4666 
L 691 -594 
L 0 -594 
L 1644 4666 
z
" transform="scale(0.015625)"/>
      <path id="DejaVuSans-Bold-77" d="M 225 3500 
L 1313 3500 
L 1900 1088 
L 2491 3500 
L 3425 3500 
L 4013 1113 
L 4603 3500 
L 5691 3500 
L 4769 0 
L 3547 0 
L 2956 2406 
L 2369 0 
L 1147 0 
L 225 3500 
z
" transform="scale(0.015625)"/>
     </defs>
     <use xlink:href="#DejaVuSans-Bold-4c"/>
     <use xlink:href="#DejaVuSans-Bold-65" x="63.720703"/>
     <use xlink:href="#DejaVuSans-Bold-78" x="131.542969"/>
     <use xlink:href="#DejaVuSans-Bold-69" x="196.044922"/>
     <use xlink:href="#DejaVuSans-Bold-63" x="230.322266"/>
     <use xlink:href="#DejaVuSans-Bold-61" x="289.599609"/>
     <use xlink:href="#DejaVuSans-Bold-6c" x="357.080078"/>
     <use xlink:href="#DejaVuSans-Bold-20" x="391.357422"/>
     <use xlink:href="#DejaVuSans-Bold-54" x="426.171875"/>
     <use xlink:href="#DejaVuSans-Bold-6f" x="481.134766"/>
     <use xlink:href="#DejaVuSans-Bold-6b" x="549.835938"/>
     <use xlink:href="#DejaVuSans-Bold-65" x="613.714844"/>
     <use xlink:href="#DejaVuSans-Bold-6e" x="681.537109"/>
     <use xlink:href="#DejaVuSans-Bold-73" x="752.728516"/>
     <use xlink:href="#DejaVuSans-Bold-20" x="812.25"/>
     <use xlink:href="#DejaVuSans-Bold-2f" x="847.064453"/>
     <use xlink:href="#DejaVuSans-Bold-20" x="883.587891"/>
     <use xlink:href="#DejaVuSans-Bold-53" x="918.402344"/>
     <use xlink:href="#DejaVuSans-Bold-75" x="990.423828"/>
     <use xlink:href="#DejaVuSans-Bold-62" x="1061.615234"/>
     <use xlink:href="#DejaVuSans-Bold-77" x="1133.197266"/>
     <use xlink:href="#DejaVuSans-Bold-6f" x="1225.580078"/>
     <use xlink:href="#DejaVuSans-Bold-72" x="1294.28125"/>
     <use xlink:href="#DejaVuSans-Bold-64" x="1343.597656"/>
     <use xlink:href="#DejaVuSans-Bold-73" x="1415.179688"/>
    </g>
   </g>
   <g id="text_8">
    <!-- (discrete elements $\mathbb{Z}_p$) -->
    <g style="fill: #333333" transform="translate(130.92 558.468) scale(0.16 -0.16)">
     <defs>
      <path id="STIXGeneral-Italic-2124" d="M 4800 3942 
L 1382 256 
L 1382 237 
L 4128 237 
L 4070 0 
L 45 0 
L 45 237 
L 3494 3930 
L 3494 3942 
L 909 3942 
L 966 4179 
L 4800 4179 
L 4800 3942 
z
M 4467 3942 
L 3827 3942 
L 390 237 
L 1050 237 
L 4467 3942 
z
" transform="scale(0.015625)"/>
      <path id="DejaVuSans-Oblique-70" d="M 3175 2156 
Q 3175 2616 2975 2859 
Q 2775 3103 2400 3103 
Q 2144 3103 1911 2972 
Q 1678 2841 1497 2591 
Q 1319 2344 1212 1994 
Q 1106 1644 1106 1300 
Q 1106 863 1306 627 
Q 1506 391 1875 391 
Q 2147 391 2380 519 
Q 2613 647 2778 891 
Q 2956 1147 3065 1494 
Q 3175 1841 3175 2156 
z
M 1394 2969 
Q 1625 3272 1939 3428 
Q 2253 3584 2638 3584 
Q 3175 3584 3472 3232 
Q 3769 2881 3769 2247 
Q 3769 1728 3584 1258 
Q 3400 788 3053 416 
Q 2822 169 2531 39 
Q 2241 -91 1919 -91 
Q 1547 -91 1294 64 
Q 1041 219 916 525 
L 556 -1331 
L -19 -1331 
L 922 3500 
L 1497 3500 
L 1394 2969 
z
" transform="scale(0.015625)"/>
     </defs>
     <use xlink:href="#DejaVuSans-28" transform="translate(0 0.015625)"/>
     <use xlink:href="#DejaVuSans-64" transform="translate(39.013672 0.015625)"/>
     <use xlink:href="#DejaVuSans-69" transform="translate(102.490234 0.015625)"/>
     <use xlink:href="#DejaVuSans-73" transform="translate(130.273438 0.015625)"/>
     <use xlink:href="#DejaVuSans-63" transform="translate(182.373047 0.015625)"/>
     <use xlink:href="#DejaVuSans-72" transform="translate(237.353516 0.015625)"/>
     <use xlink:href="#DejaVuSans-65" transform="translate(278.466797 0.015625)"/>
     <use xlink:href="#DejaVuSans-74" transform="translate(339.990234 0.015625)"/>
     <use xlink:href="#DejaVuSans-65" transform="translate(379.199219 0.015625)"/>
     <use xlink:href="#DejaVuSans-20" transform="translate(440.722656 0.015625)"/>
     <use xlink:href="#DejaVuSans-65" transform="translate(472.509766 0.015625)"/>
     <use xlink:href="#DejaVuSans-6c" transform="translate(534.033203 0.015625)"/>
     <use xlink:href="#DejaVuSans-65" transform="translate(561.816406 0.015625)"/>
     <use xlink:href="#DejaVuSans-6d" transform="translate(623.339844 0.015625)"/>
     <use xlink:href="#DejaVuSans-65" transform="translate(720.751953 0.015625)"/>
     <use xlink:href="#DejaVuSans-6e" transform="translate(782.275391 0.015625)"/>
     <use xlink:href="#DejaVuSans-74" transform="translate(845.654297 0.015625)"/>
     <use xlink:href="#DejaVuSans-73" transform="translate(884.863281 0.015625)"/>
     <use xlink:href="#DejaVuSans-20" transform="translate(936.962891 0.015625)"/>
     <use xlink:href="#STIXGeneral-Italic-2124" transform="translate(968.75 0.015625)"/>
     <use xlink:href="#DejaVuSans-Oblique-70" transform="translate(1044.149994 -16.390625) scale(0.7)"/>
     <use xlink:href="#DejaVuSans-29" transform="translate(1091.317963 0.015625)"/>
    </g>
   </g>
   <g id="text_9">
    <!-- Projection back to language -->
    <g style="fill: #333333" transform="translate(291.708 256.583125) scale(0.14 -0.14)">
     <defs>
      <path id="DejaVuSans-50" d="M 1259 4147 
L 1259 2394 
L 2053 2394 
Q 2494 2394 2734 2622 
Q 2975 2850 2975 3272 
Q 2975 3691 2734 3919 
Q 2494 4147 2053 4147 
L 1259 4147 
z
M 628 4666 
L 2053 4666 
Q 2838 4666 3239 4311 
Q 3641 3956 3641 3272 
Q 3641 2581 3239 2228 
Q 2838 1875 2053 1875 
L 1259 1875 
L 1259 0 
L 628 0 
L 628 4666 
z
" transform="scale(0.015625)"/>
      <path id="DejaVuSans-6a" d="M 603 3500 
L 1178 3500 
L 1178 -63 
Q 1178 -731 923 -1031 
Q 669 -1331 103 -1331 
L -116 -1331 
L -116 -844 
L 38 -844 
Q 366 -844 484 -692 
Q 603 -541 603 -63 
L 603 3500 
z
M 603 4863 
L 1178 4863 
L 1178 4134 
L 603 4134 
L 603 4863 
z
" transform="scale(0.015625)"/>
      <path id="DejaVuSans-62" d="M 3116 1747 
Q 3116 2381 2855 2742 
Q 2594 3103 2138 3103 
Q 1681 3103 1420 2742 
Q 1159 2381 1159 1747 
Q 1159 1113 1420 752 
Q 1681 391 2138 391 
Q 2594 391 2855 752 
Q 3116 1113 3116 1747 
z
M 1159 2969 
Q 1341 3281 1617 3432 
Q 1894 3584 2278 3584 
Q 2916 3584 3314 3078 
Q 3713 2572 3713 1747 
Q 3713 922 3314 415 
Q 2916 -91 2278 -91 
Q 1894 -91 1617 61 
Q 1341 213 1159 525 
L 1159 0 
L 581 0 
L 581 4863 
L 1159 4863 
L 1159 2969 
z
" transform="scale(0.015625)"/>
      <path id="DejaVuSans-6b" d="M 581 4863 
L 1159 4863 
L 1159 1991 
L 2875 3500 
L 3609 3500 
L 1753 1863 
L 3688 0 
L 2938 0 
L 1159 1709 
L 1159 0 
L 581 0 
L 581 4863 
z
" transform="scale(0.015625)"/>
      <path id="DejaVuSans-67" d="M 2906 1791 
Q 2906 2416 2648 2759 
Q 2391 3103 1925 3103 
Q 1463 3103 1205 2759 
Q 947 2416 947 1791 
Q 947 1169 1205 825 
Q 1463 481 1925 481 
Q 2391 481 2648 825 
Q 2906 1169 2906 1791 
z
M 3481 434 
Q 3481 -459 3084 -895 
Q 2688 -1331 1869 -1331 
Q 1566 -1331 1297 -1286 
Q 1028 -1241 775 -1147 
L 775 -588 
Q 1028 -725 1275 -790 
Q 1522 -856 1778 -856 
Q 2344 -856 2625 -561 
Q 2906 -266 2906 331 
L 2906 616 
Q 2728 306 2450 153 
Q 2172 0 1784 0 
Q 1141 0 747 490 
Q 353 981 353 1791 
Q 353 2603 747 3093 
Q 1141 3584 1784 3584 
Q 2172 3584 2450 3431 
Q 2728 3278 2906 2969 
L 2906 3500 
L 3481 3500 
L 3481 434 
z
" transform="scale(0.015625)"/>
     </defs>
     <use xlink:href="#DejaVuSans-50"/>
     <use xlink:href="#DejaVuSans-72" x="58.552734"/>
     <use xlink:href="#DejaVuSans-6f" x="97.416016"/>
     <use xlink:href="#DejaVuSans-6a" x="158.597656"/>
     <use xlink:href="#DejaVuSans-65" x="186.380859"/>
     <use xlink:href="#DejaVuSans-63" x="247.904297"/>
     <use xlink:href="#DejaVuSans-74" x="302.884766"/>
     <use xlink:href="#DejaVuSans-69" x="342.09375"/>
     <use xlink:href="#DejaVuSans-6f" x="369.876953"/>
     <use xlink:href="#DejaVuSans-6e" x="431.058594"/>
     <use xlink:href="#DejaVuSans-20" x="494.4375"/>
     <use xlink:href="#DejaVuSans-62" x="526.224609"/>
     <use xlink:href="#DejaVuSans-61" x="589.701172"/>
     <use xlink:href="#DejaVuSans-63" x="650.980469"/>
     <use xlink:href="#DejaVuSans-6b" x="705.960938"/>
     <use xlink:href="#DejaVuSans-20" x="763.871094"/>
     <use xlink:href="#DejaVuSans-74" x="795.658203"/>
     <use xlink:href="#DejaVuSans-6f" x="834.867188"/>
     <use xlink:href="#DejaVuSans-20" x="896.048828"/>
     <use xlink:href="#DejaVuSans-6c" x="927.835938"/>
     <use xlink:href="#DejaVuSans-61" x="955.619141"/>
     <use xlink:href="#DejaVuSans-6e" x="1016.898438"/>
     <use xlink:href="#DejaVuSans-67" x="1080.277344"/>
     <use xlink:href="#DejaVuSans-75" x="1143.753906"/>
     <use xlink:href="#DejaVuSans-61" x="1207.132812"/>
     <use xlink:href="#DejaVuSans-67" x="1268.412109"/>
     <use xlink:href="#DejaVuSans-65" x="1331.888672"/>
    </g>
   </g>
   <g id="text_10">
    <!-- Transform in $\mathbb{R}^n$ -->
    <g style="fill: #333333" transform="translate(291.708 367.463125) scale(0.14 -0.14)">
     <defs>
      <path id="DejaVuSans-54" d="M -19 4666 
L 3928 4666 
L 3928 4134 
L 2272 4134 
L 2272 0 
L 1638 0 
L 1638 4134 
L -19 4134 
L -19 4666 
z
" transform="scale(0.015625)"/>
     </defs>
     <use xlink:href="#DejaVuSans-54" transform="translate(0 0.51875)"/>
     <use xlink:href="#DejaVuSans-72" transform="translate(61.083984 0.51875)"/>
     <use xlink:href="#DejaVuSans-61" transform="translate(102.197266 0.51875)"/>
     <use xlink:href="#DejaVuSans-6e" transform="translate(163.476562 0.51875)"/>
     <use xlink:href="#DejaVuSans-73" transform="translate(226.855469 0.51875)"/>
     <use xlink:href="#DejaVuSans-66" transform="translate(278.955078 0.51875)"/>
     <use xlink:href="#DejaVuSans-6f" transform="translate(314.160156 0.51875)"/>
     <use xlink:href="#DejaVuSans-72" transform="translate(375.341797 0.51875)"/>
     <use xlink:href="#DejaVuSans-6d" transform="translate(416.455078 0.51875)"/>
     <use xlink:href="#DejaVuSans-20" transform="translate(513.867188 0.51875)"/>
     <use xlink:href="#DejaVuSans-69" transform="translate(545.654297 0.51875)"/>
     <use xlink:href="#DejaVuSans-6e" transform="translate(573.4375 0.51875)"/>
     <use xlink:href="#DejaVuSans-20" transform="translate(636.816406 0.51875)"/>
     <use xlink:href="#STIXGeneral-Italic-211d" transform="translate(668.603516 0.51875)"/>
     <use xlink:href="#DejaVuSans-Oblique-6e" transform="translate(743.254956 38.8) scale(0.7)"/>
    </g>
   </g>
   <g id="text_11">
    <!-- Lift from discrete -->
    <g style="fill: #333333" transform="translate(291.708 478.343125) scale(0.14 -0.14)">
     <defs>
      <path id="DejaVuSans-4c" d="M 628 4666 
L 1259 4666 
L 1259 531 
L 3531 531 
L 3531 0 
L 628 0 
L 628 4666 
z
" transform="scale(0.015625)"/>
     </defs>
     <use xlink:href="#DejaVuSans-4c"/>
     <use xlink:href="#DejaVuSans-69" x="55.712891"/>
     <use xlink:href="#DejaVuSans-66" x="83.496094"/>
     <use xlink:href="#DejaVuSans-74" x="116.951172"/>
     <use xlink:href="#DejaVuSans-20" x="156.160156"/>
     <use xlink:href="#DejaVuSans-66" x="187.947266"/>
     <use xlink:href="#DejaVuSans-72" x="223.152344"/>
     <use xlink:href="#DejaVuSans-6f" x="262.015625"/>
     <use xlink:href="#DejaVuSans-6d" x="323.197266"/>
     <use xlink:href="#DejaVuSans-20" x="420.609375"/>
     <use xlink:href="#DejaVuSans-64" x="452.396484"/>
     <use xlink:href="#DejaVuSans-69" x="515.873047"/>
     <use xlink:href="#DejaVuSans-73" x="543.65625"/>
     <use xlink:href="#DejaVuSans-63" x="595.755859"/>
     <use xlink:href="#DejaVuSans-72" x="650.736328"/>
     <use xlink:href="#DejaVuSans-65" x="689.599609"/>
     <use xlink:href="#DejaVuSans-74" x="751.123047"/>
     <use xlink:href="#DejaVuSans-65" x="790.332031"/>
    </g>
   </g>
  </g>
 </g>
 <defs>
  <clipPath id="p1f23175e8a">
   <rect x="54" y="86.4" width="334.8" height="554.4"/>
  </clipPath>
 </defs>
</svg>
