<?xml version="1.0" encoding="utf-8" standalone="no"?>
<!DOCTYPE svg PUBLIC "-//W3C//DTD SVG 1.1//EN"
  "http://www.w3.org/Graphics/SVG/1.1/DTD/svg11.dtd">
<svg xmlns:xlink="http://www.w3.org/1999/xlink" width="1728pt" height="972pt" viewBox="0 0 1728 972" xmlns="http://www.w3.org/2000/svg" version="1.1">
 <metadata>
  <rdf:RDF xmlns:dc="http://purl.org/dc/elements/1.1/" xmlns:cc="http://creativecommons.org/ns#" xmlns:rdf="http://www.w3.org/1999/02/22-rdf-syntax-ns#">
   <cc:Work>
    <dc:type rdf:resource="http://purl.org/dc/dcmitype/StillImage"/>
    <dc:date>2025-10-21T22:13:24.880202</dc:date>
    <dc:format>image/svg+xml</dc:format>
    <dc:creator>
     <cc:Agent>
      <dc:title>Matplotlib v3.6.3, https://matplotlib.org/</dc:title>
     </cc:Agent>
    </dc:creator>
   </cc:Work>
  </rdf:RDF>
 </metadata>
 <defs>
  <style type="text/css">*{stroke-linejoin: round; stroke-linecap: butt}</style>
 </defs>
 <g id="figure_1">
  <g id="patch_1">
   <path d="M 0 972 
L 1728 972 
L 1728 0 
L 0 0 
z
" style="fill: #ffffff"/>
  </g>
  <g id="axes_1">
   <g id="patch_2">
    <path d="M 129.6 416.88 
C 131.891355 416.88 134.08917 415.969635 135.709403 414.349403 
C 137.329635 412.72917 138.24 410.531355 138.24 408.24 
C 138.24 405.948645 137.329635 403.75083 135.709403 402.130597 
C 134.08917 400.510365 131.891355 399.6 129.6 399.6 
C 127.308645 399.6 125.11083 400.510365 123.490597 402.130597 
C 121.870365 403.75083 120.96 405.948645 120.96 408.24 
C 120.96 410.531355 121.870365 412.72917 123.490597 414.349403 
C 125.11083 415.969635 127.308645 416.88 129.6 416.88 
z
" clip-path="url(#p7ecca4b036)" style="fill: #1e88e5"/>
   </g>
   <g id="patch_3">
    <path d="M 149.76 416.88 
C 152.051355 416.88 154.24917 415.969635 155.869403 414.349403 
C 157.489635 412.72917 158.4 410.531355 158.4 408.24 
C 158.4 405.948645 157.489635 403.75083 155.869403 402.130597 
C 154.24917 400.510365 152.051355 399.6 149.76 399.6 
C 147.468645 399.6 145.27083 400.510365 143.650597 402.130597 
C 142.030365 403.75083 141.12 405.948645 141.12 408.24 
C 141.12 410.531355 142.030365 412.72917 143.650597 414.349403 
C 145.27083 415.969635 147.468645 416.88 149.76 416.88 
z
" clip-path="url(#p7ecca4b036)" style="fill: #1e88e5"/>
   </g>
   <g id="patch_4">
    <path d="M 129.6 503.28 
C 131.891355 503.28 134.08917 502.369635 135.709403 500.749403 
C 137.329635 499.12917 138.24 496.931355 138.24 494.64 
C 138.24 492.348645 137.329635 490.15083 135.709403 488.530597 
C 134.08917 486.910365 131.891355 486 129.6 486 
C 127.308645 486 125.11083 486.910365 123.490597 488.530597 
C 121.870365 490.15083 120.96 492.348645 120.96 494.64 
C 120.96 496.931355 121.870365 499.12917 123.490597 500.749403 
C 125.11083 502.369635 127.308645 503.28 129.6 503.28 
z
" clip-path="url(#p7ecca4b036)" style="fill: #1e88e5"/>
   </g>
   <g id="patch_5">
    <path d="M 149.76 503.28 
C 152.051355 503.28 154.24917 502.369635 155.869403 500.749403 
C 157.489635 499.12917 158.4 496.931355 158.4 494.64 
C 158.4 492.348645 157.489635 490.15083 155.869403 488.530597 
C 154.24917 486.910365 152.051355 486 149.76 486 
C 147.468645 486 145.27083 486.910365 143.650597 488.530597 
C 142.030365 490.15083 141.12 492.348645 141.12 494.64 
C 141.12 496.931355 142.030365 499.12917 143.650597 500.749403 
C 145.27083 502.369635 147.468645 503.28 149.76 503.28 
z
" clip-path="url(#p7ecca4b036)" style="fill: #1e88e5"/>
   </g>
   <g id="patch_6">
    <path d="M 169.92 503.28 
C 172.211355 503.28 174.40917 502.369635 176.029403 500.749403 
C 177.649635 499.12917 178.56 496.931355 178.56 494.64 
C 178.56 492.348645 177.649635 490.15083 176.029403 488.530597 
C 174.40917 486.910365 172.211355 486 169.92 486 
C 167.628645 486 165.43083 486.910365 163.810597 488.530597 
C 162.190365 490.15083 161.28 492.348645 161.28 494.64 
C 161.28 496.931355 162.190365 499.12917 163.810597 500.749403 
C 165.43083 502.369635 167.628645 503.28 169.92 503.28 
z
" clip-path="url(#p7ecca4b036)" style="fill: #1e88e5"/>
   </g>
   <g id="patch_7">
    <path d="M 129.6 589.68 
C 131.891355 589.68 134.08917 588.769635 135.709403 587.149403 
C 137.329635 585.52917 138.24 583.331355 138.24 581.04 
C 138.24 578.748645 137.329635 576.55083 135.709403 574.930597 
C 134.08917 573.310365 131.891355 572.4 129.6 572.4 
C 127.308645 572.4 125.11083 573.310365 123.490597 574.930597 
C 121.870365 576.55083 120.96 578.748645 120.96 581.04 
C 120.96 583.331355 121.870365 585.52917 123.490597 587.149403 
C 125.11083 588.769635 127.308645 589.68 129.6 589.68 
z
" clip-path="url(#p7ecca4b036)" style="fill: #1e88e5"/>
   </g>
   <g id="patch_8">
    <path d="M 149.76 589.68 
C 152.051355 589.68 154.24917 588.769635 155.869403 587.149403 
C 157.489635 585.52917 158.4 583.331355 158.4 581.04 
C 158.4 578.748645 157.489635 576.55083 155.869403 574.930597 
C 154.24917 573.310365 152.051355 572.4 149.76 572.4 
C 147.468645 572.4 145.27083 573.310365 143.650597 574.930597 
C 142.030365 576.55083 141.12 578.748645 141.12 581.04 
C 141.12 583.331355 142.030365 585.52917 143.650597 587.149403 
C 145.27083 588.769635 147.468645 589.68 149.76 589.68 
z
" clip-path="url(#p7ecca4b036)" style="fill: #1e88e5"/>
   </g>
   <g id="patch_9">
    <path d="M 169.92 589.68 
C 172.211355 589.68 174.40917 588.769635 176.029403 587.149403 
C 177.649635 585.52917 178.56 583.331355 178.56 581.04 
C 178.56 578.748645 177.649635 576.55083 176.029403 574.930597 
C 174.40917 573.310365 172.211355 572.4 169.92 572.4 
C 167.628645 572.4 165.43083 573.310365 163.810597 574.930597 
C 162.190365 576.55083 161.28 578.748645 161.28 581.04 
C 161.28 583.331355 162.190365 585.52917 163.810597 587.149403 
C 165.43083 588.769635 167.628645 589.68 169.92 589.68 
z
" clip-path="url(#p7ecca4b036)" style="fill: #1e88e5"/>
   </g>
   <g id="patch_10">
    <path d="M 190.08 589.68 
C 192.371355 589.68 194.56917 588.769635 196.189403 587.149403 
C 197.809635 585.52917 198.72 583.331355 198.72 581.04 
C 198.72 578.748645 197.809635 576.55083 196.189403 574.930597 
C 194.56917 573.310365 192.371355 572.4 190.08 572.4 
C 187.788645 572.4 185.59083 573.310365 183.970597 574.930597 
C 182.350365 576.55083 181.44 578.748645 181.44 581.04 
C 181.44 583.331355 182.350365 585.52917 183.970597 587.149403 
C 185.59083 588.769635 187.788645 589.68 190.08 589.68 
z
" clip-path="url(#p7ecca4b036)" style="fill: #1e88e5"/>
   </g>
   <g id="patch_11">
    <path d="M 210.24 589.68 
C 212.531355 589.68 214.72917 588.769635 216.349403 587.149403 
C 217.969635 585.52917 218.88 583.331355 218.88 581.04 
C 218.88 578.748645 217.969635 576.55083 216.349403 574.930597 
C 214.72917 573.310365 212.531355 572.4 210.24 572.4 
C 207.948645 572.4 205.75083 573.310365 204.130597 574.930597 
C 202.510365 576.55083 201.6 578.748645 201.6 581.04 
C 201.6 583.331355 202.510365 585.52917 204.130597 587.149403 
C 205.75083 588.769635 207.948645 589.68 210.24 589.68 
z
" clip-path="url(#p7ecca4b036)" style="fill: #1e88e5"/>
   </g>
   <g id="patch_12">
    <path d="M 129.6 676.08 
C 131.891355 676.08 134.08917 675.169635 135.709403 673.549403 
C 137.329635 671.92917 138.24 669.731355 138.24 667.44 
C 138.24 665.148645 137.329635 662.95083 135.709403 661.330597 
C 134.08917 659.710365 131.891355 658.8 129.6 658.8 
C 127.308645 658.8 125.11083 659.710365 123.490597 661.330597 
C 121.870365 662.95083 120.96 665.148645 120.96 667.44 
C 120.96 669.731355 121.870365 671.92917 123.490597 673.549403 
C 125.11083 675.169635 127.308645 676.08 129.6 676.08 
z
" clip-path="url(#p7ecca4b036)" style="fill: #1e88e5"/>
   </g>
   <g id="patch_13">
    <path d="M 149.76 676.08 
C 152.051355 676.08 154.24917 675.169635 155.869403 673.549403 
C 157.489635 671.92917 158.4 669.731355 158.4 667.44 
C 158.4 665.148645 157.489635 662.95083 155.869403 661.330597 
C 154.24917 659.710365 152.051355 658.8 149.76 658.8 
C 147.468645 658.8 145.27083 659.710365 143.650597 661.330597 
C 142.030365 662.95083 141.12 665.148645 141.12 667.44 
C 141.12 669.731355 142.030365 671.92917 143.650597 673.549403 
C 145.27083 675.169635 147.468645 676.08 149.76 676.08 
z
" clip-path="url(#p7ecca4b036)" style="fill: #1e88e5"/>
   </g>
   <g id="patch_14">
    <path d="M 169.92 676.08 
C 172.211355 676.08 174.40917 675.169635 176.029403 673.549403 
C 177.649635 671.92917 178.56 669.731355 178.56 667.44 
C 178.56 665.148645 177.649635 662.95083 176.029403 661.330597 
C 174.40917 659.710365 172.211355 658.8 169.92 658.8 
C 167.628645 658.8 165.43083 659.710365 163.810597 661.330597 
C 162.190365 662.95083 161.28 665.148645 161.28 667.44 
C 161.28 669.731355 162.190365 671.92917 163.810597 673.549403 
C 165.43083 675.169635 167.628645 676.08 169.92 676.08 
z
" clip-path="url(#p7ecca4b036)" style="fill: #1e88e5"/>
   </g>
   <g id="patch_15">
    <path d="M 190.08 676.08 
C 192.371355 676.08 194.56917 675.169635 196.189403 673.549403 
C 197.809635 671.92917 198.72 669.731355 198.72 667.44 
C 198.72 665.148645 197.809635 662.95083 196.189403 661.330597 
C 194.56917 659.710365 192.371355 658.8 190.08 658.8 
C 187.788645 658.8 185.59083 659.710365 183.970597 661.330597 
C 182.350365 662.95083 181.44 665.148645 181.44 667.44 
C 181.44 669.731355 182.350365 671.92917 183.970597 673.549403 
C 185.59083 675.169635 187.788645 676.08 190.08 676.08 
z
" clip-path="url(#p7ecca4b036)" style="fill: #1e88e5"/>
   </g>
   <g id="patch_16">
    <path d="M 210.24 676.08 
C 212.531355 676.08 214.72917 675.169635 216.349403 673.549403 
C 217.969635 671.92917 218.88 669.731355 218.88 667.44 
C 218.88 665.148645 217.969635 662.95083 216.349403 661.330597 
C 214.72917 659.710365 212.531355 658.8 210.24 658.8 
C 207.948645 658.8 205.75083 659.710365 204.130597 661.330597 
C 202.510365 662.95083 201.6 665.148645 201.6 667.44 
C 201.6 669.731355 202.510365 671.92917 204.130597 673.549403 
C 205.75083 675.169635 207.948645 676.08 210.24 676.08 
z
" clip-path="url(#p7ecca4b036)" style="fill: #1e88e5"/>
   </g>
   <g id="patch_17">
    <path d="M 230.4 676.08 
C 232.691355 676.08 234.88917 675.169635 236.509403 673.549403 
C 238.129635 671.92917 239.04 669.731355 239.04 667.44 
C 239.04 665.148645 238.129635 662.95083 236.509403 661.330597 
C 234.88917 659.710365 232.691355 658.8 230.4 658.8 
C 228.108645 658.8 225.91083 659.710365 224.290597 661.330597 
C 222.670365 662.95083 221.76 665.148645 221.76 667.44 
C 221.76 669.731355 222.670365 671.92917 224.290597 673.549403 
C 225.91083 675.169635 228.108645 676.08 230.4 676.08 
z
" clip-path="url(#p7ecca4b036)" style="fill: #1e88e5"/>
   </g>
   <g id="patch_18">
    <path d="M 250.56 676.08 
C 252.851355 676.08 255.04917 675.169635 256.669403 673.549403 
C 258.289635 671.92917 259.2 669.731355 259.2 667.44 
C 259.2 665.148645 258.289635 662.95083 256.669403 661.330597 
C 255.04917 659.710365 252.851355 658.8 250.56 658.8 
C 248.268645 658.8 246.07083 659.710365 244.450597 661.330597 
C 242.830365 662.95083 241.92 665.148645 241.92 667.44 
C 241.92 669.731355 242.830365 671.92917 244.450597 673.549403 
C 246.07083 675.169635 248.268645 676.08 250.56 676.08 
z
" clip-path="url(#p7ecca4b036)" style="fill: #1e88e5"/>
   </g>
   <g id="patch_19">
    <path d="M 129.6 762.48 
C 131.891355 762.48 134.08917 761.569635 135.709403 759.949403 
C 137.329635 758.32917 138.24 756.131355 138.24 753.84 
C 138.24 751.548645 137.329635 749.35083 135.709403 747.730597 
C 134.08917 746.110365 131.891355 745.2 129.6 745.2 
C 127.308645 745.2 125.11083 746.110365 123.490597 747.730597 
C 121.870365 749.35083 120.96 751.548645 120.96 753.84 
C 120.96 756.131355 121.870365 758.32917 123.490597 759.949403 
C 125.11083 761.569635 127.308645 762.48 129.6 762.48 
z
" clip-path="url(#p7ecca4b036)" style="fill: #1e88e5"/>
   </g>
   <g id="patch_20">
    <path d="M 149.76 762.48 
C 152.051355 762.48 154.24917 761.569635 155.869403 759.949403 
C 157.489635 758.32917 158.4 756.131355 158.4 753.84 
C 158.4 751.548645 157.489635 749.35083 155.869403 747.730597 
C 154.24917 746.110365 152.051355 745.2 149.76 745.2 
C 147.468645 745.2 145.27083 746.110365 143.650597 747.730597 
C 142.030365 749.35083 141.12 751.548645 141.12 753.84 
C 141.12 756.131355 142.030365 758.32917 143.650597 759.949403 
C 145.27083 761.569635 147.468645 762.48 149.76 762.48 
z
" clip-path="url(#p7ecca4b036)" style="fill: #1e88e5"/>
   </g>
   <g id="patch_21">
    <path d="M 169.92 762.48 
C 172.211355 762.48 174.40917 761.569635 176.029403 759.949403 
C 177.649635 758.32917 178.56 756.131355 178.56 753.84 
C 178.56 751.548645 177.649635 749.35083 176.029403 747.730597 
C 174.40917 746.110365 172.211355 745.2 169.92 745.2 
C 167.628645 745.2 165.43083 746.110365 163.810597 747.730597 
C 162.190365 749.35083 161.28 751.548645 161.28 753.84 
C 161.28 756.131355 162.190365 758.32917 163.810597 759.949403 
C 165.43083 761.569635 167.628645 762.48 169.92 762.48 
z
" clip-path="url(#p7ecca4b036)" style="fill: #1e88e5"/>
   </g>
   <g id="patch_22">
    <path d="M 190.08 762.48 
C 192.371355 762.48 194.56917 761.569635 196.189403 759.949403 
C 197.809635 758.32917 198.72 756.131355 198.72 753.84 
C 198.72 751.548645 197.809635 749.35083 196.189403 747.730597 
C 194.56917 746.110365 192.371355 745.2 190.08 745.2 
C 187.788645 745.2 185.59083 746.110365 183.970597 747.730597 
C 182.350365 749.35083 181.44 751.548645 181.44 753.84 
C 181.44 756.131355 182.350365 758.32917 183.970597 759.949403 
C 185.59083 761.569635 187.788645 762.48 190.08 762.48 
z
" clip-path="url(#p7ecca4b036)" style="fill: #1e88e5"/>
   </g>
   <g id="patch_23">
    <path d="M 210.24 762.48 
C 212.531355 762.48 214.72917 761.569635 216.349403 759.949403 
C 217.969635 758.32917 218.88 756.131355 218.88 753.84 
C 218.88 751.548645 217.969635 749.35083 216.349403 747.730597 
C 214.72917 746.110365 212.531355 745.2 210.24 745.2 
C 207.948645 745.2 205.75083 746.110365 204.130597 747.730597 
C 202.510365 749.35083 201.6 751.548645 201.6 753.84 
C 201.6 756.131355 202.510365 758.32917 204.130597 759.949403 
C 205.75083 761.569635 207.948645 762.48 210.24 762.48 
z
" clip-path="url(#p7ecca4b036)" style="fill: #1e88e5"/>
   </g>
   <g id="patch_24">
    <path d="M 230.4 762.48 
C 232.691355 762.48 234.88917 761.569635 236.509403 759.949403 
C 238.129635 758.32917 239.04 756.131355 239.04 753.84 
C 239.04 751.548645 238.129635 749.35083 236.509403 747.730597 
C 234.88917 746.110365 232.691355 745.2 230.4 745.2 
C 228.108645 745.2 225.91083 746.110365 224.290597 747.730597 
C 222.670365 749.35083 221.76 751.548645 221.76 753.84 
C 221.76 756.131355 222.670365 758.32917 224.290597 759.949403 
C 225.91083 761.569635 228.108645 762.48 230.4 762.48 
z
" clip-path="url(#p7ecca4b036)" style="fill: #1e88e5"/>
   </g>
   <g id="patch_25">
    <path d="M 250.56 762.48 
C 252.851355 762.48 255.04917 761.569635 256.669403 759.949403 
C 258.289635 758.32917 259.2 756.131355 259.2 753.84 
C 259.2 751.548645 258.289635 749.35083 256.669403 747.730597 
C 255.04917 746.110365 252.851355 745.2 250.56 745.2 
C 248.268645 745.2 246.07083 746.110365 244.450597 747.730597 
C 242.830365 749.35083 241.92 751.548645 241.92 753.84 
C 241.92 756.131355 242.830365 758.32917 244.450597 759.949403 
C 246.07083 761.569635 248.268645 762.48 250.56 762.48 
z
" clip-path="url(#p7ecca4b036)" style="fill: #1e88e5"/>
   </g>
   <g id="patch_26">
    <path d="M 270.72 762.48 
C 273.011355 762.48 275.20917 761.569635 276.829403 759.949403 
C 278.449635 758.32917 279.36 756.131355 279.36 753.84 
C 279.36 751.548645 278.449635 749.35083 276.829403 747.730597 
C 275.20917 746.110365 273.011355 745.2 270.72 745.2 
C 268.428645 745.2 266.23083 746.110365 264.610597 747.730597 
C 262.990365 749.35083 262.08 751.548645 262.08 753.84 
C 262.08 756.131355 262.990365 758.32917 264.610597 759.949403 
C 266.23083 761.569635 268.428645 762.48 270.72 762.48 
z
" clip-path="url(#p7ecca4b036)" style="fill: #1e88e5"/>
   </g>
   <g id="patch_27">
    <path d="M 290.88 762.48 
C 293.171355 762.48 295.36917 761.569635 296.989403 759.949403 
C 298.609635 758.32917 299.52 756.131355 299.52 753.84 
C 299.52 751.548645 298.609635 749.35083 296.989403 747.730597 
C 295.36917 746.110365 293.171355 745.2 290.88 745.2 
C 288.588645 745.2 286.39083 746.110365 284.770597 747.730597 
C 283.150365 749.35083 282.24 751.548645 282.24 753.84 
C 282.24 756.131355 283.150365 758.32917 284.770597 759.949403 
C 286.39083 761.569635 288.588645 762.48 290.88 762.48 
z
" clip-path="url(#p7ecca4b036)" style="fill: #1e88e5"/>
   </g>
   <g id="patch_28">
    <path d="M 311.04 762.48 
C 313.331355 762.48 315.52917 761.569635 317.149403 759.949403 
C 318.769635 758.32917 319.68 756.131355 319.68 753.84 
C 319.68 751.548645 318.769635 749.35083 317.149403 747.730597 
C 315.52917 746.110365 313.331355 745.2 311.04 745.2 
C 308.748645 745.2 306.55083 746.110365 304.930597 747.730597 
C 303.310365 749.35083 302.4 751.548645 302.4 753.84 
C 302.4 756.131355 303.310365 758.32917 304.930597 759.949403 
C 306.55083 761.569635 308.748645 762.48 311.04 762.48 
z
" clip-path="url(#p7ecca4b036)" style="fill: #1e88e5"/>
   </g>
   <g id="patch_29">
    <path d="M 331.2 762.48 
C 333.491355 762.48 335.68917 761.569635 337.309403 759.949403 
C 338.929635 758.32917 339.84 756.131355 339.84 753.84 
C 339.84 751.548645 338.929635 749.35083 337.309403 747.730597 
C 335.68917 746.110365 333.491355 745.2 331.2 745.2 
C 328.908645 745.2 326.71083 746.110365 325.090597 747.730597 
C 323.470365 749.35083 322.56 751.548645 322.56 753.84 
C 322.56 756.131355 323.470365 758.32917 325.090597 759.949403 
C 326.71083 761.569635 328.908645 762.48 331.2 762.48 
z
" clip-path="url(#p7ecca4b036)" style="fill: #1e88e5"/>
   </g>
   <g id="patch_30">
    <path d="M 871.907828 620.874099 
C 874.199183 620.874099 876.396998 619.963734 878.017231 618.343501 
C 879.637463 616.723269 880.547828 614.525454 880.547828 612.234099 
C 880.547828 609.942744 879.637463 607.744929 878.017231 606.124696 
C 876.396998 604.504464 874.199183 603.594099 871.907828 603.594099 
C 869.616474 603.594099 867.418658 604.504464 865.798426 606.124696 
C 864.178193 607.744929 863.267828 609.942744 863.267828 612.234099 
C 863.267828 614.525454 864.178193 616.723269 865.798426 618.343501 
C 867.418658 619.963734 869.616474 620.874099 871.907828 620.874099 
z
" clip-path="url(#p7ecca4b036)" style="fill: #c2185b"/>
   </g>
   <g id="patch_31">
    <path d="M 933.812772 528.810099 
C 936.104127 528.810099 938.301942 527.899735 939.922175 526.279502 
C 941.542408 524.65927 942.452772 522.461454 942.452772 520.170099 
C 942.452772 517.878745 941.542408 515.680929 939.922175 514.060697 
C 938.301942 512.440464 936.104127 511.530099 933.812772 511.530099 
C 931.521418 511.530099 929.323602 512.440464 927.70337 514.060697 
C 926.083137 515.680929 925.172772 517.878745 925.172772 520.170099 
C 925.172772 522.461454 926.083137 524.65927 927.70337 526.279502 
C 929.323602 527.899735 931.521418 528.810099 933.812772 528.810099 
z
" clip-path="url(#p7ecca4b036)" style="fill: #c2185b"/>
   </g>
   <g id="patch_32">
    <path d="M 894.757476 534.110372 
C 897.048831 534.110372 899.246646 533.200007 900.866879 531.579774 
C 902.487111 529.959542 903.397476 527.761727 903.397476 525.470372 
C 903.397476 523.179017 902.487111 520.981202 900.866879 519.360969 
C 899.246646 517.740737 897.048831 516.830372 894.757476 516.830372 
C 892.466121 516.830372 890.268306 517.740737 888.648073 519.360969 
C 887.027841 520.981202 886.117476 523.179017 886.117476 525.470372 
C 886.117476 527.761727 887.027841 529.959542 888.648073 531.579774 
C 890.268306 533.200007 892.466121 534.110372 894.757476 534.110372 
z
" clip-path="url(#p7ecca4b036)" style="fill: #c2185b"/>
   </g>
   <g id="patch_33">
    <path d="M 903.760019 564.898582 
C 906.051374 564.898582 908.249189 563.988217 909.869422 562.367985 
C 911.489654 560.747752 912.400019 558.549937 912.400019 556.258582 
C 912.400019 553.967227 911.489654 551.769412 909.869422 550.149179 
C 908.249189 548.528947 906.051374 547.618582 903.760019 547.618582 
C 901.468664 547.618582 899.270849 548.528947 897.650616 550.149179 
C 896.030384 551.769412 895.120019 553.967227 895.120019 556.258582 
C 895.120019 558.549937 896.030384 560.747752 897.650616 562.367985 
C 899.270849 563.988217 901.468664 564.898582 903.760019 564.898582 
z
" clip-path="url(#p7ecca4b036)" style="fill: #c2185b"/>
   </g>
   <g id="patch_34">
    <path d="M 898.181539 584.326111 
C 900.472894 584.326111 902.670709 583.415746 904.290942 581.795514 
C 905.911174 580.175281 906.821539 577.977466 906.821539 575.686111 
C 906.821539 573.394757 905.911174 571.196941 904.290942 569.576709 
C 902.670709 567.956476 900.472894 567.046111 898.181539 567.046111 
C 895.890184 567.046111 893.692369 567.956476 892.072137 569.576709 
C 890.451904 571.196941 889.541539 573.394757 889.541539 575.686111 
C 889.541539 577.977466 890.451904 580.175281 892.072137 581.795514 
C 893.692369 583.415746 895.890184 584.326111 898.181539 584.326111 
z
" clip-path="url(#p7ecca4b036)" style="fill: #c2185b"/>
   </g>
   <g id="patch_35">
    <path d="M 866.226036 625.888151 
C 868.517391 625.888151 870.715206 624.977786 872.335439 623.357553 
C 873.955671 621.737321 874.866036 619.539506 874.866036 617.248151 
C 874.866036 614.956796 873.955671 612.758981 872.335439 611.138748 
C 870.715206 609.518516 868.517391 608.608151 866.226036 608.608151 
C 863.934681 608.608151 861.736866 609.518516 860.116634 611.138748 
C 858.496401 612.758981 857.586036 614.956796 857.586036 617.248151 
C 857.586036 619.539506 858.496401 621.737321 860.116634 623.357553 
C 861.736866 624.977786 863.934681 625.888151 866.226036 625.888151 
z
" clip-path="url(#p7ecca4b036)" style="fill: #c2185b"/>
   </g>
   <g id="patch_36">
    <path d="M 882.944001 548.756358 
C 885.235356 548.756358 887.433171 547.845993 889.053403 546.22576 
C 890.673636 544.605528 891.584001 542.407713 891.584001 540.116358 
C 891.584001 537.825003 890.673636 535.627188 889.053403 534.006955 
C 887.433171 532.386723 885.235356 531.476358 882.944001 531.476358 
C 880.652646 531.476358 878.454831 532.386723 876.834598 534.006955 
C 875.214366 535.627188 874.304001 537.825003 874.304001 540.116358 
C 874.304001 542.407713 875.214366 544.605528 876.834598 546.22576 
C 878.454831 547.845993 880.652646 548.756358 882.944001 548.756358 
z
" clip-path="url(#p7ecca4b036)" style="fill: #c2185b"/>
   </g>
   <g id="patch_37">
    <path d="M 1090.999567 571.421029 
C 1093.290922 571.421029 1095.488737 570.510664 1097.10897 568.890431 
C 1098.729202 567.270199 1099.639567 565.072383 1099.639567 562.781029 
C 1099.639567 560.489674 1098.729202 558.291859 1097.10897 556.671626 
C 1095.488737 555.051393 1093.290922 554.141029 1090.999567 554.141029 
C 1088.708212 554.141029 1086.510397 555.051393 1084.890165 556.671626 
C 1083.269932 558.291859 1082.359567 560.489674 1082.359567 562.781029 
C 1082.359567 565.072383 1083.269932 567.270199 1084.890165 568.890431 
C 1086.510397 570.510664 1088.708212 571.421029 1090.999567 571.421029 
z
" clip-path="url(#p7ecca4b036)" style="fill: #c2185b"/>
   </g>
   <g id="patch_38">
    <path d="M 1093.872634 613.385778 
C 1096.163988 613.385778 1098.361804 612.475413 1099.982036 610.855181 
C 1101.602269 609.234948 1102.512634 607.037133 1102.512634 604.745778 
C 1102.512634 602.454423 1101.602269 600.256608 1099.982036 598.636375 
C 1098.361804 597.016143 1096.163988 596.105778 1093.872634 596.105778 
C 1091.581279 596.105778 1089.383463 597.016143 1087.763231 598.636375 
C 1086.142998 600.256608 1085.232634 602.454423 1085.232634 604.745778 
C 1085.232634 607.037133 1086.142998 609.234948 1087.763231 610.855181 
C 1089.383463 612.475413 1091.581279 613.385778 1093.872634 613.385778 
z
" clip-path="url(#p7ecca4b036)" style="fill: #c2185b"/>
   </g>
   <g id="patch_39">
    <path d="M 1096.79986 614.104525 
C 1099.091215 614.104525 1101.28903 613.19416 1102.909263 611.573927 
C 1104.529495 609.953695 1105.43986 607.75588 1105.43986 605.464525 
C 1105.43986 603.17317 1104.529495 600.975355 1102.909263 599.355122 
C 1101.28903 597.73489 1099.091215 596.824525 1096.79986 596.824525 
C 1094.508506 596.824525 1092.31069 597.73489 1090.690458 599.355122 
C 1089.070225 600.975355 1088.15986 603.17317 1088.15986 605.464525 
C 1088.15986 607.75588 1089.070225 609.953695 1090.690458 611.573927 
C 1092.31069 613.19416 1094.508506 614.104525 1096.79986 614.104525 
z
" clip-path="url(#p7ecca4b036)" style="fill: #c2185b"/>
   </g>
   <g id="patch_40">
    <path d="M 1155.987899 496.510279 
C 1158.279254 496.510279 1160.477069 495.599914 1162.097302 493.979681 
C 1163.717534 492.359449 1164.627899 490.161633 1164.627899 487.870279 
C 1164.627899 485.578924 1163.717534 483.381108 1162.097302 481.760876 
C 1160.477069 480.140643 1158.279254 479.230279 1155.987899 479.230279 
C 1153.696544 479.230279 1151.498729 480.140643 1149.878497 481.760876 
C 1148.258264 483.381108 1147.347899 485.578924 1147.347899 487.870279 
C 1147.347899 490.161633 1148.258264 492.359449 1149.878497 493.979681 
C 1151.498729 495.599914 1153.696544 496.510279 1155.987899 496.510279 
z
" clip-path="url(#p7ecca4b036)" style="fill: #c2185b"/>
   </g>
   <g id="patch_41">
    <path d="M 1141.509839 594.82295 
C 1143.801194 594.82295 1145.999009 593.912585 1147.619242 592.292353 
C 1149.239474 590.67212 1150.149839 588.474305 1150.149839 586.18295 
C 1150.149839 583.891595 1149.239474 581.69378 1147.619242 580.073548 
C 1145.999009 578.453315 1143.801194 577.54295 1141.509839 577.54295 
C 1139.218485 577.54295 1137.020669 578.453315 1135.400437 580.073548 
C 1133.780204 581.69378 1132.869839 583.891595 1132.869839 586.18295 
C 1132.869839 588.474305 1133.780204 590.67212 1135.400437 592.292353 
C 1137.020669 593.912585 1139.218485 594.82295 1141.509839 594.82295 
z
" clip-path="url(#p7ecca4b036)" style="fill: #c2185b"/>
   </g>
   <g id="patch_42">
    <path d="M 1104.314954 594.743707 
C 1106.606308 594.743707 1108.804124 593.833342 1110.424356 592.21311 
C 1112.044589 590.592877 1112.954954 588.395062 1112.954954 586.103707 
C 1112.954954 583.812352 1112.044589 581.614537 1110.424356 579.994305 
C 1108.804124 578.374072 1106.606308 577.463707 1104.314954 577.463707 
C 1102.023599 577.463707 1099.825784 578.374072 1098.205551 579.994305 
C 1096.585318 581.614537 1095.674954 583.812352 1095.674954 586.103707 
C 1095.674954 588.395062 1096.585318 590.592877 1098.205551 592.21311 
C 1099.825784 593.833342 1102.023599 594.743707 1104.314954 594.743707 
z
" clip-path="url(#p7ecca4b036)" style="fill: #c2185b"/>
   </g>
   <g id="patch_43">
    <path d="M 1327.016785 540.2371 
C 1329.308139 540.2371 1331.505955 539.326735 1333.126187 537.706503 
C 1334.74642 536.08627 1335.656785 533.888455 1335.656785 531.5971 
C 1335.656785 529.305746 1334.74642 527.10793 1333.126187 525.487698 
C 1331.505955 523.867465 1329.308139 522.9571 1327.016785 522.9571 
C 1324.72543 522.9571 1322.527615 523.867465 1320.907382 525.487698 
C 1319.28715 527.10793 1318.376785 529.305746 1318.376785 531.5971 
C 1318.376785 533.888455 1319.28715 536.08627 1320.907382 537.706503 
C 1322.527615 539.326735 1324.72543 540.2371 1327.016785 540.2371 
z
" clip-path="url(#p7ecca4b036)" style="fill: #c2185b"/>
   </g>
   <g id="patch_44">
    <path d="M 1315.092378 497.673427 
C 1317.383732 497.673427 1319.581548 496.763062 1321.20178 495.142829 
C 1322.822013 493.522597 1323.732378 491.324781 1323.732378 489.033427 
C 1323.732378 486.742072 1322.822013 484.544256 1321.20178 482.924024 
C 1319.581548 481.303791 1317.383732 480.393427 1315.092378 480.393427 
C 1312.801023 480.393427 1310.603208 481.303791 1308.982975 482.924024 
C 1307.362742 484.544256 1306.452378 486.742072 1306.452378 489.033427 
C 1306.452378 491.324781 1307.362742 493.522597 1308.982975 495.142829 
C 1310.603208 496.763062 1312.801023 497.673427 1315.092378 497.673427 
z
" clip-path="url(#p7ecca4b036)" style="fill: #c2185b"/>
   </g>
   <g id="patch_45">
    <path d="M 1319.84128 554.133692 
C 1322.132635 554.133692 1324.33045 553.223327 1325.950682 551.603095 
C 1327.570915 549.982862 1328.48128 547.785047 1328.48128 545.493692 
C 1328.48128 543.202338 1327.570915 541.004522 1325.950682 539.38429 
C 1324.33045 537.764057 1322.132635 536.853692 1319.84128 536.853692 
C 1317.549925 536.853692 1315.35211 537.764057 1313.731877 539.38429 
C 1312.111645 541.004522 1311.20128 543.202338 1311.20128 545.493692 
C 1311.20128 547.785047 1312.111645 549.982862 1313.731877 551.603095 
C 1315.35211 553.223327 1317.549925 554.133692 1319.84128 554.133692 
z
" clip-path="url(#p7ecca4b036)" style="fill: #c2185b"/>
   </g>
   <g id="patch_46">
    <path d="M 1388.56709 561.669201 
C 1390.858445 561.669201 1393.056261 560.758837 1394.676493 559.138604 
C 1396.296726 557.518372 1397.20709 555.320556 1397.20709 553.029201 
C 1397.20709 550.737847 1396.296726 548.540031 1394.676493 546.919799 
C 1393.056261 545.299566 1390.858445 544.389201 1388.56709 544.389201 
C 1386.275736 544.389201 1384.07792 545.299566 1382.457688 546.919799 
C 1380.837455 548.540031 1379.92709 550.737847 1379.92709 553.029201 
C 1379.92709 555.320556 1380.837455 557.518372 1382.457688 559.138604 
C 1384.07792 560.758837 1386.275736 561.669201 1388.56709 561.669201 
z
" clip-path="url(#p7ecca4b036)" style="fill: #c2185b"/>
   </g>
   <g id="patch_47">
    <path d="M 1316.584945 484.196436 
C 1318.876299 484.196436 1321.074115 483.286071 1322.694347 481.665839 
C 1324.31458 480.045606 1325.224945 477.847791 1325.224945 475.556436 
C 1325.224945 473.265081 1324.31458 471.067266 1322.694347 469.447034 
C 1321.074115 467.826801 1318.876299 466.916436 1316.584945 466.916436 
C 1314.29359 466.916436 1312.095774 467.826801 1310.475542 469.447034 
C 1308.855309 471.067266 1307.944945 473.265081 1307.944945 475.556436 
C 1307.944945 477.847791 1308.855309 480.045606 1310.475542 481.665839 
C 1312.095774 483.286071 1314.29359 484.196436 1316.584945 484.196436 
z
" clip-path="url(#p7ecca4b036)" style="fill: #c2185b"/>
   </g>
   <g id="patch_48">
    <path d="M 1366.624263 517.919976 
C 1368.915618 517.919976 1371.113433 517.009611 1372.733665 515.389378 
C 1374.353898 513.769146 1375.264263 511.57133 1375.264263 509.279976 
C 1375.264263 506.988621 1374.353898 504.790806 1372.733665 503.170573 
C 1371.113433 501.55034 1368.915618 500.639976 1366.624263 500.639976 
C 1364.332908 500.639976 1362.135093 501.55034 1360.51486 503.170573 
C 1358.894628 504.790806 1357.984263 506.988621 1357.984263 509.279976 
C 1357.984263 511.57133 1358.894628 513.769146 1360.51486 515.389378 
C 1362.135093 517.009611 1364.332908 517.919976 1366.624263 517.919976 
z
" clip-path="url(#p7ecca4b036)" style="fill: #c2185b"/>
   </g>
   <g id="patch_49">
    <path d="M 1581.235781 556.68021 
C 1583.527136 556.68021 1585.724951 555.769845 1587.345184 554.149612 
C 1588.965416 552.52938 1589.875781 550.331564 1589.875781 548.04021 
C 1589.875781 545.748855 1588.965416 543.55104 1587.345184 541.930807 
C 1585.724951 540.310575 1583.527136 539.40021 1581.235781 539.40021 
C 1578.944426 539.40021 1576.746611 540.310575 1575.126379 541.930807 
C 1573.506146 543.55104 1572.595781 545.748855 1572.595781 548.04021 
C 1572.595781 550.331564 1573.506146 552.52938 1575.126379 554.149612 
C 1576.746611 555.769845 1578.944426 556.68021 1581.235781 556.68021 
z
" clip-path="url(#p7ecca4b036)" style="fill: #c2185b"/>
   </g>
   <g id="patch_50">
    <path d="M 1535.38749 523.649996 
C 1537.678845 523.649996 1539.876661 522.739631 1541.496893 521.119399 
C 1543.117126 519.499166 1544.02749 517.301351 1544.02749 515.009996 
C 1544.02749 512.718641 1543.117126 510.520826 1541.496893 508.900593 
C 1539.876661 507.280361 1537.678845 506.369996 1535.38749 506.369996 
C 1533.096136 506.369996 1530.89832 507.280361 1529.278088 508.900593 
C 1527.657855 510.520826 1526.74749 512.718641 1526.74749 515.009996 
C 1526.74749 517.301351 1527.657855 519.499166 1529.278088 521.119399 
C 1530.89832 522.739631 1533.096136 523.649996 1535.38749 523.649996 
z
" clip-path="url(#p7ecca4b036)" style="fill: #c2185b"/>
   </g>
   <g id="patch_51">
    <path d="M 1595.13084 588.326638 
C 1597.422195 588.326638 1599.62001 587.416273 1601.240243 585.796041 
C 1602.860475 584.175808 1603.77084 581.977993 1603.77084 579.686638 
C 1603.77084 577.395283 1602.860475 575.197468 1601.240243 573.577235 
C 1599.62001 571.957003 1597.422195 571.046638 1595.13084 571.046638 
C 1592.839486 571.046638 1590.64167 571.957003 1589.021438 573.577235 
C 1587.401205 575.197468 1586.49084 577.395283 1586.49084 579.686638 
C 1586.49084 581.977993 1587.401205 584.175808 1589.021438 585.796041 
C 1590.64167 587.416273 1592.839486 588.326638 1595.13084 588.326638 
z
" clip-path="url(#p7ecca4b036)" style="fill: #c2185b"/>
   </g>
   <g id="patch_52">
    <path d="M 1521.071161 563.200954 
C 1523.362516 563.200954 1525.560331 562.290589 1527.180564 560.670356 
C 1528.800796 559.050124 1529.711161 556.852308 1529.711161 554.560954 
C 1529.711161 552.269599 1528.800796 550.071784 1527.180564 548.451551 
C 1525.560331 546.831318 1523.362516 545.920954 1521.071161 545.920954 
C 1518.779806 545.920954 1516.581991 546.831318 1514.961758 548.451551 
C 1513.341526 550.071784 1512.431161 552.269599 1512.431161 554.560954 
C 1512.431161 556.852308 1513.341526 559.050124 1514.961758 560.670356 
C 1516.581991 562.290589 1518.779806 563.200954 1521.071161 563.200954 
z
" clip-path="url(#p7ecca4b036)" style="fill: #c2185b"/>
   </g>
   <g id="patch_53">
    <path d="M 1564.673879 508.031117 
C 1566.965234 508.031117 1569.163049 507.120752 1570.783282 505.50052 
C 1572.403514 503.880287 1573.313879 501.682472 1573.313879 499.391117 
C 1573.313879 497.099762 1572.403514 494.901947 1570.783282 493.281714 
C 1569.163049 491.661482 1566.965234 490.751117 1564.673879 490.751117 
C 1562.382525 490.751117 1560.184709 491.661482 1558.564477 493.281714 
C 1556.944244 494.901947 1556.033879 497.099762 1556.033879 499.391117 
C 1556.033879 501.682472 1556.944244 503.880287 1558.564477 505.50052 
C 1560.184709 507.120752 1562.382525 508.031117 1564.673879 508.031117 
z
" clip-path="url(#p7ecca4b036)" style="fill: #c2185b"/>
   </g>
   <g id="patch_54">
    <path d="M 1580.402271 477.531222 
C 1582.693626 477.531222 1584.891441 476.620857 1586.511673 475.000624 
C 1588.131906 473.380392 1589.042271 471.182576 1589.042271 468.891222 
C 1589.042271 466.599867 1588.131906 464.402051 1586.511673 462.781819 
C 1584.891441 461.161586 1582.693626 460.251222 1580.402271 460.251222 
C 1578.110916 460.251222 1575.913101 461.161586 1574.292868 462.781819 
C 1572.672636 464.402051 1571.762271 466.599867 1571.762271 468.891222 
C 1571.762271 471.182576 1572.672636 473.380392 1574.292868 475.000624 
C 1575.913101 476.620857 1578.110916 477.531222 1580.402271 477.531222 
z
" clip-path="url(#p7ecca4b036)" style="fill: #c2185b"/>
   </g>
   <g id="patch_55">
    <path d="M 1526.388138 582.019554 
C 1528.679493 582.019554 1530.877308 581.109189 1532.49754 579.488957 
C 1534.117773 577.868724 1535.028138 575.670909 1535.028138 573.379554 
C 1535.028138 571.0882 1534.117773 568.890384 1532.49754 567.270152 
C 1530.877308 565.649919 1528.679493 564.739554 1526.388138 564.739554 
C 1524.096783 564.739554 1521.898968 565.649919 1520.278735 567.270152 
C 1518.658503 568.890384 1517.748138 571.0882 1517.748138 573.379554 
C 1517.748138 575.670909 1518.658503 577.868724 1520.278735 579.488957 
C 1521.898968 581.109189 1524.096783 582.019554 1526.388138 582.019554 
z
" clip-path="url(#p7ecca4b036)" style="fill: #c2185b"/>
   </g>
   <g id="patch_56">
    <path d="M 1549.840719 473.885389 
C 1552.132074 473.885389 1554.329889 472.975024 1555.950122 471.354791 
C 1557.570354 469.734559 1558.480719 467.536744 1558.480719 465.245389 
C 1558.480719 462.954034 1557.570354 460.756219 1555.950122 459.135986 
C 1554.329889 457.515754 1552.132074 456.605389 1549.840719 456.605389 
C 1547.549364 456.605389 1545.351549 457.515754 1543.731317 459.135986 
C 1542.111084 460.756219 1541.200719 462.954034 1541.200719 465.245389 
C 1541.200719 467.536744 1542.111084 469.734559 1543.731317 471.354791 
C 1545.351549 472.975024 1547.549364 473.885389 1549.840719 473.885389 
z
" clip-path="url(#p7ecca4b036)" style="fill: #c2185b"/>
   </g>
   <g id="patch_57">
    <path d="M 1548.333781 616.33125 
C 1550.625135 616.33125 1552.822951 615.420886 1554.443183 613.800653 
C 1556.063416 612.180421 1556.973781 609.982605 1556.973781 607.69125 
C 1556.973781 605.399896 1556.063416 603.20208 1554.443183 601.581848 
C 1552.822951 599.961615 1550.625135 599.05125 1548.333781 599.05125 
C 1546.042426 599.05125 1543.84461 599.961615 1542.224378 601.581848 
C 1540.604145 603.20208 1539.693781 605.399896 1539.693781 607.69125 
C 1539.693781 609.982605 1540.604145 612.180421 1542.224378 613.800653 
C 1543.84461 615.420886 1546.042426 616.33125 1548.333781 616.33125 
z
" clip-path="url(#p7ecca4b036)" style="fill: #c2185b"/>
   </g>
   <g id="line2d_1">
    <path d="M 871.907828 612.234099 
L 903.760019 556.258582 
" clip-path="url(#p7ecca4b036)" style="fill: none; stroke: #b71c1c; stroke-opacity: 0.4; stroke-width: 2; stroke-linecap: square"/>
   </g>
   <g id="line2d_2">
    <path d="M 871.907828 612.234099 
L 882.944001 540.116358 
" clip-path="url(#p7ecca4b036)" style="fill: none; stroke: #b71c1c; stroke-opacity: 0.4; stroke-width: 2; stroke-linecap: square"/>
   </g>
   <g id="line2d_3">
    <path d="M 933.812772 520.170099 
L 882.944001 540.116358 
" clip-path="url(#p7ecca4b036)" style="fill: none; stroke: #b71c1c; stroke-opacity: 0.4; stroke-width: 2; stroke-linecap: square"/>
   </g>
   <g id="line2d_4">
    <path d="M 894.757476 525.470372 
L 903.760019 556.258582 
" clip-path="url(#p7ecca4b036)" style="fill: none; stroke: #b71c1c; stroke-opacity: 0.4; stroke-width: 2; stroke-linecap: square"/>
   </g>
   <g id="line2d_5">
    <path d="M 894.757476 525.470372 
L 866.226036 617.248151 
" clip-path="url(#p7ecca4b036)" style="fill: none; stroke: #b71c1c; stroke-opacity: 0.4; stroke-width: 2; stroke-linecap: square"/>
   </g>
   <g id="line2d_6">
    <path d="M 903.760019 556.258582 
L 871.907828 612.234099 
" clip-path="url(#p7ecca4b036)" style="fill: none; stroke: #b71c1c; stroke-opacity: 0.4; stroke-width: 2; stroke-linecap: square"/>
   </g>
   <g id="line2d_7">
    <path d="M 903.760019 556.258582 
L 933.812772 520.170099 
" clip-path="url(#p7ecca4b036)" style="fill: none; stroke: #b71c1c; stroke-opacity: 0.4; stroke-width: 2; stroke-linecap: square"/>
   </g>
   <g id="line2d_8">
    <path d="M 903.760019 556.258582 
L 866.226036 617.248151 
" clip-path="url(#p7ecca4b036)" style="fill: none; stroke: #b71c1c; stroke-opacity: 0.4; stroke-width: 2; stroke-linecap: square"/>
   </g>
   <g id="line2d_9">
    <path d="M 898.181539 575.686111 
L 866.226036 617.248151 
" clip-path="url(#p7ecca4b036)" style="fill: none; stroke: #b71c1c; stroke-opacity: 0.4; stroke-width: 2; stroke-linecap: square"/>
   </g>
   <g id="line2d_10">
    <path d="M 866.226036 617.248151 
L 933.812772 520.170099 
" clip-path="url(#p7ecca4b036)" style="fill: none; stroke: #b71c1c; stroke-opacity: 0.4; stroke-width: 2; stroke-linecap: square"/>
   </g>
   <g id="line2d_11">
    <path d="M 882.944001 540.116358 
L 871.907828 612.234099 
" clip-path="url(#p7ecca4b036)" style="fill: none; stroke: #b71c1c; stroke-opacity: 0.4; stroke-width: 2; stroke-linecap: square"/>
   </g>
   <g id="line2d_12">
    <path d="M 1093.872634 604.745778 
L 1096.79986 605.464525 
" clip-path="url(#p7ecca4b036)" style="fill: none; stroke: #b71c1c; stroke-opacity: 0.4; stroke-width: 2; stroke-linecap: square"/>
   </g>
   <g id="line2d_13">
    <path d="M 1096.79986 605.464525 
L 1093.872634 604.745778 
" clip-path="url(#p7ecca4b036)" style="fill: none; stroke: #b71c1c; stroke-opacity: 0.4; stroke-width: 2; stroke-linecap: square"/>
   </g>
   <g id="line2d_14">
    <path d="M 1141.509839 586.18295 
L 1155.987899 487.870279 
" clip-path="url(#p7ecca4b036)" style="fill: none; stroke: #b71c1c; stroke-opacity: 0.4; stroke-width: 2; stroke-linecap: square"/>
   </g>
   <g id="line2d_15">
    <path d="M 1327.016785 531.5971 
L 1315.092378 489.033427 
" clip-path="url(#p7ecca4b036)" style="fill: none; stroke: #b71c1c; stroke-opacity: 0.4; stroke-width: 2; stroke-linecap: square"/>
   </g>
   <g id="line2d_16">
    <path d="M 1327.016785 531.5971 
L 1388.56709 553.029201 
" clip-path="url(#p7ecca4b036)" style="fill: none; stroke: #b71c1c; stroke-opacity: 0.4; stroke-width: 2; stroke-linecap: square"/>
   </g>
   <g id="line2d_17">
    <path d="M 1315.092378 489.033427 
L 1316.584945 475.556436 
" clip-path="url(#p7ecca4b036)" style="fill: none; stroke: #b71c1c; stroke-opacity: 0.4; stroke-width: 2; stroke-linecap: square"/>
   </g>
   <g id="line2d_18">
    <path d="M 1319.84128 545.493692 
L 1327.016785 531.5971 
" clip-path="url(#p7ecca4b036)" style="fill: none; stroke: #b71c1c; stroke-opacity: 0.4; stroke-width: 2; stroke-linecap: square"/>
   </g>
   <g id="line2d_19">
    <path d="M 1319.84128 545.493692 
L 1315.092378 489.033427 
" clip-path="url(#p7ecca4b036)" style="fill: none; stroke: #b71c1c; stroke-opacity: 0.4; stroke-width: 2; stroke-linecap: square"/>
   </g>
   <g id="line2d_20">
    <path d="M 1319.84128 545.493692 
L 1316.584945 475.556436 
" clip-path="url(#p7ecca4b036)" style="fill: none; stroke: #b71c1c; stroke-opacity: 0.4; stroke-width: 2; stroke-linecap: square"/>
   </g>
   <g id="line2d_21">
    <path d="M 1388.56709 553.029201 
L 1315.092378 489.033427 
" clip-path="url(#p7ecca4b036)" style="fill: none; stroke: #b71c1c; stroke-opacity: 0.4; stroke-width: 2; stroke-linecap: square"/>
   </g>
   <g id="line2d_22">
    <path d="M 1366.624263 509.279976 
L 1327.016785 531.5971 
" clip-path="url(#p7ecca4b036)" style="fill: none; stroke: #b71c1c; stroke-opacity: 0.4; stroke-width: 2; stroke-linecap: square"/>
   </g>
   <g id="line2d_23">
    <path d="M 1581.235781 548.04021 
L 1595.13084 579.686638 
" clip-path="url(#p7ecca4b036)" style="fill: none; stroke: #b71c1c; stroke-opacity: 0.4; stroke-width: 2; stroke-linecap: square"/>
   </g>
   <g id="line2d_24">
    <path d="M 1581.235781 548.04021 
L 1564.673879 499.391117 
" clip-path="url(#p7ecca4b036)" style="fill: none; stroke: #b71c1c; stroke-opacity: 0.4; stroke-width: 2; stroke-linecap: square"/>
   </g>
   <g id="line2d_25">
    <path d="M 1581.235781 548.04021 
L 1526.388138 573.379554 
" clip-path="url(#p7ecca4b036)" style="fill: none; stroke: #b71c1c; stroke-opacity: 0.4; stroke-width: 2; stroke-linecap: square"/>
   </g>
   <g id="line2d_26">
    <path d="M 1535.38749 515.009996 
L 1595.13084 579.686638 
" clip-path="url(#p7ecca4b036)" style="fill: none; stroke: #b71c1c; stroke-opacity: 0.4; stroke-width: 2; stroke-linecap: square"/>
   </g>
   <g id="line2d_27">
    <path d="M 1595.13084 579.686638 
L 1535.38749 515.009996 
" clip-path="url(#p7ecca4b036)" style="fill: none; stroke: #b71c1c; stroke-opacity: 0.4; stroke-width: 2; stroke-linecap: square"/>
   </g>
   <g id="line2d_28">
    <path d="M 1595.13084 579.686638 
L 1526.388138 573.379554 
" clip-path="url(#p7ecca4b036)" style="fill: none; stroke: #b71c1c; stroke-opacity: 0.4; stroke-width: 2; stroke-linecap: square"/>
   </g>
   <g id="line2d_29">
    <path d="M 1564.673879 499.391117 
L 1548.333781 607.69125 
" clip-path="url(#p7ecca4b036)" style="fill: none; stroke: #b71c1c; stroke-opacity: 0.4; stroke-width: 2; stroke-linecap: square"/>
   </g>
   <g id="line2d_30">
    <path d="M 1580.402271 468.891222 
L 1581.235781 548.04021 
" clip-path="url(#p7ecca4b036)" style="fill: none; stroke: #b71c1c; stroke-opacity: 0.4; stroke-width: 2; stroke-linecap: square"/>
   </g>
   <g id="line2d_31">
    <path d="M 1580.402271 468.891222 
L 1535.38749 515.009996 
" clip-path="url(#p7ecca4b036)" style="fill: none; stroke: #b71c1c; stroke-opacity: 0.4; stroke-width: 2; stroke-linecap: square"/>
   </g>
   <g id="line2d_32">
    <path d="M 1580.402271 468.891222 
L 1548.333781 607.69125 
" clip-path="url(#p7ecca4b036)" style="fill: none; stroke: #b71c1c; stroke-opacity: 0.4; stroke-width: 2; stroke-linecap: square"/>
   </g>
   <g id="line2d_33">
    <path d="M 1526.388138 573.379554 
L 1581.235781 548.04021 
" clip-path="url(#p7ecca4b036)" style="fill: none; stroke: #b71c1c; stroke-opacity: 0.4; stroke-width: 2; stroke-linecap: square"/>
   </g>
   <g id="line2d_34">
    <path d="M 1548.333781 607.69125 
L 1581.235781 548.04021 
" clip-path="url(#p7ecca4b036)" style="fill: none; stroke: #b71c1c; stroke-opacity: 0.4; stroke-width: 2; stroke-linecap: square"/>
   </g>
   <g id="line2d_35">
    <path d="M 1548.333781 607.69125 
L 1595.13084 579.686638 
" clip-path="url(#p7ecca4b036)" style="fill: none; stroke: #b71c1c; stroke-opacity: 0.4; stroke-width: 2; stroke-linecap: square"/>
   </g>
   <g id="line2d_36">
    <path d="M 1548.333781 607.69125 
L 1580.402271 468.891222 
" clip-path="url(#p7ecca4b036)" style="fill: none; stroke: #b71c1c; stroke-opacity: 0.4; stroke-width: 2; stroke-linecap: square"/>
   </g>
   <g id="line2d_37">
    <path d="M 941.76 534.6 
L 1080 510.615779 
" clip-path="url(#p7ecca4b036)" style="fill: none; stroke: #b0bec5; stroke-opacity: 0.6; stroke-width: 2; stroke-linecap: square"/>
   </g>
   <g id="line2d_38">
    <path d="M 1166.4 534.6 
L 1304.64 511.647668 
" clip-path="url(#p7ecca4b036)" style="fill: none; stroke: #b0bec5; stroke-opacity: 0.6; stroke-width: 2; stroke-linecap: square"/>
   </g>
   <g id="line2d_39">
    <path d="M 1391.04 534.6 
L 1512 556.122946 
" clip-path="url(#p7ecca4b036)" style="fill: none; stroke: #b0bec5; stroke-opacity: 0.6; stroke-width: 2; stroke-linecap: square"/>
   </g>
   <g id="line2d_40">
    <path d="M 178.56 408.24 
L 833.76 473.36039 
" clip-path="url(#p7ecca4b036)" style="fill: none; stroke: #b0bec5; stroke-opacity: 0.7; stroke-width: 2; stroke-linecap: square"/>
   </g>
   <g id="line2d_41">
    <path d="M 239.04 581.04 
L 833.76 573.171496 
" clip-path="url(#p7ecca4b036)" style="fill: none; stroke: #b0bec5; stroke-opacity: 0.7; stroke-width: 2; stroke-linecap: square"/>
   </g>
   <g id="line2d_42">
    <path d="M 279.36 667.44 
L 833.76 477.658815 
" clip-path="url(#p7ecca4b036)" style="fill: none; stroke: #b0bec5; stroke-opacity: 0.7; stroke-width: 2; stroke-linecap: square"/>
   </g>
   <g id="line2d_43">
    <path d="M 360 753.84 
L 833.76 528.131574 
" clip-path="url(#p7ecca4b036)" style="fill: none; stroke: #b0bec5; stroke-opacity: 0.7; stroke-width: 2; stroke-linecap: square"/>
   </g>
   <g id="text_1">
    <!-- PRIME STRUCTURES -->
    <g style="fill: #1e88e5" transform="translate(502.81 118.46) scale(0.64 -0.64)">
     <defs>
      <path id="DejaVuSans-Bold-50" d="M 588 4666 
L 2584 4666 
Q 3475 4666 3951 4270 
Q 4428 3875 4428 3144 
Q 4428 2409 3951 2014 
Q 3475 1619 2584 1619 
L 1791 1619 
L 1791 0 
L 588 0 
L 588 4666 
z
M 1791 3794 
L 1791 2491 
L 2456 2491 
Q 2806 2491 2997 2661 
Q 3188 2831 3188 3144 
Q 3188 3456 2997 3625 
Q 2806 3794 2456 3794 
L 1791 3794 
z
" transform="scale(0.015625)"/>
      <path id="DejaVuSans-Bold-52" d="M 2297 2597 
Q 2675 2597 2839 2737 
Q 3003 2878 3003 3200 
Q 3003 3519 2839 3656 
Q 2675 3794 2297 3794 
L 1791 3794 
L 1791 2597 
L 2297 2597 
z
M 1791 1766 
L 1791 0 
L 588 0 
L 588 4666 
L 2425 4666 
Q 3347 4666 3776 4356 
Q 4206 4047 4206 3378 
Q 4206 2916 3982 2619 
Q 3759 2322 3309 2181 
Q 3556 2125 3751 1926 
Q 3947 1728 4147 1325 
L 4800 0 
L 3519 0 
L 2950 1159 
Q 2778 1509 2601 1637 
Q 2425 1766 2131 1766 
L 1791 1766 
z
" transform="scale(0.015625)"/>
      <path id="DejaVuSans-Bold-49" d="M 588 4666 
L 1791 4666 
L 1791 0 
L 588 0 
L 588 4666 
z
" transform="scale(0.015625)"/>
      <path id="DejaVuSans-Bold-4d" d="M 588 4666 
L 2119 4666 
L 3181 2169 
L 4250 4666 
L 5778 4666 
L 5778 0 
L 4641 0 
L 4641 3413 
L 3566 897 
L 2803 897 
L 1728 3413 
L 1728 0 
L 588 0 
L 588 4666 
z
" transform="scale(0.015625)"/>
      <path id="DejaVuSans-Bold-45" d="M 588 4666 
L 3834 4666 
L 3834 3756 
L 1791 3756 
L 1791 2888 
L 3713 2888 
L 3713 1978 
L 1791 1978 
L 1791 909 
L 3903 909 
L 3903 0 
L 588 0 
L 588 4666 
z
" transform="scale(0.015625)"/>
      <path id="DejaVuSans-Bold-20" transform="scale(0.015625)"/>
      <path id="DejaVuSans-Bold-53" d="M 3834 4519 
L 3834 3531 
Q 3450 3703 3084 3790 
Q 2719 3878 2394 3878 
Q 1963 3878 1756 3759 
Q 1550 3641 1550 3391 
Q 1550 3203 1689 3098 
Q 1828 2994 2194 2919 
L 2706 2816 
Q 3484 2659 3812 2340 
Q 4141 2022 4141 1434 
Q 4141 663 3683 286 
Q 3225 -91 2284 -91 
Q 1841 -91 1394 -6 
Q 947 78 500 244 
L 500 1259 
Q 947 1022 1364 901 
Q 1781 781 2169 781 
Q 2563 781 2772 912 
Q 2981 1044 2981 1288 
Q 2981 1506 2839 1625 
Q 2697 1744 2272 1838 
L 1806 1941 
Q 1106 2091 782 2419 
Q 459 2747 459 3303 
Q 459 4000 909 4375 
Q 1359 4750 2203 4750 
Q 2588 4750 2994 4692 
Q 3400 4634 3834 4519 
z
" transform="scale(0.015625)"/>
      <path id="DejaVuSans-Bold-54" d="M 31 4666 
L 4331 4666 
L 4331 3756 
L 2784 3756 
L 2784 0 
L 1581 0 
L 1581 3756 
L 31 3756 
L 31 4666 
z
" transform="scale(0.015625)"/>
      <path id="DejaVuSans-Bold-55" d="M 588 4666 
L 1791 4666 
L 1791 1869 
Q 1791 1291 1980 1042 
Q 2169 794 2597 794 
Q 3028 794 3217 1042 
Q 3406 1291 3406 1869 
L 3406 4666 
L 4609 4666 
L 4609 1869 
Q 4609 878 4112 393 
Q 3616 -91 2597 -91 
Q 1581 -91 1084 393 
Q 588 878 588 1869 
L 588 4666 
z
" transform="scale(0.015625)"/>
      <path id="DejaVuSans-Bold-43" d="M 4288 256 
Q 3956 84 3597 -3 
Q 3238 -91 2847 -91 
Q 1681 -91 1000 561 
Q 319 1213 319 2328 
Q 319 3447 1000 4098 
Q 1681 4750 2847 4750 
Q 3238 4750 3597 4662 
Q 3956 4575 4288 4403 
L 4288 3438 
Q 3953 3666 3628 3772 
Q 3303 3878 2944 3878 
Q 2300 3878 1931 3465 
Q 1563 3053 1563 2328 
Q 1563 1606 1931 1193 
Q 2300 781 2944 781 
Q 3303 781 3628 887 
Q 3953 994 4288 1222 
L 4288 256 
z
" transform="scale(0.015625)"/>
     </defs>
     <use xlink:href="#DejaVuSans-Bold-50"/>
     <use xlink:href="#DejaVuSans-Bold-52" x="73.291016"/>
     <use xlink:href="#DejaVuSans-Bold-49" x="150.292969"/>
     <use xlink:href="#DejaVuSans-Bold-4d" x="187.5"/>
     <use xlink:href="#DejaVuSans-Bold-45" x="287.011719"/>
     <use xlink:href="#DejaVuSans-Bold-20" x="355.322266"/>
     <use xlink:href="#DejaVuSans-Bold-53" x="390.136719"/>
     <use xlink:href="#DejaVuSans-Bold-54" x="462.158203"/>
     <use xlink:href="#DejaVuSans-Bold-52" x="530.371094"/>
     <use xlink:href="#DejaVuSans-Bold-55" x="607.373047"/>
     <use xlink:href="#DejaVuSans-Bold-43" x="688.574219"/>
     <use xlink:href="#DejaVuSans-Bold-54" x="761.962891"/>
     <use xlink:href="#DejaVuSans-Bold-55" x="830.175781"/>
     <use xlink:href="#DejaVuSans-Bold-52" x="911.376953"/>
     <use xlink:href="#DejaVuSans-Bold-45" x="988.378906"/>
     <use xlink:href="#DejaVuSans-Bold-53" x="1056.689453"/>
    </g>
   </g>
   <g id="text_2">
    <!--  ALGEBRAIC INTELLIGENCE -->
    <g style="fill: #c2185b" transform="translate(357.13 168.86) scale(0.64 -0.64)">
     <defs>
      <path id="DejaVuSans-Bold-2192" d="M 5050 2225 
L 5050 1788 
L 3822 559 
L 3369 1013 
L 3988 1631 
L 366 1631 
L 366 2381 
L 3988 2381 
L 3369 3000 
L 3822 3453 
L 5050 2225 
z
" transform="scale(0.015625)"/>
      <path id="DejaVuSans-Bold-41" d="M 3419 850 
L 1538 850 
L 1241 0 
L 31 0 
L 1759 4666 
L 3194 4666 
L 4922 0 
L 3713 0 
L 3419 850 
z
M 1838 1716 
L 3116 1716 
L 2478 3572 
L 1838 1716 
z
" transform="scale(0.015625)"/>
      <path id="DejaVuSans-Bold-4c" d="M 588 4666 
L 1791 4666 
L 1791 909 
L 3903 909 
L 3903 0 
L 588 0 
L 588 4666 
z
" transform="scale(0.015625)"/>
      <path id="DejaVuSans-Bold-47" d="M 4781 347 
Q 4331 128 3847 18 
Q 3363 -91 2847 -91 
Q 1681 -91 1000 561 
Q 319 1213 319 2328 
Q 319 3456 1012 4103 
Q 1706 4750 2913 4750 
Q 3378 4750 3804 4662 
Q 4231 4575 4609 4403 
L 4609 3438 
Q 4219 3659 3833 3768 
Q 3447 3878 3059 3878 
Q 2341 3878 1952 3476 
Q 1563 3075 1563 2328 
Q 1563 1588 1938 1184 
Q 2313 781 3003 781 
Q 3191 781 3352 804 
Q 3513 828 3641 878 
L 3641 1784 
L 2906 1784 
L 2906 2591 
L 4781 2591 
L 4781 347 
z
" transform="scale(0.015625)"/>
      <path id="DejaVuSans-Bold-42" d="M 2456 2859 
Q 2741 2859 2887 2984 
Q 3034 3109 3034 3353 
Q 3034 3594 2887 3720 
Q 2741 3847 2456 3847 
L 1791 3847 
L 1791 2859 
L 2456 2859 
z
M 2497 819 
Q 2859 819 3042 972 
Q 3225 1125 3225 1434 
Q 3225 1738 3044 1889 
Q 2863 2041 2497 2041 
L 1791 2041 
L 1791 819 
L 2497 819 
z
M 3616 2497 
Q 4003 2384 4215 2081 
Q 4428 1778 4428 1338 
Q 4428 663 3972 331 
Q 3516 0 2584 0 
L 588 0 
L 588 4666 
L 2394 4666 
Q 3366 4666 3802 4372 
Q 4238 4078 4238 3431 
Q 4238 3091 4078 2852 
Q 3919 2613 3616 2497 
z
" transform="scale(0.015625)"/>
      <path id="DejaVuSans-Bold-4e" d="M 588 4666 
L 1931 4666 
L 3628 1466 
L 3628 4666 
L 4769 4666 
L 4769 0 
L 3425 0 
L 1728 3200 
L 1728 0 
L 588 0 
L 588 4666 
z
" transform="scale(0.015625)"/>
     </defs>
     <use xlink:href="#DejaVuSans-Bold-2192"/>
     <use xlink:href="#DejaVuSans-Bold-20" x="83.789062"/>
     <use xlink:href="#DejaVuSans-Bold-41" x="118.603516"/>
     <use xlink:href="#DejaVuSans-Bold-4c" x="195.996094"/>
     <use xlink:href="#DejaVuSans-Bold-47" x="259.716797"/>
     <use xlink:href="#DejaVuSans-Bold-45" x="341.796875"/>
     <use xlink:href="#DejaVuSans-Bold-42" x="410.107422"/>
     <use xlink:href="#DejaVuSans-Bold-52" x="486.328125"/>
     <use xlink:href="#DejaVuSans-Bold-41" x="563.330078"/>
     <use xlink:href="#DejaVuSans-Bold-49" x="640.722656"/>
     <use xlink:href="#DejaVuSans-Bold-43" x="677.929688"/>
     <use xlink:href="#DejaVuSans-Bold-20" x="751.318359"/>
     <use xlink:href="#DejaVuSans-Bold-49" x="786.132812"/>
     <use xlink:href="#DejaVuSans-Bold-4e" x="823.339844"/>
     <use xlink:href="#DejaVuSans-Bold-54" x="907.03125"/>
     <use xlink:href="#DejaVuSans-Bold-45" x="975.244141"/>
     <use xlink:href="#DejaVuSans-Bold-4c" x="1043.554688"/>
     <use xlink:href="#DejaVuSans-Bold-4c" x="1107.275391"/>
     <use xlink:href="#DejaVuSans-Bold-49" x="1170.996094"/>
     <use xlink:href="#DejaVuSans-Bold-47" x="1208.203125"/>
     <use xlink:href="#DejaVuSans-Bold-45" x="1290.283203"/>
     <use xlink:href="#DejaVuSans-Bold-4e" x="1358.59375"/>
     <use xlink:href="#DejaVuSans-Bold-43" x="1442.285156"/>
     <use xlink:href="#DejaVuSans-Bold-45" x="1515.673828"/>
    </g>
   </g>
   <g id="text_3">
    <!-- Embedding -->
    <g style="fill: #c2185b" transform="translate(810.0625 412.616875) scale(0.28 -0.28)">
     <defs>
      <path id="DejaVuSans-Bold-6d" d="M 3781 2919 
Q 3994 3244 4286 3414 
Q 4578 3584 4928 3584 
Q 5531 3584 5847 3212 
Q 6163 2841 6163 2131 
L 6163 0 
L 5038 0 
L 5038 1825 
Q 5041 1866 5042 1909 
Q 5044 1953 5044 2034 
Q 5044 2406 4934 2573 
Q 4825 2741 4581 2741 
Q 4263 2741 4089 2478 
Q 3916 2216 3909 1719 
L 3909 0 
L 2784 0 
L 2784 1825 
Q 2784 2406 2684 2573 
Q 2584 2741 2328 2741 
Q 2006 2741 1831 2477 
Q 1656 2213 1656 1722 
L 1656 0 
L 531 0 
L 531 3500 
L 1656 3500 
L 1656 2988 
Q 1863 3284 2130 3434 
Q 2397 3584 2719 3584 
Q 3081 3584 3359 3409 
Q 3638 3234 3781 2919 
z
" transform="scale(0.015625)"/>
      <path id="DejaVuSans-Bold-62" d="M 2400 722 
Q 2759 722 2948 984 
Q 3138 1247 3138 1747 
Q 3138 2247 2948 2509 
Q 2759 2772 2400 2772 
Q 2041 2772 1848 2508 
Q 1656 2244 1656 1747 
Q 1656 1250 1848 986 
Q 2041 722 2400 722 
z
M 1656 2988 
Q 1888 3294 2169 3439 
Q 2450 3584 2816 3584 
Q 3463 3584 3878 3070 
Q 4294 2556 4294 1747 
Q 4294 938 3878 423 
Q 3463 -91 2816 -91 
Q 2450 -91 2169 54 
Q 1888 200 1656 506 
L 1656 0 
L 538 0 
L 538 4863 
L 1656 4863 
L 1656 2988 
z
" transform="scale(0.015625)"/>
      <path id="DejaVuSans-Bold-65" d="M 4031 1759 
L 4031 1441 
L 1416 1441 
Q 1456 1047 1700 850 
Q 1944 653 2381 653 
Q 2734 653 3104 758 
Q 3475 863 3866 1075 
L 3866 213 
Q 3469 63 3072 -14 
Q 2675 -91 2278 -91 
Q 1328 -91 801 392 
Q 275 875 275 1747 
Q 275 2603 792 3093 
Q 1309 3584 2216 3584 
Q 3041 3584 3536 3087 
Q 4031 2591 4031 1759 
z
M 2881 2131 
Q 2881 2450 2695 2645 
Q 2509 2841 2209 2841 
Q 1884 2841 1681 2658 
Q 1478 2475 1428 2131 
L 2881 2131 
z
" transform="scale(0.015625)"/>
      <path id="DejaVuSans-Bold-64" d="M 2919 2988 
L 2919 4863 
L 4044 4863 
L 4044 0 
L 2919 0 
L 2919 506 
Q 2688 197 2409 53 
Q 2131 -91 1766 -91 
Q 1119 -91 703 423 
Q 288 938 288 1747 
Q 288 2556 703 3070 
Q 1119 3584 1766 3584 
Q 2128 3584 2408 3439 
Q 2688 3294 2919 2988 
z
M 2181 722 
Q 2541 722 2730 984 
Q 2919 1247 2919 1747 
Q 2919 2247 2730 2509 
Q 2541 2772 2181 2772 
Q 1825 2772 1636 2509 
Q 1447 2247 1447 1747 
Q 1447 1247 1636 984 
Q 1825 722 2181 722 
z
" transform="scale(0.015625)"/>
      <path id="DejaVuSans-Bold-69" d="M 538 3500 
L 1656 3500 
L 1656 0 
L 538 0 
L 538 3500 
z
M 538 4863 
L 1656 4863 
L 1656 3950 
L 538 3950 
L 538 4863 
z
" transform="scale(0.015625)"/>
      <path id="DejaVuSans-Bold-6e" d="M 4056 2131 
L 4056 0 
L 2931 0 
L 2931 347 
L 2931 1631 
Q 2931 2084 2911 2256 
Q 2891 2428 2841 2509 
Q 2775 2619 2662 2680 
Q 2550 2741 2406 2741 
Q 2056 2741 1856 2470 
Q 1656 2200 1656 1722 
L 1656 0 
L 538 0 
L 538 3500 
L 1656 3500 
L 1656 2988 
Q 1909 3294 2193 3439 
Q 2478 3584 2822 3584 
Q 3428 3584 3742 3212 
Q 4056 2841 4056 2131 
z
" transform="scale(0.015625)"/>
      <path id="DejaVuSans-Bold-67" d="M 2919 594 
Q 2688 288 2409 144 
Q 2131 0 1766 0 
Q 1125 0 706 504 
Q 288 1009 288 1791 
Q 288 2575 706 3076 
Q 1125 3578 1766 3578 
Q 2131 3578 2409 3434 
Q 2688 3291 2919 2981 
L 2919 3500 
L 4044 3500 
L 4044 353 
Q 4044 -491 3511 -936 
Q 2978 -1381 1966 -1381 
Q 1638 -1381 1331 -1331 
Q 1025 -1281 716 -1178 
L 716 -306 
Q 1009 -475 1290 -558 
Q 1572 -641 1856 -641 
Q 2406 -641 2662 -400 
Q 2919 -159 2919 353 
L 2919 594 
z
M 2181 2772 
Q 1834 2772 1640 2515 
Q 1447 2259 1447 1791 
Q 1447 1309 1634 1061 
Q 1822 813 2181 813 
Q 2531 813 2725 1069 
Q 2919 1325 2919 1791 
Q 2919 2259 2725 2515 
Q 2531 2772 2181 2772 
z
" transform="scale(0.015625)"/>
     </defs>
     <use xlink:href="#DejaVuSans-Bold-45"/>
     <use xlink:href="#DejaVuSans-Bold-6d" x="68.310547"/>
     <use xlink:href="#DejaVuSans-Bold-62" x="172.509766"/>
     <use xlink:href="#DejaVuSans-Bold-65" x="244.091797"/>
     <use xlink:href="#DejaVuSans-Bold-64" x="311.914062"/>
     <use xlink:href="#DejaVuSans-Bold-64" x="383.496094"/>
     <use xlink:href="#DejaVuSans-Bold-69" x="455.078125"/>
     <use xlink:href="#DejaVuSans-Bold-6e" x="489.355469"/>
     <use xlink:href="#DejaVuSans-Bold-67" x="560.546875"/>
    </g>
   </g>
   <g id="text_4">
    <!-- Attention -->
    <g style="fill: #c2185b" transform="translate(1048.444375 412.72625) scale(0.28 -0.28)">
     <defs>
      <path id="DejaVuSans-Bold-74" d="M 1759 4494 
L 1759 3500 
L 2913 3500 
L 2913 2700 
L 1759 2700 
L 1759 1216 
Q 1759 972 1856 886 
Q 1953 800 2241 800 
L 2816 800 
L 2816 0 
L 1856 0 
Q 1194 0 917 276 
Q 641 553 641 1216 
L 641 2700 
L 84 2700 
L 84 3500 
L 641 3500 
L 641 4494 
L 1759 4494 
z
" transform="scale(0.015625)"/>
      <path id="DejaVuSans-Bold-6f" d="M 2203 2784 
Q 1831 2784 1636 2517 
Q 1441 2250 1441 1747 
Q 1441 1244 1636 976 
Q 1831 709 2203 709 
Q 2569 709 2762 976 
Q 2956 1244 2956 1747 
Q 2956 2250 2762 2517 
Q 2569 2784 2203 2784 
z
M 2203 3584 
Q 3106 3584 3614 3096 
Q 4122 2609 4122 1747 
Q 4122 884 3614 396 
Q 3106 -91 2203 -91 
Q 1297 -91 786 396 
Q 275 884 275 1747 
Q 275 2609 786 3096 
Q 1297 3584 2203 3584 
z
" transform="scale(0.015625)"/>
     </defs>
     <use xlink:href="#DejaVuSans-Bold-41"/>
     <use xlink:href="#DejaVuSans-Bold-74" x="77.392578"/>
     <use xlink:href="#DejaVuSans-Bold-74" x="125.195312"/>
     <use xlink:href="#DejaVuSans-Bold-65" x="172.998047"/>
     <use xlink:href="#DejaVuSans-Bold-6e" x="240.820312"/>
     <use xlink:href="#DejaVuSans-Bold-74" x="312.011719"/>
     <use xlink:href="#DejaVuSans-Bold-69" x="359.814453"/>
     <use xlink:href="#DejaVuSans-Bold-6f" x="394.091797"/>
     <use xlink:href="#DejaVuSans-Bold-6e" x="462.792969"/>
    </g>
   </g>
   <g id="text_5">
    <!-- Projection -->
    <g style="fill: #c2185b" transform="translate(1267.385938 412.616875) scale(0.28 -0.28)">
     <defs>
      <path id="DejaVuSans-Bold-72" d="M 3138 2547 
Q 2991 2616 2845 2648 
Q 2700 2681 2553 2681 
Q 2122 2681 1889 2404 
Q 1656 2128 1656 1613 
L 1656 0 
L 538 0 
L 538 3500 
L 1656 3500 
L 1656 2925 
Q 1872 3269 2151 3426 
Q 2431 3584 2822 3584 
Q 2878 3584 2943 3579 
Q 3009 3575 3134 3559 
L 3138 2547 
z
" transform="scale(0.015625)"/>
      <path id="DejaVuSans-Bold-6a" d="M 538 3500 
L 1656 3500 
L 1656 63 
Q 1656 -641 1318 -1011 
Q 981 -1381 341 -1381 
L -213 -1381 
L -213 -647 
L -19 -647 
Q 300 -647 419 -503 
Q 538 -359 538 63 
L 538 3500 
z
M 538 4863 
L 1656 4863 
L 1656 3950 
L 538 3950 
L 538 4863 
z
" transform="scale(0.015625)"/>
      <path id="DejaVuSans-Bold-63" d="M 3366 3391 
L 3366 2478 
Q 3138 2634 2908 2709 
Q 2678 2784 2431 2784 
Q 1963 2784 1702 2511 
Q 1441 2238 1441 1747 
Q 1441 1256 1702 982 
Q 1963 709 2431 709 
Q 2694 709 2930 787 
Q 3166 866 3366 1019 
L 3366 103 
Q 3103 6 2833 -42 
Q 2563 -91 2291 -91 
Q 1344 -91 809 395 
Q 275 881 275 1747 
Q 275 2613 809 3098 
Q 1344 3584 2291 3584 
Q 2566 3584 2833 3536 
Q 3100 3488 3366 3391 
z
" transform="scale(0.015625)"/>
     </defs>
     <use xlink:href="#DejaVuSans-Bold-50"/>
     <use xlink:href="#DejaVuSans-Bold-72" x="73.291016"/>
     <use xlink:href="#DejaVuSans-Bold-6f" x="122.607422"/>
     <use xlink:href="#DejaVuSans-Bold-6a" x="191.308594"/>
     <use xlink:href="#DejaVuSans-Bold-65" x="225.585938"/>
     <use xlink:href="#DejaVuSans-Bold-63" x="293.408203"/>
     <use xlink:href="#DejaVuSans-Bold-74" x="352.685547"/>
     <use xlink:href="#DejaVuSans-Bold-69" x="400.488281"/>
     <use xlink:href="#DejaVuSans-Bold-6f" x="434.765625"/>
     <use xlink:href="#DejaVuSans-Bold-6e" x="503.466797"/>
    </g>
   </g>
   <g id="text_6">
    <!-- Output -->
    <g style="fill: #c2185b" transform="translate(1499.96125 412.72625) scale(0.28 -0.28)">
     <defs>
      <path id="DejaVuSans-Bold-4f" d="M 2719 3878 
Q 2169 3878 1866 3472 
Q 1563 3066 1563 2328 
Q 1563 1594 1866 1187 
Q 2169 781 2719 781 
Q 3272 781 3575 1187 
Q 3878 1594 3878 2328 
Q 3878 3066 3575 3472 
Q 3272 3878 2719 3878 
z
M 2719 4750 
Q 3844 4750 4481 4106 
Q 5119 3463 5119 2328 
Q 5119 1197 4481 553 
Q 3844 -91 2719 -91 
Q 1597 -91 958 553 
Q 319 1197 319 2328 
Q 319 3463 958 4106 
Q 1597 4750 2719 4750 
z
" transform="scale(0.015625)"/>
      <path id="DejaVuSans-Bold-75" d="M 500 1363 
L 500 3500 
L 1625 3500 
L 1625 3150 
Q 1625 2866 1622 2436 
Q 1619 2006 1619 1863 
Q 1619 1441 1641 1255 
Q 1663 1069 1716 984 
Q 1784 875 1895 815 
Q 2006 756 2150 756 
Q 2500 756 2700 1025 
Q 2900 1294 2900 1772 
L 2900 3500 
L 4019 3500 
L 4019 0 
L 2900 0 
L 2900 506 
Q 2647 200 2364 54 
Q 2081 -91 1741 -91 
Q 1134 -91 817 281 
Q 500 653 500 1363 
z
" transform="scale(0.015625)"/>
      <path id="DejaVuSans-Bold-70" d="M 1656 506 
L 1656 -1331 
L 538 -1331 
L 538 3500 
L 1656 3500 
L 1656 2988 
Q 1888 3294 2169 3439 
Q 2450 3584 2816 3584 
Q 3463 3584 3878 3070 
Q 4294 2556 4294 1747 
Q 4294 938 3878 423 
Q 3463 -91 2816 -91 
Q 2450 -91 2169 54 
Q 1888 200 1656 506 
z
M 2400 2772 
Q 2041 2772 1848 2508 
Q 1656 2244 1656 1747 
Q 1656 1250 1848 986 
Q 2041 722 2400 722 
Q 2759 722 2948 984 
Q 3138 1247 3138 1747 
Q 3138 2247 2948 2509 
Q 2759 2772 2400 2772 
z
" transform="scale(0.015625)"/>
     </defs>
     <use xlink:href="#DejaVuSans-Bold-4f"/>
     <use xlink:href="#DejaVuSans-Bold-75" x="85.009766"/>
     <use xlink:href="#DejaVuSans-Bold-74" x="156.201172"/>
     <use xlink:href="#DejaVuSans-Bold-70" x="204.003906"/>
     <use xlink:href="#DejaVuSans-Bold-75" x="275.585938"/>
     <use xlink:href="#DejaVuSans-Bold-74" x="346.777344"/>
    </g>
   </g>
  </g>
 </g>
 <defs>
  <clipPath id="p7ecca4b036">
   <rect x="0" y="0" width="1728" height="972"/>
  </clipPath>
 </defs>
</svg>
